<svg xmlns="http://www.w3.org/2000/svg" xmlns:xlink="http://www.w3.org/1999/xlink" fill="none" version="1.1" width="32" height="32" viewBox="0 0 32 32"><defs><clipPath id="master_svg0_110_28887"><rect x="0" y="0" width="32" height="32" rx="0"/></clipPath></defs><g clip-path="url(#master_svg0_110_28887)"><g><path d="M14.6666259765625,8.0000440234375C15.4030259765625,8.0000440234375,15.9999259765625,7.403084023437501,15.9999259765625,6.6667040234375C15.9999259765625,5.9303270234375,15.4030259765625,5.3333740234375,14.6666259765625,5.3333740234375C14.6666259765625,5.3333740234375,14.6666259765625,8.0000440234375,14.6666259765625,8.0000440234375C14.6666259765625,8.0000440234375,14.6666259765625,8.0000440234375,14.6666259765625,8.0000440234375ZM6.3703359765625,6.6667040234375C6.3703359765625,6.6667040234375,6.3703359765625,5.3333740234375,6.3703359765625,5.3333740234375C6.3703359765625,5.3333740234375,6.3703359765625,6.6667040234375,6.3703359765625,6.6667040234375C6.3703359765625,6.6667040234375,6.3703359765625,6.6667040234375,6.3703359765625,6.6667040234375ZM3.9999559765625,9.037084023437501C3.9999559765625,9.037084023437501,2.6666259765625,9.037084023437501,2.6666259765625,9.037084023437501C2.6666259765625,9.037084023437501,3.9999559765625,9.037084023437501,3.9999559765625,9.037084023437501C3.9999559765625,9.037084023437501,3.9999559765625,9.037084023437501,3.9999559765625,9.037084023437501ZM3.9999559765625,25.6296740234375C3.9999559765625,25.6296740234375,2.6666259765625,25.6296740234375,2.6666259765625,25.6296740234375C2.6666259765625,25.6296740234375,3.9999559765625,25.6296740234375,3.9999559765625,25.6296740234375C3.9999559765625,25.6296740234375,3.9999559765625,25.6296740234375,3.9999559765625,25.6296740234375ZM26.6666259765625,17.3333740234375C26.6666259765625,16.5969740234375,26.0697259765625,16.0000740234375,25.3333259765625,16.0000740234375C24.5969259765625,16.0000740234375,23.9999259765625,16.5969740234375,23.9999259765625,17.3333740234375C23.9999259765625,17.3333740234375,26.6666259765625,17.3333740234375,26.6666259765625,17.3333740234375C26.6666259765625,17.3333740234375,26.6666259765625,17.3333740234375,26.6666259765625,17.3333740234375ZM14.6666259765625,5.3333740234375C14.6666259765625,5.3333740234375,6.3703359765625,5.3333740234375,6.3703359765625,5.3333740234375C6.3703359765625,5.3333740234375,6.3703359765625,8.0000440234375,6.3703359765625,8.0000440234375C6.3703359765625,8.0000440234375,14.6666259765625,8.0000440234375,14.6666259765625,8.0000440234375C14.6666259765625,8.0000440234375,14.6666259765625,5.3333740234375,14.6666259765625,5.3333740234375C14.6666259765625,5.3333740234375,14.6666259765625,5.3333740234375,14.6666259765625,5.3333740234375ZM6.3703359765625,5.3333740234375C5.3880559765625,5.3333740234375,4.4459959765625,5.7235850234375,3.7514159765625,6.4181640234375C3.7514159765625,6.4181640234375,5.6370359765625,8.303784023437501,5.6370359765625,8.303784023437501C5.8315159765625,8.1092940234375,6.0952959765625,8.0000440234375,6.3703359765625,8.0000440234375C6.3703359765625,8.0000440234375,6.3703359765625,5.3333740234375,6.3703359765625,5.3333740234375C6.3703359765625,5.3333740234375,6.3703359765625,5.3333740234375,6.3703359765625,5.3333740234375ZM3.7514159765625,6.4181640234375C3.0568369765625,7.1127440234375,2.6666259765625,8.0548040234375,2.6666259765625,9.037084023437501C2.6666259765625,9.037084023437501,5.3332959765625,9.037084023437501,5.3332959765625,9.037084023437501C5.3332959765625,8.7620440234375,5.4425459765625,8.4982640234375,5.6370359765625,8.303784023437501C5.6370359765625,8.303784023437501,3.7514159765625,6.4181640234375,3.7514159765625,6.4181640234375C3.7514159765625,6.4181640234375,3.7514159765625,6.4181640234375,3.7514159765625,6.4181640234375ZM2.6666259765625,9.037084023437501C2.6666259765625,9.037084023437501,2.6666259765625,25.6296740234375,2.6666259765625,25.6296740234375C2.6666259765625,25.6296740234375,5.3332959765625,25.6296740234375,5.3332959765625,25.6296740234375C5.3332959765625,25.6296740234375,5.3332959765625,9.037084023437501,5.3332959765625,9.037084023437501C5.3332959765625,9.037084023437501,2.6666259765625,9.037084023437501,2.6666259765625,9.037084023437501C2.6666259765625,9.037084023437501,2.6666259765625,9.037084023437501,2.6666259765625,9.037084023437501ZM2.6666259765625,25.6296740234375C2.6666259765625,26.6118740234375,3.0568369765625,27.5540740234375,3.7514159765625,28.2485740234375C3.7514159765625,28.2485740234375,5.6370359765625,26.3629740234375,5.6370359765625,26.3629740234375C5.4425459765625,26.1684740234375,5.3332959765625,25.9046740234375,5.3332959765625,25.6296740234375C5.3332959765625,25.6296740234375,2.6666259765625,25.6296740234375,2.6666259765625,25.6296740234375C2.6666259765625,25.6296740234375,2.6666259765625,25.6296740234375,2.6666259765625,25.6296740234375ZM3.7514159765625,28.2485740234375C4.4459959765625,28.9430740234375,5.3880359765625006,29.3333740234375,6.3703359765625,29.3333740234375C6.3703359765625,29.3333740234375,6.3703359765625,26.6666740234375,6.3703359765625,26.6666740234375C6.0952959765625,26.6666740234375,5.8315159765625,26.5574740234375,5.6370359765625,26.3629740234375C5.6370359765625,26.3629740234375,3.7514159765625,28.2485740234375,3.7514159765625,28.2485740234375C3.7514159765625,28.2485740234375,3.7514159765625,28.2485740234375,3.7514159765625,28.2485740234375ZM6.3703359765625,29.3333740234375C6.3703359765625,29.3333740234375,22.9629259765625,29.3333740234375,22.9629259765625,29.3333740234375C22.9629259765625,29.3333740234375,22.9629259765625,26.6666740234375,22.9629259765625,26.6666740234375C22.9629259765625,26.6666740234375,6.3703359765625,26.6666740234375,6.3703359765625,26.6666740234375C6.3703359765625,26.6666740234375,6.3703359765625,29.3333740234375,6.3703359765625,29.3333740234375C6.3703359765625,29.3333740234375,6.3703359765625,29.3333740234375,6.3703359765625,29.3333740234375ZM22.9629259765625,29.3333740234375C23.9451259765625,29.3333740234375,24.8873259765625,28.9430740234375,25.5818259765625,28.2485740234375C25.5818259765625,28.2485740234375,23.6962259765625,26.3629740234375,23.6962259765625,26.3629740234375C23.5017259765625,26.5574740234375,23.2379259765625,26.6666740234375,22.9629259765625,26.6666740234375C22.9629259765625,26.6666740234375,22.9629259765625,29.3333740234375,22.9629259765625,29.3333740234375C22.9629259765625,29.3333740234375,22.9629259765625,29.3333740234375,22.9629259765625,29.3333740234375ZM25.5818259765625,28.2485740234375C26.2763259765625,27.5540740234375,26.6666259765625,26.6118740234375,26.6666259765625,25.6296740234375C26.6666259765625,25.6296740234375,23.9999259765625,25.6296740234375,23.9999259765625,25.6296740234375C23.9999259765625,25.9046740234375,23.8907259765625,26.1684740234375,23.6962259765625,26.3629740234375C23.6962259765625,26.3629740234375,25.5818259765625,28.2485740234375,25.5818259765625,28.2485740234375C25.5818259765625,28.2485740234375,25.5818259765625,28.2485740234375,25.5818259765625,28.2485740234375ZM26.6666259765625,25.6296740234375C26.6666259765625,25.6296740234375,26.6666259765625,17.3333740234375,26.6666259765625,17.3333740234375C26.6666259765625,17.3333740234375,23.9999259765625,17.3333740234375,23.9999259765625,17.3333740234375C23.9999259765625,17.3333740234375,23.9999259765625,25.6296740234375,23.9999259765625,25.6296740234375C23.9999259765625,25.6296740234375,26.6666259765625,25.6296740234375,26.6666259765625,25.6296740234375C26.6666259765625,25.6296740234375,26.6666259765625,25.6296740234375,26.6666259765625,25.6296740234375Z" fill="currentColor" fill-opacity="0.8500000238418579"/></g><g><path d="M23.554951953125,4.7626059765625C23.554951953125,4.7626059765625,22.612151953125,3.8197959765625003,22.612151953125,3.8197959765625003C22.612151953125,3.8197959765625003,22.612151953125,3.8197959765625003,22.612151953125,3.8197959765625003C22.612151953125,3.8197959765625003,23.554951953125,4.7626059765625,23.554951953125,4.7626059765625C23.554951953125,4.7626059765625,23.554951953125,4.7626059765625,23.554951953125,4.7626059765625ZM25.396051953125,3.9999559765625C25.396051953125,3.9999559765625,25.396051953125,2.6666259765625,25.396051953125,2.6666259765625C25.396051953125,2.6666259765625,25.396051953125,3.9999559765625,25.396051953125,3.9999559765625C25.396051953125,3.9999559765625,25.396051953125,3.9999559765625,25.396051953125,3.9999559765625ZM27.237251953125,8.4449859765625C27.237251953125,8.4449859765625,26.294451953125,7.5021759765625,26.294451953125,7.5021759765625C26.294451953125,7.5021759765625,26.294451953125,7.5021759765625,26.294451953125,7.5021759765625C26.294451953125,7.5021759765625,27.237251953125,8.4449859765625,27.237251953125,8.4449859765625C27.237251953125,8.4449859765625,27.237251953125,8.4449859765625,27.237251953125,8.4449859765625ZM15.576451953125,20.1058259765625C15.576451953125,20.1058259765625,15.899831953125,21.3993259765625,15.899831953125,21.3993259765625C16.134271953125,21.3407259765625,16.348371953125,21.2195259765625,16.519251953125,21.0486259765625C16.519251953125,21.0486259765625,15.576451953125,20.1058259765625,15.576451953125,20.1058259765625C15.576451953125,20.1058259765625,15.576451953125,20.1058259765625,15.576451953125,20.1058259765625ZM10.666611953125,21.3333259765625C10.666611953125,21.3333259765625,9.373092653125,21.0099259765625,9.373092653125,21.0099259765625C9.259495253125,21.4642259765625,9.392632653125,21.9449259765625,9.723805953125,22.2761259765625C10.054980953125,22.6073259765625,10.535631953125,22.7403259765625,10.989991953125,22.6267259765625C10.989991953125,22.6267259765625,10.666611953125,21.3333259765625,10.666611953125,21.3333259765625C10.666611953125,21.3333259765625,10.666611953125,21.3333259765625,10.666611953125,21.3333259765625ZM11.894071953125,16.4234259765625C11.894071953125,16.4234259765625,10.951261953125,15.4806259765625,10.951261953125,15.4806259765625C10.780381953125,15.6515259765625,10.659161953125,15.8656259765625,10.600551953125,16.100125976562502C10.600551953125,16.100125976562502,11.894071953125,16.4234259765625,11.894071953125,16.4234259765625C11.894071953125,16.4234259765625,11.894071953125,16.4234259765625,11.894071953125,16.4234259765625ZM24.497651953125,5.7054159765625005C24.735951953125,5.467145976562501,25.059151953125,5.3332959765625,25.396051953125,5.3332959765625C25.396051953125,5.3332959765625,25.396051953125,2.6666259765625,25.396051953125,2.6666259765625C24.351951953125003,2.6666259765625,23.350451953125003,3.0814339765625,22.612151953125,3.8197959765625003C22.612151953125,3.8197959765625003,24.497651953125,5.7054159765625005,24.497651953125,5.7054159765625005C24.497651953125,5.7054159765625005,24.497651953125,5.7054159765625005,24.497651953125,5.7054159765625005ZM25.396051953125,5.3332959765625C25.733051953125,5.3332959765625,26.056251953125,5.467145976562501,26.294451953125,5.7054159765625005C26.294451953125,5.7054159765625005,28.180051953125,3.8197959765625003,28.180051953125,3.8197959765625003C27.441851953125,3.0814339765625,26.440351953125,2.6666259765625,25.396051953125,2.6666259765625C25.396051953125,2.6666259765625,25.396051953125,5.3332959765625,25.396051953125,5.3332959765625C25.396051953125,5.3332959765625,25.396051953125,5.3332959765625,25.396051953125,5.3332959765625ZM26.294451953125,5.7054159765625005C26.532751953125,5.9436759765625,26.666651953125,6.266835976562501,26.666651953125,6.6037859765625C26.666651953125,6.6037859765625,29.333251953125,6.6037859765625,29.333251953125,6.6037859765625C29.333251953125,5.5595859765625,28.918451953125,4.5581559765624995,28.180051953125,3.8197959765625003C28.180051953125,3.8197959765625003,26.294451953125,5.7054159765625005,26.294451953125,5.7054159765625005C26.294451953125,5.7054159765625005,26.294451953125,5.7054159765625005,26.294451953125,5.7054159765625005ZM26.666651953125,6.6037859765625C26.666651953125,6.9407459765625,26.532751953125,7.2639059765625,26.294451953125,7.5021759765625C26.294451953125,7.5021759765625,28.180051953125,9.387785976562501,28.180051953125,9.387785976562501C28.918451953125,8.649425976562501,29.333251953125,7.6479959765625,29.333251953125,6.6037859765625C29.333251953125,6.6037859765625,26.666651953125,6.6037859765625,26.666651953125,6.6037859765625C26.666651953125,6.6037859765625,26.666651953125,6.6037859765625,26.666651953125,6.6037859765625ZM26.294451953125,7.5021759765625C26.294451953125,7.5021759765625,14.633641953125,19.1630259765625,14.633641953125,19.1630259765625C14.633641953125,19.1630259765625,16.519251953125,21.0486259765625,16.519251953125,21.0486259765625C16.519251953125,21.0486259765625,28.180051953125,9.387785976562501,28.180051953125,9.387785976562501C28.180051953125,9.387785976562501,26.294451953125,7.5021759765625,26.294451953125,7.5021759765625C26.294451953125,7.5021759765625,26.294451953125,7.5021759765625,26.294451953125,7.5021759765625ZM15.253071953125,18.8123259765625C15.253071953125,18.8123259765625,10.343231953125,20.0398259765625,10.343231953125,20.0398259765625C10.343231953125,20.0398259765625,10.989991953125,22.6267259765625,10.989991953125,22.6267259765625C10.989991953125,22.6267259765625,15.899831953125,21.3993259765625,15.899831953125,21.3993259765625C15.899831953125,21.3993259765625,15.253071953125,18.8123259765625,15.253071953125,18.8123259765625C15.253071953125,18.8123259765625,15.253071953125,18.8123259765625,15.253071953125,18.8123259765625ZM11.960141953125,21.6566259765625C11.960141953125,21.6566259765625,13.187601953125,16.746825976562498,13.187601953125,16.746825976562498C13.187601953125,16.746825976562498,10.600551953125,16.100125976562502,10.600551953125,16.100125976562502C10.600551953125,16.100125976562502,9.373092653125,21.0099259765625,9.373092653125,21.0099259765625C9.373092653125,21.0099259765625,11.960141953125,21.6566259765625,11.960141953125,21.6566259765625C11.960141953125,21.6566259765625,11.960141953125,21.6566259765625,11.960141953125,21.6566259765625ZM12.836881953125,17.3662259765625C12.836881953125,17.3662259765625,24.497651953125,5.7054159765625005,24.497651953125,5.7054159765625005C24.497651953125,5.7054159765625005,22.612151953125,3.8197959765625003,22.612151953125,3.8197959765625003C22.612151953125,3.8197959765625003,10.951261953125,15.4806259765625,10.951261953125,15.4806259765625C10.951261953125,15.4806259765625,12.836881953125,17.3662259765625,12.836881953125,17.3662259765625C12.836881953125,17.3662259765625,12.836881953125,17.3662259765625,12.836881953125,17.3662259765625Z" fill="currentColor" fill-opacity="0.8500000238418579"/></g></g></svg>