<svg xmlns="http://www.w3.org/2000/svg" xmlns:xlink="http://www.w3.org/1999/xlink" fill="none" version="1.1" width="24" height="24" viewBox="0 0 24 24"><defs><clipPath id="master_svg0_110_29113"><rect x="0" y="0" width="24" height="24" rx="0"/></clipPath></defs><g clip-path="url(#master_svg0_110_29113)"><g><path d="M2.9999979734420776,11.999951171875C2.9999979734420776,11.999951171875,2.0685119734420776,11.636181171875,2.0685119734420776,11.636181171875C1.9771599734420777,11.870091171875,1.9771599734420777,12.129811171875,2.0685119734420776,12.363721171875C2.0685119734420776,12.363721171875,2.9999979734420776,11.999951171875,2.9999979734420776,11.999951171875C2.9999979734420776,11.999951171875,2.9999979734420776,11.999951171875,2.9999979734420776,11.999951171875ZM20.999997973442078,11.999951171875C20.999997973442078,11.999951171875,21.931497973442077,12.363721171875,21.931497973442077,12.363721171875C22.022797973442078,12.129811171875,22.022797973442078,11.870091171875,21.931497973442077,11.636181171875C21.931497973442077,11.636181171875,20.999997973442078,11.999951171875,20.999997973442078,11.999951171875C20.999997973442078,11.999951171875,20.999997973442078,11.999951171875,20.999997973442078,11.999951171875ZM13.699997973442077,11.999951171875C13.699997973442077,12.938831171875,12.938897973442078,13.699951171875,11.999997973442078,13.699951171875C11.999997973442078,13.699951171875,11.999997973442078,15.699951171875,11.999997973442078,15.699951171875C14.043497973442078,15.699951171875,15.699997973442077,14.043401171875,15.699997973442077,11.999951171875C15.699997973442077,11.999951171875,13.699997973442077,11.999951171875,13.699997973442077,11.999951171875C13.699997973442077,11.999951171875,13.699997973442077,11.999951171875,13.699997973442077,11.999951171875ZM11.999997973442078,13.699951171875C11.061107973442077,13.699951171875,10.299997973442078,12.938831171875,10.299997973442078,11.999951171875C10.299997973442078,11.999951171875,8.299997973442078,11.999951171875,8.299997973442078,11.999951171875C8.299997973442078,14.043401171875,9.956547973442078,15.699951171875,11.999997973442078,15.699951171875C11.999997973442078,15.699951171875,11.999997973442078,13.699951171875,11.999997973442078,13.699951171875C11.999997973442078,13.699951171875,11.999997973442078,13.699951171875,11.999997973442078,13.699951171875ZM10.299997973442078,11.999951171875C10.299997973442078,11.061071171875,11.061117973442078,10.299951171875,11.999997973442078,10.299951171875C11.999997973442078,10.299951171875,11.999997973442078,8.299951171875,11.999997973442078,8.299951171875C9.956547973442078,8.299951171875,8.299997973442078,9.956501171875,8.299997973442078,11.999951171875C8.299997973442078,11.999951171875,10.299997973442078,11.999951171875,10.299997973442078,11.999951171875C10.299997973442078,11.999951171875,10.299997973442078,11.999951171875,10.299997973442078,11.999951171875ZM11.999997973442078,10.299951171875C12.938897973442078,10.299951171875,13.699997973442077,11.061071171875,13.699997973442077,11.999951171875C13.699997973442077,11.999951171875,15.699997973442077,11.999951171875,15.699997973442077,11.999951171875C15.699997973442077,9.956501171875,14.043497973442078,8.299951171875,11.999997973442078,8.299951171875C11.999997973442078,8.299951171875,11.999997973442078,10.299951171875,11.999997973442078,10.299951171875C11.999997973442078,10.299951171875,11.999997973442078,10.299951171875,11.999997973442078,10.299951171875ZM3.931487973442078,12.363721171875C5.236967973442077,9.020871171875001,8.254557973442077,6.699951171875,11.999997973442078,6.699951171875C11.999997973442078,6.699951171875,11.999997973442078,4.699951171875,11.999997973442078,4.699951171875C7.3502979734420775,4.699951171875,3.6432779734420775,7.603781171875,2.0685119734420776,11.636181171875C2.0685119734420776,11.636181171875,3.931487973442078,12.363721171875,3.931487973442078,12.363721171875C3.931487973442078,12.363721171875,3.931487973442078,12.363721171875,3.931487973442078,12.363721171875ZM11.999997973442078,6.699951171875C15.745397973442078,6.699951171875,18.76299797344208,9.020871171875001,20.068497973442078,12.363721171875C20.068497973442078,12.363721171875,21.931497973442077,11.636181171875,21.931497973442077,11.636181171875C20.356697973442078,7.603791171875001,16.649697973442077,4.699951171875,11.999997973442078,4.699951171875C11.999997973442078,4.699951171875,11.999997973442078,6.699951171875,11.999997973442078,6.699951171875C11.999997973442078,6.699951171875,11.999997973442078,6.699951171875,11.999997973442078,6.699951171875ZM20.068497973442078,11.636181171875C18.76299797344208,14.979051171875,15.745397973442078,17.299951171875,11.999997973442078,17.299951171875C11.999997973442078,17.299951171875,11.999997973442078,19.299951171875,11.999997973442078,19.299951171875C16.649697973442077,19.299951171875,20.356697973442078,16.396151171874997,21.931497973442077,12.363721171875C21.931497973442077,12.363721171875,20.068497973442078,11.636181171875,20.068497973442078,11.636181171875C20.068497973442078,11.636181171875,20.068497973442078,11.636181171875,20.068497973442078,11.636181171875ZM11.999997973442078,17.299951171875C8.254557973442077,17.299951171875,5.236967973442077,14.979051171875,3.931487973442078,11.636181171875C3.931487973442078,11.636181171875,2.0685119734420776,12.363721171875,2.0685119734420776,12.363721171875C3.6432779734420775,16.396151171874997,7.3502979734420775,19.299951171875,11.999997973442078,19.299951171875C11.999997973442078,19.299951171875,11.999997973442078,17.299951171875,11.999997973442078,17.299951171875C11.999997973442078,17.299951171875,11.999997973442078,17.299951171875,11.999997973442078,17.299951171875Z" fill="currentColor" fill-opacity="0.6000000238418579"/></g></g></svg>