<svg xmlns="http://www.w3.org/2000/svg" xmlns:xlink="http://www.w3.org/1999/xlink" fill="none" version="1.1" width="24" height="24" viewBox="0 0 24 24"><defs><clipPath id="master_svg0_110_29114"><rect x="0" y="0" width="24" height="24" rx="0"/></clipPath></defs><g clip-path="url(#master_svg0_110_29114)"><g><path d="M4.70711,3.292892C4.31658,2.9023693,3.68342,2.9023693,3.29289,3.292892C2.902369,3.6834160000000002,2.902369,4.31658,3.29289,4.70711L5.51682,6.931039999999999C3.9846500000000002,8.14019,2.7982810000000002,9.767759999999999,2.068514,11.63643C1.977162,11.87033,1.977162,12.13006,2.068514,12.36397C3.64328,16.3964,7.3503,19.3002,12,19.3002C13.7308,19.3002,15.3403,18.896,16.7595,18.1737L19.2929,20.7071C19.6834,21.0976,20.3166,21.0976,20.7071,20.7071C21.0976,20.3166,21.0976,19.6834,20.7071,19.2929L19.9185,18.5043Q19.9128,18.4985,19.9071,18.4927L17.649900000000002,16.235500000000002C17.642899999999997,16.2282,17.6357,16.2211,17.628500000000003,16.214100000000002L7.78338,6.3689800000000005C7.77739,6.36284,7.77134,6.35679,7.76522,6.35083L5.50709,4.0927C5.5032499999999995,4.08885,5.49938,4.08504,5.495480000000001,4.08127L4.70711,3.292892ZM6.94318,8.357389999999999C5.712899999999999,9.274180000000001,4.72682,10.52796,4.08207,12.00023C5.45941,15.1465,8.392,17.3002,12,17.3002C13.1703,17.3002,14.2631,17.0748,15.2527,16.6669L13.8123,15.2265C13.2767,15.5278,12.6581,15.7002,12,15.7002C9.95655,15.7002,8.3,14.0436,8.3,12.0002C8.3,11.34213,8.472349999999999,10.72353,8.77372,10.18792L6.94318,8.357389999999999ZM10.32051,11.73472C10.307,11.82118,10.3,11.90983,10.3,12.0002C10.3,12.93908,11.06112,13.7002,12,13.7002C12.0904,13.7002,12.179,13.6932,12.2655,13.6797L10.32051,11.73472ZM12,6.700200000000001C11.65006,6.700200000000001,11.30751,6.72035,10.973,6.75934C10.42443,6.8233,9.92789,6.430429999999999,9.86393,5.88186C9.79998,5.33329,10.19284,4.83675,10.74141,4.7727900000000005C11.15331,4.7247699999999995,11.5732,4.7002,12,4.7002C16.6497,4.7002,20.3567,7.60404,21.9315,11.63643C22.0228,11.87033,22.0228,12.13006,21.9315,12.36397C21.5434,13.3577,21.0265,14.2827,20.3972,15.1131C20.0636,15.5533,19.4364,15.6396,18.9962,15.3061C18.5561,14.9725,18.4697,14.3452,18.8033,13.9051C19.2425,13.3255,19.6174,12.68645,19.9179,12.00016C18.5406,8.853909999999999,15.608,6.700200000000001,12,6.700200000000001Z" fill-rule="evenodd" fill="currentColor" fill-opacity="0.6000000238418579"/></g></g></svg>