<svg xmlns="http://www.w3.org/2000/svg" xmlns:xlink="http://www.w3.org/1999/xlink" fill="none" version="1.1" width="32" height="32" viewBox="0 0 32 32"><defs><clipPath id="master_svg0_110_29131"><rect x="0" y="0" width="32" height="32" rx="0"/></clipPath></defs><g clip-path="url(#master_svg0_110_29131)"><g><path d="M16.878,4.76827150390625C16.878,4.76827150390625,16,5.77171150390625,16,5.77171150390625C16,5.77171150390625,16,5.77171150390625,16,5.77171150390625C16,5.77171150390625,16.878,4.76827150390625,16.878,4.76827150390625C16.878,4.76827150390625,16.878,4.76827150390625,16.878,4.76827150390625ZM26.2113,12.93494150390625C26.2113,12.93494150390625,25.3333,13.93834150390625,25.3333,13.93834150390625C25.3333,13.93834150390625,25.3333,13.93834150390625,25.3333,13.93834150390625C25.3333,13.93834150390625,26.2113,12.93494150390625,26.2113,12.93494150390625C26.2113,12.93494150390625,26.2113,12.93494150390625,26.2113,12.93494150390625ZM5.78866,12.93494150390625C5.78866,12.93494150390625,6.66667,13.93834150390625,6.66667,13.93834150390625C6.66667,13.93834150390625,6.66667,13.93834150390625,6.66667,13.93834150390625C6.66667,13.93834150390625,5.78866,12.93494150390625,5.78866,12.93494150390625C5.78866,12.93494150390625,5.78866,12.93494150390625,5.78866,12.93494150390625ZM15.122,4.76827150390625C15.122,4.76827150390625,14.244,3.76483750390625,14.244,3.76483750390625C14.244,3.76483750390625,14.244,3.76483750390625,14.244,3.76483750390625C14.244,3.76483750390625,15.122,4.76827150390625,15.122,4.76827150390625C15.122,4.76827150390625,15.122,4.76827150390625,15.122,4.76827150390625ZM16,5.77171150390625C16,5.77171150390625,25.3333,13.93834150390625,25.3333,13.93834150390625C25.3333,13.93834150390625,27.0893,11.93151150390625,27.0893,11.93151150390625C27.0893,11.93151150390625,17.756,3.76483850390625,17.756,3.76483850390625C17.756,3.76483850390625,16,5.77171150390625,16,5.77171150390625C16,5.77171150390625,16,5.77171150390625,16,5.77171150390625ZM25.3333,13.93834150390625C25.3333,13.93834150390625,25.3333,25.33334150390625,25.3333,25.33334150390625C25.3333,25.33334150390625,28,25.33334150390625,28,25.33334150390625C28,25.33334150390625,28,13.93834150390625,28,13.93834150390625C28,13.93834150390625,25.3333,13.93834150390625,25.3333,13.93834150390625C25.3333,13.93834150390625,25.3333,13.93834150390625,25.3333,13.93834150390625ZM6.66667,25.33334150390625C6.66667,25.33334150390625,6.66667,13.93834150390625,6.66667,13.93834150390625C6.66667,13.93834150390625,4,13.93834150390625,4,13.93834150390625C4,13.93834150390625,4,25.33334150390625,4,25.33334150390625C4,25.33334150390625,6.66667,25.33334150390625,6.66667,25.33334150390625C6.66667,25.33334150390625,6.66667,25.33334150390625,6.66667,25.33334150390625ZM6.66667,13.93834150390625C6.66667,13.93834150390625,16,5.77171150390625,16,5.77171150390625C16,5.77171150390625,14.244,3.76483750390625,14.244,3.76483750390625C14.244,3.76483750390625,4.910655,11.93151150390625,4.910655,11.93151150390625C4.910655,11.93151150390625,6.66667,13.93834150390625,6.66667,13.93834150390625C6.66667,13.93834150390625,6.66667,13.93834150390625,6.66667,13.93834150390625ZM12,25.33334150390625C12,25.33334150390625,6.66667,25.33334150390625,6.66667,25.33334150390625C6.66667,25.33334150390625,6.66667,27.99994150390625,6.66667,27.99994150390625C6.66667,27.99994150390625,12,27.99994150390625,12,27.99994150390625C12,27.99994150390625,12,25.33334150390625,12,25.33334150390625C12,25.33334150390625,12,25.33334150390625,12,25.33334150390625ZM25.3333,25.33334150390625C25.3333,25.33334150390625,20,25.33334150390625,20,25.33334150390625C20,25.33334150390625,20,27.99994150390625,20,27.99994150390625C20,27.99994150390625,25.3333,27.99994150390625,25.3333,27.99994150390625C25.3333,27.99994150390625,25.3333,25.33334150390625,25.3333,25.33334150390625C25.3333,25.33334150390625,25.3333,25.33334150390625,25.3333,25.33334150390625ZM12,19.99994150390625C12,19.99994150390625,12,25.33334150390625,12,25.33334150390625C12,25.33334150390625,14.6667,25.33334150390625,14.6667,25.33334150390625C14.6667,25.33334150390625,14.6667,19.99994150390625,14.6667,19.99994150390625C14.6667,19.99994150390625,12,19.99994150390625,12,19.99994150390625C12,19.99994150390625,12,19.99994150390625,12,19.99994150390625ZM20,25.33334150390625C20,25.33334150390625,20,19.99994150390625,20,19.99994150390625C20,19.99994150390625,17.3333,19.99994150390625,17.3333,19.99994150390625C17.3333,19.99994150390625,17.3333,25.33334150390625,17.3333,25.33334150390625C17.3333,25.33334150390625,20,25.33334150390625,20,25.33334150390625C20,25.33334150390625,20,25.33334150390625,20,25.33334150390625ZM17.3333,17.33334150390625C17.3333,17.33334150390625,14.6667,17.33334150390625,14.6667,17.33334150390625C14.6667,17.33334150390625,14.6667,19.99994150390625,14.6667,19.99994150390625C14.6667,19.99994150390625,17.3333,19.99994150390625,17.3333,19.99994150390625C17.3333,19.99994150390625,17.3333,17.33334150390625,17.3333,17.33334150390625C17.3333,17.33334150390625,17.3333,17.33334150390625,17.3333,17.33334150390625ZM20,19.99994150390625C20,18.52734150390625,18.8061,17.33334150390625,17.3333,17.33334150390625C17.3333,17.33334150390625,17.3333,19.99994150390625,17.3333,19.99994150390625C17.3333,19.99994150390625,20,19.99994150390625,20,19.99994150390625C20,19.99994150390625,20,19.99994150390625,20,19.99994150390625ZM14.6667,19.99994150390625C14.6667,19.99994150390625,14.6667,17.33334150390625,14.6667,17.33334150390625C13.19391,17.33334150390625,12,18.52734150390625,12,19.99994150390625C12,19.99994150390625,14.6667,19.99994150390625,14.6667,19.99994150390625C14.6667,19.99994150390625,14.6667,19.99994150390625,14.6667,19.99994150390625ZM20,25.33334150390625C20,25.33334150390625,17.3333,25.33334150390625,17.3333,25.33334150390625C17.3333,26.80614150390625,18.5272,27.99994150390625,20,27.99994150390625C20,27.99994150390625,20,25.33334150390625,20,25.33334150390625C20,25.33334150390625,20,25.33334150390625,20,25.33334150390625ZM12,27.99994150390625C13.47276,27.99994150390625,14.6667,26.80614150390625,14.6667,25.33334150390625C14.6667,25.33334150390625,12,25.33334150390625,12,25.33334150390625C12,25.33334150390625,12,27.99994150390625,12,27.99994150390625C12,27.99994150390625,12,27.99994150390625,12,27.99994150390625ZM6.66667,13.93834150390625C6.66667,13.93834150390625,6.66667,13.93834150390625,6.66667,13.93834150390625C6.66667,13.93834150390625,4.910655,11.93151150390625,4.910655,11.93151150390625C4.331948,12.43787150390625,4,13.16944150390625,4,13.93834150390625C4,13.93834150390625,6.66667,13.93834150390625,6.66667,13.93834150390625C6.66667,13.93834150390625,6.66667,13.93834150390625,6.66667,13.93834150390625ZM4,25.33334150390625C4,26.80614150390625,5.19391,27.99994150390625,6.66667,27.99994150390625C6.66667,27.99994150390625,6.66667,25.33334150390625,6.66667,25.33334150390625C6.66667,25.33334150390625,6.66667,25.33334150390625,6.66667,25.33334150390625C6.66667,25.33334150390625,4,25.33334150390625,4,25.33334150390625C4,25.33334150390625,4,25.33334150390625,4,25.33334150390625ZM25.3333,25.33334150390625C25.3333,25.33334150390625,25.3333,27.99994150390625,25.3333,27.99994150390625C26.8061,27.99994150390625,28,26.80614150390625,28,25.33334150390625C28,25.33334150390625,25.3333,25.33334150390625,25.3333,25.33334150390625C25.3333,25.33334150390625,25.3333,25.33334150390625,25.3333,25.33334150390625ZM25.3333,13.93834150390625C25.3333,13.93834150390625,25.3333,13.93834150390625,25.3333,13.93834150390625C25.3333,13.93834150390625,28,13.93834150390625,28,13.93834150390625C28,13.16944150390625,27.668,12.43787150390625,27.0893,11.93151150390625C27.0893,11.93151150390625,25.3333,13.93834150390625,25.3333,13.93834150390625C25.3333,13.93834150390625,25.3333,13.93834150390625,25.3333,13.93834150390625ZM17.756,3.76483850390625C16.7506,2.88510950390625,15.2494,2.88510950390625,14.244,3.76483750390625C14.244,3.76483750390625,16,5.77171150390625,16,5.77171150390625C16,5.77171150390625,16,5.77171150390625,16,5.77171150390625C16,5.77171150390625,17.756,3.76483850390625,17.756,3.76483850390625C17.756,3.76483850390625,17.756,3.76483850390625,17.756,3.76483850390625Z" fill="currentColor" fill-opacity="1"/></g></g></svg>