<svg xmlns="http://www.w3.org/2000/svg" xmlns:xlink="http://www.w3.org/1999/xlink" fill="none" version="1.1" width="32" height="32" viewBox="0 0 32 32"><defs><clipPath id="master_svg0_110_50450"><rect x="0" y="0" width="32" height="32" rx="0"/></clipPath></defs><g clip-path="url(#master_svg0_110_50450)"><g><path d="M22.6668740234375,10.518519999999999L22.6668740234375,13.3335L24.0001740234375,13.3335C25.4729740234375,13.3335,26.6668740234375,14.5274,26.6668740234375,16.0002L26.6668740234375,21.7L25.9762740234375,22.3905L24.0001740234375,24.3667L24.0001740234375,16.0002L8.0001640234375,16.0002L8.0001640234375,26.6668L18.0907740234375,26.6668Q18.108574023437498,26.7287,18.129974023437498,26.7891Q18.2979740234375,27.2643,18.682974023437502,27.6495L19.3904740234375,28.357L20.3669740234375,29.3335L8.0001640234375,29.3335C6.5274040234375,29.3335,5.3334960934375,28.1396,5.3334960934375,26.6668L5.3334960934375,16.0002C5.3334960934375,14.5274,6.5274040234375,13.3335,8.0001640234375,13.3335L9.333494023437499,13.3335L9.333494023437499,10.518519999999999C9.333494023437499,8.77739,10.0452740234375,7.11543,11.2994840234375,5.89605C12.552434023437499,4.677908,14.2439940234375,4,16.000174023437502,4C17.756374023437502,4,19.4478740234375,4.677908,20.7008740234375,5.89605C21.9550740234375,7.11543,22.6668740234375,8.77739,22.6668740234375,10.518519999999999ZM13.1583640234375,7.8080300000000005C13.9058140234375,7.0813500000000005,14.9273640234375,6.66667,16.000174023437502,6.66667C17.0729740234375,6.66667,18.0944740234375,7.0813500000000005,18.8419740234375,7.8080300000000005C19.5881740234375,8.53348,20.000174023437502,9.50925,20.000174023437502,10.518519999999999L20.000174023437502,13.3335L12.000164023437499,13.3335L12.000164023437499,10.518519999999999C12.000164023437499,9.50925,12.4121940234375,8.53348,13.1583640234375,7.8080300000000005Z" fill-rule="evenodd" fill="currentColor" fill-opacity="0.8500000238418579"/></g><g><path d="M29.2761,24.276139999999998C29.796799999999998,23.75544,29.796799999999998,22.911222,29.2761,22.390523C28.75544,21.869826,27.91123,21.869826,27.390520000000002,22.390523C27.390520000000002,22.390523,29.2761,24.276139999999998,29.2761,24.276139999999998ZM23,28.66667C23,28.66667,22.05719,29.609479999999998,22.05719,29.609479999999998C22.57789,30.13017,23.42211,30.13017,23.94281,29.609479999999998C23.94281,29.609479999999998,23,28.66667,23,28.66667ZM21.276139999999998,25.05719C20.75544,24.53649,19.911222,24.53649,19.390523,25.05719C18.869826,25.57789,18.869826,26.42211,19.390523,26.94281C19.390523,26.94281,21.276139999999998,25.05719,21.276139999999998,25.05719ZM27.390520000000002,22.390523C27.390520000000002,22.390523,22.05719,27.72385,22.05719,27.72385C22.05719,27.72385,23.94281,29.609479999999998,23.94281,29.609479999999998C23.94281,29.609479999999998,29.2761,24.276139999999998,29.2761,24.276139999999998C29.2761,24.276139999999998,27.390520000000002,22.390523,27.390520000000002,22.390523ZM23.94281,27.72385C23.94281,27.72385,21.276139999999998,25.05719,21.276139999999998,25.05719C21.276139999999998,25.05719,19.390523,26.94281,19.390523,26.94281C19.390523,26.94281,22.05719,29.609479999999998,22.05719,29.609479999999998C22.05719,29.609479999999998,23.94281,27.72385,23.94281,27.72385Z" fill="currentColor" fill-opacity="1"/></g></g></svg>