<svg xmlns="http://www.w3.org/2000/svg" xmlns:xlink="http://www.w3.org/1999/xlink" fill="none" version="1.1" width="32" height="32" viewBox="0 0 32 32"><defs><clipPath id="master_svg0_110_50447"><rect x="0" y="0" width="32" height="32" rx="0"/></clipPath></defs><g clip-path="url(#master_svg0_110_50447)"><g><path d="M9.3333740234375,14.6667C9.3333740234375,15.403,9.9303270234375,16,10.6667040234375,16C11.4030840234375,16,12.0000440234375,15.403,12.0000440234375,14.6667C12.0000440234375,14.6667,9.3333740234375,14.6667,9.3333740234375,14.6667C9.3333740234375,14.6667,9.3333740234375,14.6667,9.3333740234375,14.6667ZM10.6667040234375,10.518519999999999C10.6667040234375,10.518519999999999,9.3333740234375,10.518519999999999,9.3333740234375,10.518519999999999C9.3333740234375,10.518519999999999,10.6667040234375,10.518519999999999,10.6667040234375,10.518519999999999C10.6667040234375,10.518519999999999,10.6667040234375,10.518519999999999,10.6667040234375,10.518519999999999ZM20.0000740234375,14.6667C20.0000740234375,15.403,20.5969740234375,16,21.3333740234375,16C22.0697740234375,16,22.6666740234375,15.403,22.6666740234375,14.6667C22.6666740234375,14.6667,20.0000740234375,14.6667,20.0000740234375,14.6667C20.0000740234375,14.6667,20.0000740234375,14.6667,20.0000740234375,14.6667ZM12.0000440234375,14.6667C12.0000440234375,14.6667,12.0000440234375,10.518519999999999,12.0000440234375,10.518519999999999C12.0000440234375,10.518519999999999,9.3333740234375,10.518519999999999,9.3333740234375,10.518519999999999C9.3333740234375,10.518519999999999,9.3333740234375,14.6667,9.3333740234375,14.6667C9.3333740234375,14.6667,12.0000440234375,14.6667,12.0000440234375,14.6667C12.0000440234375,14.6667,12.0000440234375,14.6667,12.0000440234375,14.6667ZM12.0000440234375,10.518519999999999C12.0000440234375,9.50925,12.4120640234375,8.53348,13.1582440234375,7.8080300000000005C13.1582440234375,7.8080300000000005,11.2993640234375,5.89605,11.2993640234375,5.89605C10.0451490234375,7.11543,9.3333740234375,8.77739,9.3333740234375,10.518519999999999C9.3333740234375,10.518519999999999,12.0000440234375,10.518519999999999,12.0000440234375,10.518519999999999C12.0000440234375,10.518519999999999,12.0000440234375,10.518519999999999,12.0000440234375,10.518519999999999ZM13.1582440234375,7.8080300000000005C13.905694023437501,7.0813500000000005,14.927244023437499,6.66667,16.0000440234375,6.66667C16.0000440234375,6.66667,16.0000440234375,4,16.0000440234375,4C14.2438640234375,4,12.5523040234375,4.677908,11.2993640234375,5.89605C11.2993640234375,5.89605,13.1582440234375,7.8080300000000005,13.1582440234375,7.8080300000000005C13.1582440234375,7.8080300000000005,13.1582440234375,7.8080300000000005,13.1582440234375,7.8080300000000005ZM16.0000440234375,6.66667C17.0728440234375,6.66667,18.0943840234375,7.0813500000000005,18.841844023437503,7.8080300000000005C18.841844023437503,7.8080300000000005,20.7006740234375,5.89605,20.7006740234375,5.89605C19.4477740234375,4.677908,17.7562140234375,4,16.0000440234375,4C16.0000440234375,4,16.0000440234375,6.66667,16.0000440234375,6.66667C16.0000440234375,6.66667,16.0000440234375,6.66667,16.0000440234375,6.66667ZM18.841844023437503,7.8080300000000005C19.5879740234375,8.53348,20.0000740234375,9.50925,20.0000740234375,10.518519999999999C20.0000740234375,10.518519999999999,22.6666740234375,10.518519999999999,22.6666740234375,10.518519999999999C22.6666740234375,8.77739,21.9549740234375,7.11543,20.7006740234375,5.89605C20.7006740234375,5.89605,18.841844023437503,7.8080300000000005,18.841844023437503,7.8080300000000005C18.841844023437503,7.8080300000000005,18.841844023437503,7.8080300000000005,18.841844023437503,7.8080300000000005ZM20.0000740234375,10.518519999999999C20.0000740234375,10.518519999999999,20.0000740234375,14.6667,20.0000740234375,14.6667C20.0000740234375,14.6667,22.6666740234375,14.6667,22.6666740234375,14.6667C22.6666740234375,14.6667,22.6666740234375,10.518519999999999,22.6666740234375,10.518519999999999C22.6666740234375,10.518519999999999,20.0000740234375,10.518519999999999,20.0000740234375,10.518519999999999C20.0000740234375,10.518519999999999,20.0000740234375,10.518519999999999,20.0000740234375,10.518519999999999Z" fill="currentColor" fill-opacity="0.8500000238418579"/></g><g><path d="M8.0000440234375,16.0000440234375C8.0000440234375,16.0000440234375,24.0000740234375,16.0000440234375,24.0000740234375,16.0000440234375C24.0000740234375,16.0000440234375,24.0000740234375,13.3333740234375,24.0000740234375,13.3333740234375C24.0000740234375,13.3333740234375,8.0000440234375,13.3333740234375,8.0000440234375,13.3333740234375C8.0000440234375,13.3333740234375,8.0000440234375,16.0000440234375,8.0000440234375,16.0000440234375C8.0000440234375,16.0000440234375,8.0000440234375,16.0000440234375,8.0000440234375,16.0000440234375ZM24.0000740234375,16.0000440234375C24.0000740234375,16.0000440234375,24.0000740234375,26.6666740234375,24.0000740234375,26.6666740234375C24.0000740234375,26.6666740234375,26.6666740234375,26.6666740234375,26.6666740234375,26.6666740234375C26.6666740234375,26.6666740234375,26.6666740234375,16.0000440234375,26.6666740234375,16.0000440234375C26.6666740234375,16.0000440234375,24.0000740234375,16.0000440234375,24.0000740234375,16.0000440234375C24.0000740234375,16.0000440234375,24.0000740234375,16.0000440234375,24.0000740234375,16.0000440234375ZM24.0000740234375,26.6666740234375C24.0000740234375,26.6666740234375,8.0000440234375,26.6666740234375,8.0000440234375,26.6666740234375C8.0000440234375,26.6666740234375,8.0000440234375,29.3333740234375,8.0000440234375,29.3333740234375C8.0000440234375,29.3333740234375,24.0000740234375,29.3333740234375,24.0000740234375,29.3333740234375C24.0000740234375,29.3333740234375,24.0000740234375,26.6666740234375,24.0000740234375,26.6666740234375C24.0000740234375,26.6666740234375,24.0000740234375,26.6666740234375,24.0000740234375,26.6666740234375ZM8.0000440234375,26.6666740234375C8.0000440234375,26.6666740234375,8.0000440234375,16.0000440234375,8.0000440234375,16.0000440234375C8.0000440234375,16.0000440234375,5.3333740234375,16.0000440234375,5.3333740234375,16.0000440234375C5.3333740234375,16.0000440234375,5.3333740234375,26.6666740234375,5.3333740234375,26.6666740234375C5.3333740234375,26.6666740234375,8.0000440234375,26.6666740234375,8.0000440234375,26.6666740234375C8.0000440234375,26.6666740234375,8.0000440234375,26.6666740234375,8.0000440234375,26.6666740234375ZM8.0000440234375,26.6666740234375C8.0000440234375,26.6666740234375,8.0000440234375,26.6666740234375,8.0000440234375,26.6666740234375C8.0000440234375,26.6666740234375,5.3333740234375,26.6666740234375,5.3333740234375,26.6666740234375C5.3333740234375,28.1394740234375,6.5272840234375,29.3333740234375,8.0000440234375,29.3333740234375C8.0000440234375,29.3333740234375,8.0000440234375,26.6666740234375,8.0000440234375,26.6666740234375C8.0000440234375,26.6666740234375,8.0000440234375,26.6666740234375,8.0000440234375,26.6666740234375ZM24.0000740234375,26.6666740234375C24.0000740234375,26.6666740234375,24.0000740234375,29.3333740234375,24.0000740234375,29.3333740234375C25.4728740234375,29.3333740234375,26.6666740234375,28.1394740234375,26.6666740234375,26.6666740234375C26.6666740234375,26.6666740234375,24.0000740234375,26.6666740234375,24.0000740234375,26.6666740234375C24.0000740234375,26.6666740234375,24.0000740234375,26.6666740234375,24.0000740234375,26.6666740234375ZM24.0000740234375,16.0000440234375C24.0000740234375,16.0000440234375,24.0000740234375,16.0000440234375,24.0000740234375,16.0000440234375C24.0000740234375,16.0000440234375,26.6666740234375,16.0000440234375,26.6666740234375,16.0000440234375C26.6666740234375,14.5272840234375,25.4728740234375,13.3333740234375,24.0000740234375,13.3333740234375C24.0000740234375,13.3333740234375,24.0000740234375,16.0000440234375,24.0000740234375,16.0000440234375C24.0000740234375,16.0000440234375,24.0000740234375,16.0000440234375,24.0000740234375,16.0000440234375ZM8.0000440234375,13.3333740234375C6.5272840234375,13.3333740234375,5.3333740234375,14.5272840234375,5.3333740234375,16.0000440234375C5.3333740234375,16.0000440234375,8.0000440234375,16.0000440234375,8.0000440234375,16.0000440234375C8.0000440234375,16.0000440234375,8.0000440234375,16.0000440234375,8.0000440234375,16.0000440234375C8.0000440234375,16.0000440234375,8.0000440234375,13.3333740234375,8.0000440234375,13.3333740234375C8.0000440234375,13.3333740234375,8.0000440234375,13.3333740234375,8.0000440234375,13.3333740234375Z" fill="currentColor" fill-opacity="0.8500000238418579"/></g></g></svg>