<svg xmlns="http://www.w3.org/2000/svg" xmlns:xlink="http://www.w3.org/1999/xlink" fill="none" version="1.1" width="32" height="32" viewBox="0 0 32 32"><defs><clipPath id="master_svg0_110_31118"><rect x="0" y="0" width="32" height="32" rx="0"/></clipPath></defs><g><g clip-path="url(#master_svg0_110_31118)"><g><path d="M22.9724478125,20.33906465625C22.2556938125,20.17017665625,21.5377408125,20.61430465625,21.3688498125,21.33105265625C21.1999618125,22.04780265625,21.6440898125,22.76576265625,22.3608378125,22.93465265625C22.3608378125,22.93465265625,22.9724478125,20.33906465625,22.9724478125,20.33906465625C22.9724478125,20.33906465625,22.9724478125,20.33906465625,22.9724478125,20.33906465625ZM26.6666378125,26.66671265625C26.6666378125,27.40309265625,27.2635978125,28.00004265625,27.9999778125,28.00004265625C28.7363478125,28.00004265625,29.3333078125,27.40309265625,29.3333078125,26.66671265625C29.3333078125,26.66671265625,26.6666378125,26.66671265625,26.6666378125,26.66671265625C26.6666378125,26.66671265625,26.6666378125,26.66671265625,26.6666378125,26.66671265625ZM22.3608378125,22.93465265625C25.2367778125,23.61231265625,26.6666378125,25.27656265625,26.6666378125,26.66671265625C26.6666378125,26.66671265625,29.3333078125,26.66671265625,29.3333078125,26.66671265625C29.3333078125,23.41252265625,26.3108678125,21.12570865625,22.9724478125,20.33906465625C22.9724478125,20.33906465625,22.3608378125,22.93465265625,22.3608378125,22.93465265625C22.3608378125,22.93465265625,22.3608378125,22.93465265625,22.3608378125,22.93465265625Z" fill="currentColor" fill-opacity="0.8500000238418579"/></g><g><path d="M2.66668701171875,26.66667C2.66668701171875,27.40304,3.26364001171875,28,4.00001701171875,28C4.736397011718751,28,5.33335701171875,27.40304,5.33335701171875,26.66667C5.33335701171875,26.66667,2.66668701171875,26.66667,2.66668701171875,26.66667C2.66668701171875,26.66667,2.66668701171875,26.66667,2.66668701171875,26.66667ZM18.66668701171875,26.66667C18.66668701171875,27.40304,19.26358701171875,28,19.99998701171875,28C20.73638701171875,28,21.33338701171875,27.40304,21.33338701171875,26.66667C21.33338701171875,26.66667,18.66668701171875,26.66667,18.66668701171875,26.66667C18.66668701171875,26.66667,18.66668701171875,26.66667,18.66668701171875,26.66667ZM5.33335701171875,26.66667C5.33335701171875,25.77841,5.8734370117187495,24.81105,7.08276701171875,24.00483C8.28277701171875,23.204810000000002,10.01739701171875,22.66667,12.00001701171875,22.66667C12.00001701171875,22.66667,12.00001701171875,20,12.00001701171875,20C9.564367011718751,20,7.29897701171875,20.655755,5.60356701171875,21.78603C3.9174770117187503,22.91009,2.66668701171875,24.6094,2.66668701171875,26.66667C2.66668701171875,26.66667,5.33335701171875,26.66667,5.33335701171875,26.66667C5.33335701171875,26.66667,5.33335701171875,26.66667,5.33335701171875,26.66667ZM12.00001701171875,22.66667C13.98268701171875,22.66667,15.71728701171875,23.204810000000002,16.91728701171875,24.00483C18.126587011718748,24.81105,18.66668701171875,25.77841,18.66668701171875,26.66667C18.66668701171875,26.66667,21.33338701171875,26.66667,21.33338701171875,26.66667C21.33338701171875,24.6094,20.08258701171875,22.91009,18.39638701171875,21.78603C16.701087011718748,20.655755,14.43568701171875,20,12.00001701171875,20C12.00001701171875,20,12.00001701171875,22.66667,12.00001701171875,22.66667C12.00001701171875,22.66667,12.00001701171875,22.66667,12.00001701171875,22.66667Z" fill="currentColor" fill-opacity="0.8500000238418579"/></g><g><path d="M20.00001701171875,16.0000740234375C19.26364001171875,16.0000740234375,18.66668701171875,16.5969740234375,18.66668701171875,17.3333740234375C18.66668701171875,18.0697740234375,19.26364001171875,18.6666740234375,20.00001701171875,18.6666740234375C20.00001701171875,18.6666740234375,20.00001701171875,16.0000740234375,20.00001701171875,16.0000740234375C20.00001701171875,16.0000740234375,20.00001701171875,16.0000740234375,20.00001701171875,16.0000740234375ZM20.00001701171875,5.3333740234375C19.26364001171875,5.3333740234375,18.66668701171875,5.9303270234375,18.66668701171875,6.6667040234375C18.66668701171875,7.403084023437501,19.26364001171875,8.0000440234375,20.00001701171875,8.0000440234375C20.00001701171875,8.0000440234375,20.00001701171875,5.3333740234375,20.00001701171875,5.3333740234375C20.00001701171875,5.3333740234375,20.00001701171875,5.3333740234375,20.00001701171875,5.3333740234375ZM24.00001701171875,12.0000440234375C24.00001701171875,14.2091740234375,22.20915701171875,16.0000740234375,20.00001701171875,16.0000740234375C20.00001701171875,16.0000740234375,20.00001701171875,18.6666740234375,20.00001701171875,18.6666740234375C23.68191701171875,18.6666740234375,26.66668701171875,15.6819740234375,26.66668701171875,12.0000440234375C26.66668701171875,12.0000440234375,24.00001701171875,12.0000440234375,24.00001701171875,12.0000440234375C24.00001701171875,12.0000440234375,24.00001701171875,12.0000440234375,24.00001701171875,12.0000440234375ZM20.00001701171875,8.0000440234375C22.20915701171875,8.0000440234375,24.00001701171875,9.7909040234375,24.00001701171875,12.0000440234375C24.00001701171875,12.0000440234375,26.66668701171875,12.0000440234375,26.66668701171875,12.0000440234375C26.66668701171875,8.318144023437501,23.68191701171875,5.3333740234375,20.00001701171875,5.3333740234375C20.00001701171875,5.3333740234375,20.00001701171875,8.0000440234375,20.00001701171875,8.0000440234375C20.00001701171875,8.0000440234375,20.00001701171875,8.0000440234375,20.00001701171875,8.0000440234375Z" fill="currentColor" fill-opacity="0.8500000238418579"/></g><g><path d="M16.00001298828125,12.0000440234375C16.00001298828125,14.2091740234375,14.20911298828125,16.0000740234375,11.99998298828125,16.0000740234375C11.99998298828125,16.0000740234375,11.99998298828125,18.6666740234375,11.99998298828125,18.6666740234375C15.68191298828125,18.6666740234375,18.66661298828125,15.6819740234375,18.66661298828125,12.0000440234375C18.66661298828125,12.0000440234375,16.00001298828125,12.0000440234375,16.00001298828125,12.0000440234375C16.00001298828125,12.0000440234375,16.00001298828125,12.0000440234375,16.00001298828125,12.0000440234375ZM11.99998298828125,16.0000740234375C9.79084298828125,16.0000740234375,7.99998298828125,14.2091740234375,7.99998298828125,12.0000440234375C7.99998298828125,12.0000440234375,5.33331298828125,12.0000440234375,5.33331298828125,12.0000440234375C5.33331298828125,15.6819740234375,8.318082988281251,18.6666740234375,11.99998298828125,18.6666740234375C11.99998298828125,18.6666740234375,11.99998298828125,16.0000740234375,11.99998298828125,16.0000740234375C11.99998298828125,16.0000740234375,11.99998298828125,16.0000740234375,11.99998298828125,16.0000740234375ZM7.99998298828125,12.0000440234375C7.99998298828125,9.7909040234375,9.79084298828125,8.0000440234375,11.99998298828125,8.0000440234375C11.99998298828125,8.0000440234375,11.99998298828125,5.3333740234375,11.99998298828125,5.3333740234375C8.318082988281251,5.3333740234375,5.33331298828125,8.318144023437501,5.33331298828125,12.0000440234375C5.33331298828125,12.0000440234375,7.99998298828125,12.0000440234375,7.99998298828125,12.0000440234375C7.99998298828125,12.0000440234375,7.99998298828125,12.0000440234375,7.99998298828125,12.0000440234375ZM11.99998298828125,8.0000440234375C14.20911298828125,8.0000440234375,16.00001298828125,9.7909040234375,16.00001298828125,12.0000440234375C16.00001298828125,12.0000440234375,18.66661298828125,12.0000440234375,18.66661298828125,12.0000440234375C18.66661298828125,8.318144023437501,15.68191298828125,5.3333740234375,11.99998298828125,5.3333740234375C11.99998298828125,5.3333740234375,11.99998298828125,8.0000440234375,11.99998298828125,8.0000440234375C11.99998298828125,8.0000440234375,11.99998298828125,8.0000440234375,11.99998298828125,8.0000440234375Z" fill="currentColor" fill-opacity="0.8500000238418579"/></g></g></g></svg>