<svg xmlns="http://www.w3.org/2000/svg" xmlns:xlink="http://www.w3.org/1999/xlink"  version="1.1" width="32" height="32" viewBox="0 0 32 32"><defs><clipPath id="master_svg0_226_59495"><rect x="0" y="0" width="32" height="32" rx="0"/></clipPath></defs><g clip-path="url(#master_svg0_226_59495)"><g><path d="M2.66682609375,4.000078046875C2.66682609375,4.000078046875,2.66682609375,2.666748046875,2.66682609375,2.666748046875C1.93044909375,2.666748046875,1.33349609375,3.263701046875,1.33349609375,4.000078046875C1.33349609375,4.000078046875,2.66682609375,4.000078046875,2.66682609375,4.000078046875C2.66682609375,4.000078046875,2.66682609375,4.000078046875,2.66682609375,4.000078046875ZM16.00019609375,9.333418046875C16.00019609375,9.333418046875,17.33349609375,9.333418046875,17.33349609375,9.333418046875C17.33349609375,9.333418046875,16.00019609375,9.333418046875,16.00019609375,9.333418046875C16.00019609375,9.333418046875,16.00019609375,9.333418046875,16.00019609375,9.333418046875ZM14.66679609375,28.000048046875C14.66679609375,28.736448046875,15.26379609375,29.333448046875,16.00019609375,29.333448046875C16.736596093750002,29.333448046875,17.33349609375,28.736448046875,17.33349609375,28.000048046875C17.33349609375,28.000048046875,14.66679609375,28.000048046875,14.66679609375,28.000048046875C14.66679609375,28.000048046875,14.66679609375,28.000048046875,14.66679609375,28.000048046875ZM12.00019609375,24.000048046875C12.00019609375,24.000048046875,12.00019609375,22.666748046875,12.00019609375,22.666748046875C12.00019609375,22.666748046875,12.00019609375,24.000048046875,12.00019609375,24.000048046875C12.00019609375,24.000048046875,12.00019609375,24.000048046875,12.00019609375,24.000048046875ZM2.66682609375,24.000048046875C2.66682609375,24.000048046875,1.33349609375,24.000048046875,1.33349609375,24.000048046875C1.33349609375,24.736448046875,1.93044909375,25.333448046875,2.66682609375,25.333448046875C2.66682609375,25.333448046875,2.66682609375,24.000048046875,2.66682609375,24.000048046875C2.66682609375,24.000048046875,2.66682609375,24.000048046875,2.66682609375,24.000048046875ZM2.66682609375,5.333418046875C2.66682609375,5.333418046875,10.66682609375,5.333418046875,10.66682609375,5.333418046875C10.66682609375,5.333418046875,10.66682609375,2.666748046875,10.66682609375,2.666748046875C10.66682609375,2.666748046875,2.66682609375,2.666748046875,2.66682609375,2.666748046875C2.66682609375,2.666748046875,2.66682609375,5.333418046875,2.66682609375,5.333418046875C2.66682609375,5.333418046875,2.66682609375,5.333418046875,2.66682609375,5.333418046875ZM10.66682609375,5.333418046875C11.72769609375,5.333418046875,12.74509609375,5.754838046874999,13.49529609375,6.504988046875C13.49529609375,6.504988046875,15.38089609375,4.619368046875,15.38089609375,4.619368046875C14.13059609375,3.369127046875,12.43489609375,2.666748046875,10.66682609375,2.666748046875C10.66682609375,2.666748046875,10.66682609375,5.333418046875,10.66682609375,5.333418046875C10.66682609375,5.333418046875,10.66682609375,5.333418046875,10.66682609375,5.333418046875ZM13.49529609375,6.504988046875C14.24539609375,7.255138046875,14.66679609375,8.272548046875,14.66679609375,9.333418046875C14.66679609375,9.333418046875,17.33349609375,9.333418046875,17.33349609375,9.333418046875C17.33349609375,7.565308046875,16.63109609375,5.869618046875,15.38089609375,4.619368046875C15.38089609375,4.619368046875,13.49529609375,6.504988046875,13.49529609375,6.504988046875C13.49529609375,6.504988046875,13.49529609375,6.504988046875,13.49529609375,6.504988046875ZM14.66679609375,9.333418046875C14.66679609375,9.333418046875,14.66679609375,28.000048046875,14.66679609375,28.000048046875C14.66679609375,28.000048046875,17.33349609375,28.000048046875,17.33349609375,28.000048046875C17.33349609375,28.000048046875,17.33349609375,9.333418046875,17.33349609375,9.333418046875C17.33349609375,9.333418046875,14.66679609375,9.333418046875,14.66679609375,9.333418046875C14.66679609375,9.333418046875,14.66679609375,9.333418046875,14.66679609375,9.333418046875ZM17.33349609375,28.000048046875C17.33349609375,26.585548046875,16.77159609375,25.229048046875,15.77139609375,24.228848046875C15.77139609375,24.228848046875,13.88579609375,26.114448046875,13.88579609375,26.114448046875C14.38589609375,26.614648046875,14.66679609375,27.292848046875,14.66679609375,28.000048046875C14.66679609375,28.000048046875,17.33349609375,28.000048046875,17.33349609375,28.000048046875C17.33349609375,28.000048046875,17.33349609375,28.000048046875,17.33349609375,28.000048046875ZM15.77139609375,24.228848046875C14.77119609375,23.228648046875,13.41469609375,22.666748046875,12.00019609375,22.666748046875C12.00019609375,22.666748046875,12.00019609375,25.333448046875,12.00019609375,25.333448046875C12.70739609375,25.333448046875,13.38569609375,25.614348046875,13.88579609375,26.114448046875C13.88579609375,26.114448046875,15.77139609375,24.228848046875,15.77139609375,24.228848046875C15.77139609375,24.228848046875,15.77139609375,24.228848046875,15.77139609375,24.228848046875ZM12.00019609375,22.666748046875C12.00019609375,22.666748046875,2.66682609375,22.666748046875,2.66682609375,22.666748046875C2.66682609375,22.666748046875,2.66682609375,25.333448046875,2.66682609375,25.333448046875C2.66682609375,25.333448046875,12.00019609375,25.333448046875,12.00019609375,25.333448046875C12.00019609375,25.333448046875,12.00019609375,22.666748046875,12.00019609375,22.666748046875C12.00019609375,22.666748046875,12.00019609375,22.666748046875,12.00019609375,22.666748046875ZM4.00016609375,24.000048046875C4.00016609375,24.000048046875,4.00016609375,4.000078046875,4.00016609375,4.000078046875C4.00016609375,4.000078046875,1.33349609375,4.000078046875,1.33349609375,4.000078046875C1.33349609375,4.000078046875,1.33349609375,24.000048046875,1.33349609375,24.000048046875C1.33349609375,24.000048046875,4.00016609375,24.000048046875,4.00016609375,24.000048046875C4.00016609375,24.000048046875,4.00016609375,24.000048046875,4.00016609375,24.000048046875Z" /></g><g><path d="M29.33320390625,4.000078046875C29.33320390625,4.000078046875,30.66650390625,4.000078046875,30.66650390625,4.000078046875C30.66650390625,3.263701046875,30.069603906250002,2.666748046875,29.33320390625,2.666748046875C29.33320390625,2.666748046875,29.33320390625,4.000078046875,29.33320390625,4.000078046875C29.33320390625,4.000078046875,29.33320390625,4.000078046875,29.33320390625,4.000078046875ZM21.33317390625,4.000078046875C21.33317390625,4.000078046875,21.33317390625,2.666748046875,21.33317390625,2.666748046875C21.33317390625,2.666748046875,21.33317390625,4.000078046875,21.33317390625,4.000078046875C21.33317390625,4.000078046875,21.33317390625,4.000078046875,21.33317390625,4.000078046875ZM15.99983390625,9.333418046875C15.99983390625,9.333418046875,14.66650390625,9.333418046875,14.66650390625,9.333418046875C14.66650390625,9.333418046875,15.99983390625,9.333418046875,15.99983390625,9.333418046875C15.99983390625,9.333418046875,15.99983390625,9.333418046875,15.99983390625,9.333418046875ZM14.66650390625,28.000048046875C14.66650390625,28.736448046875,15.26345690625,29.333448046875,15.99983390625,29.333448046875C16.73621390625,29.333448046875,17.33317390625,28.736448046875,17.33317390625,28.000048046875C17.33317390625,28.000048046875,14.66650390625,28.000048046875,14.66650390625,28.000048046875C14.66650390625,28.000048046875,14.66650390625,28.000048046875,14.66650390625,28.000048046875ZM19.99983390625,24.000048046875C19.99983390625,24.000048046875,19.99983390625,22.666748046875,19.99983390625,22.666748046875C19.99983390625,22.666748046875,19.99983390625,24.000048046875,19.99983390625,24.000048046875C19.99983390625,24.000048046875,19.99983390625,24.000048046875,19.99983390625,24.000048046875ZM29.33320390625,24.000048046875C29.33320390625,24.000048046875,29.33320390625,25.333448046875,29.33320390625,25.333448046875C30.069603906250002,25.333448046875,30.66650390625,24.736448046875,30.66650390625,24.000048046875C30.66650390625,24.000048046875,29.33320390625,24.000048046875,29.33320390625,24.000048046875C29.33320390625,24.000048046875,29.33320390625,24.000048046875,29.33320390625,24.000048046875ZM29.33320390625,2.666748046875C29.33320390625,2.666748046875,21.33317390625,2.666748046875,21.33317390625,2.666748046875C21.33317390625,2.666748046875,21.33317390625,5.333418046875,21.33317390625,5.333418046875C21.33317390625,5.333418046875,29.33320390625,5.333418046875,29.33320390625,5.333418046875C29.33320390625,5.333418046875,29.33320390625,2.666748046875,29.33320390625,2.666748046875C29.33320390625,2.666748046875,29.33320390625,2.666748046875,29.33320390625,2.666748046875ZM21.33317390625,2.666748046875C19.56506390625,2.666748046875,17.86937390625,3.369127046875,16.61912390625,4.619368046875C16.61912390625,4.619368046875,18.50474390625,6.504988046875,18.50474390625,6.504988046875C19.25489390625,5.754838046874999,20.272303906250002,5.333418046875,21.33317390625,5.333418046875C21.33317390625,5.333418046875,21.33317390625,2.666748046875,21.33317390625,2.666748046875C21.33317390625,2.666748046875,21.33317390625,2.666748046875,21.33317390625,2.666748046875ZM16.61912390625,4.619368046875C15.36888290625,5.869618046875,14.66650390625,7.565308046875,14.66650390625,9.333418046875C14.66650390625,9.333418046875,17.33317390625,9.333418046875,17.33317390625,9.333418046875C17.33317390625,8.272548046875,17.75459390625,7.255138046875,18.50474390625,6.504988046875C18.50474390625,6.504988046875,16.61912390625,4.619368046875,16.61912390625,4.619368046875C16.61912390625,4.619368046875,16.61912390625,4.619368046875,16.61912390625,4.619368046875ZM14.66650390625,9.333418046875C14.66650390625,9.333418046875,14.66650390625,28.000048046875,14.66650390625,28.000048046875C14.66650390625,28.000048046875,17.33317390625,28.000048046875,17.33317390625,28.000048046875C17.33317390625,28.000048046875,17.33317390625,9.333418046875,17.33317390625,9.333418046875C17.33317390625,9.333418046875,14.66650390625,9.333418046875,14.66650390625,9.333418046875C14.66650390625,9.333418046875,14.66650390625,9.333418046875,14.66650390625,9.333418046875ZM17.33317390625,28.000048046875C17.33317390625,27.292848046875,17.61411390625,26.614648046875,18.11422390625,26.114448046875C18.11422390625,26.114448046875,16.22860390625,24.228848046875,16.22860390625,24.228848046875C15.228406906250001,25.229048046875,14.66650390625,26.585548046875,14.66650390625,28.000048046875C14.66650390625,28.000048046875,17.33317390625,28.000048046875,17.33317390625,28.000048046875C17.33317390625,28.000048046875,17.33317390625,28.000048046875,17.33317390625,28.000048046875ZM18.11422390625,26.114448046875C18.61431390625,25.614348046875,19.292593906249998,25.333448046875,19.99983390625,25.333448046875C19.99983390625,25.333448046875,19.99983390625,22.666748046875,19.99983390625,22.666748046875C18.58534390625,22.666748046875,17.22879390625,23.228648046875,16.22860390625,24.228848046875C16.22860390625,24.228848046875,18.11422390625,26.114448046875,18.11422390625,26.114448046875C18.11422390625,26.114448046875,18.11422390625,26.114448046875,18.11422390625,26.114448046875ZM19.99983390625,25.333448046875C19.99983390625,25.333448046875,29.33320390625,25.333448046875,29.33320390625,25.333448046875C29.33320390625,25.333448046875,29.33320390625,22.666748046875,29.33320390625,22.666748046875C29.33320390625,22.666748046875,19.99983390625,22.666748046875,19.99983390625,22.666748046875C19.99983390625,22.666748046875,19.99983390625,25.333448046875,19.99983390625,25.333448046875C19.99983390625,25.333448046875,19.99983390625,25.333448046875,19.99983390625,25.333448046875ZM30.66650390625,24.000048046875C30.66650390625,24.000048046875,30.66650390625,4.000078046875,30.66650390625,4.000078046875C30.66650390625,4.000078046875,27.99980390625,4.000078046875,27.99980390625,4.000078046875C27.99980390625,4.000078046875,27.99980390625,24.000048046875,27.99980390625,24.000048046875C27.99980390625,24.000048046875,30.66650390625,24.000048046875,30.66650390625,24.000048046875C30.66650390625,24.000048046875,30.66650390625,24.000048046875,30.66650390625,24.000048046875Z" /></g></g></svg>