<svg xmlns="http://www.w3.org/2000/svg" xmlns:xlink="http://www.w3.org/1999/xlink" fill="none" version="1.1" width="32" height="32" viewBox="0 0 32 32"><defs><clipPath id="master_svg0_110_31132"><rect x="0" y="0" width="32" height="32" rx="0"/></clipPath></defs><g><g clip-path="url(#master_svg0_110_31132)"><g><path d="M4.00001701171875,25.3333259765625C4.00001701171875,25.3333259765625,5.33335701171875,25.3333259765625,5.33335701171875,25.3333259765625C5.33335701171875,25.3333259765625,5.33335701171875,25.3333259765625,5.33335701171875,25.3333259765625C5.33335701171875,25.3333259765625,4.00001701171875,25.3333259765625,4.00001701171875,25.3333259765625C4.00001701171875,25.3333259765625,4.00001701171875,25.3333259765625,4.00001701171875,25.3333259765625ZM4.00001701171875,7.9999559765625C4.00001701171875,7.9999559765625,4.00001701171875,6.6666259765625,4.00001701171875,6.6666259765625C3.64639801171875,6.6666259765625,3.30726001171875,6.8071019765625,3.05721101171875,7.0571509765625C2.80716301171875,7.3071989765625,2.66668701171875,7.6463379765625,2.66668701171875,7.9999559765625C2.66668701171875,7.9999559765625,4.00001701171875,7.9999559765625,4.00001701171875,7.9999559765625C4.00001701171875,7.9999559765625,4.00001701171875,7.9999559765625,4.00001701171875,7.9999559765625ZM26.66668701171875,7.9999559765625C26.66668701171875,7.9999559765625,26.66668701171875,6.6666259765625,26.66668701171875,6.6666259765625C26.66668701171875,6.6666259765625,26.66668701171875,6.6666259765625,26.66668701171875,6.6666259765625C26.66668701171875,6.6666259765625,26.66668701171875,7.9999559765625,26.66668701171875,7.9999559765625C26.66668701171875,7.9999559765625,26.66668701171875,7.9999559765625,26.66668701171875,7.9999559765625ZM27.99998701171875,9.3332959765625C27.99998701171875,9.3332959765625,26.66668701171875,9.3332959765625,26.66668701171875,9.3332959765625C26.66668701171875,9.3332959765625,26.66668701171875,9.3332959765625,26.66668701171875,9.3332959765625C26.66668701171875,9.3332959765625,27.99998701171875,9.3332959765625,27.99998701171875,9.3332959765625C27.99998701171875,9.3332959765625,27.99998701171875,9.3332959765625,27.99998701171875,9.3332959765625ZM26.66668701171875,10.6666259765625C26.66668701171875,11.4029959765625,27.26358701171875,11.9999559765625,27.99998701171875,11.9999559765625C28.73638701171875,11.9999559765625,29.33338701171875,11.4029959765625,29.33338701171875,10.6666259765625C29.33338701171875,10.6666259765625,26.66668701171875,10.6666259765625,26.66668701171875,10.6666259765625C26.66668701171875,10.6666259765625,26.66668701171875,10.6666259765625,26.66668701171875,10.6666259765625ZM9.33335701171875,27.9999259765625C10.06973701171875,27.9999259765625,10.66668701171875,27.4030259765625,10.66668701171875,26.6666259765625C10.66668701171875,25.9302259765625,10.06973701171875,25.3333259765625,9.33335701171875,25.3333259765625C9.33335701171875,25.3333259765625,9.33335701171875,27.9999259765625,9.33335701171875,27.9999259765625C9.33335701171875,27.9999259765625,9.33335701171875,27.9999259765625,9.33335701171875,27.9999259765625ZM5.33335701171875,26.6666259765625C5.33335701171875,26.6666259765625,5.33335701171875,27.9999259765625,5.33335701171875,27.9999259765625C5.33335701171875,27.9999259765625,5.33335701171875,27.9999259765625,5.33335701171875,27.9999259765625C5.33335701171875,27.9999259765625,5.33335701171875,26.6666259765625,5.33335701171875,26.6666259765625C5.33335701171875,26.6666259765625,5.33335701171875,26.6666259765625,5.33335701171875,26.6666259765625ZM5.33335701171875,25.3333259765625C5.33335701171875,25.3333259765625,5.33335701171875,7.9999559765625,5.33335701171875,7.9999559765625C5.33335701171875,7.9999559765625,2.66668701171875,7.9999559765625,2.66668701171875,7.9999559765625C2.66668701171875,7.9999559765625,2.66668834504875,25.3333259765625,2.66668834504875,25.3333259765625C2.66668834504875,25.3333259765625,5.33335701171875,25.3333259765625,5.33335701171875,25.3333259765625C5.33335701171875,25.3333259765625,5.33335701171875,25.3333259765625,5.33335701171875,25.3333259765625ZM4.00001701171875,9.3332959765625C4.00001701171875,9.3332959765625,26.66668701171875,9.3332959765625,26.66668701171875,9.3332959765625C26.66668701171875,9.3332959765625,26.66668701171875,6.6666259765625,26.66668701171875,6.6666259765625C26.66668701171875,6.6666259765625,4.00001701171875,6.6666259765625,4.00001701171875,6.6666259765625C4.00001701171875,6.6666259765625,4.00001701171875,9.3332959765625,4.00001701171875,9.3332959765625C4.00001701171875,9.3332959765625,4.00001701171875,9.3332959765625,4.00001701171875,9.3332959765625ZM26.66668701171875,9.3332959765625C26.66668701171875,9.3332959765625,26.66668701171875,10.6666259765625,26.66668701171875,10.6666259765625C26.66668701171875,10.6666259765625,29.33338701171875,10.6666259765625,29.33338701171875,10.6666259765625C29.33338701171875,10.6666259765625,29.33338701171875,9.3332959765625,29.33338701171875,9.3332959765625C29.33338701171875,9.3332959765625,26.66668701171875,9.3332959765625,26.66668701171875,9.3332959765625C26.66668701171875,9.3332959765625,26.66668701171875,9.3332959765625,26.66668701171875,9.3332959765625ZM9.33335701171875,25.3333259765625C9.33335701171875,25.3333259765625,5.33335701171875,25.3333259765625,5.33335701171875,25.3333259765625C5.33335701171875,25.3333259765625,5.33335701171875,27.9999259765625,5.33335701171875,27.9999259765625C5.33335701171875,27.9999259765625,9.33335701171875,27.9999259765625,9.33335701171875,27.9999259765625C9.33335701171875,27.9999259765625,9.33335701171875,25.3333259765625,9.33335701171875,25.3333259765625C9.33335701171875,25.3333259765625,9.33335701171875,25.3333259765625,9.33335701171875,25.3333259765625ZM26.66668701171875,9.3332959765625C26.66668701171875,9.3332959765625,26.66668701171875,9.3332959765625,26.66668701171875,9.3332959765625C26.66668701171875,9.3332959765625,29.33338701171875,9.3332959765625,29.33338701171875,9.3332959765625C29.33338701171875,7.8605359765625,28.13948701171875,6.6666259765625,26.66668701171875,6.6666259765625C26.66668701171875,6.6666259765625,26.66668701171875,9.3332959765625,26.66668701171875,9.3332959765625C26.66668701171875,9.3332959765625,26.66668701171875,9.3332959765625,26.66668701171875,9.3332959765625ZM2.66668834504875,25.3333259765625C2.66668834504875,26.8061259765625,3.86059701171875,27.9999259765625,5.33335701171875,27.9999259765625C5.33335701171875,27.9999259765625,5.33335701171875,25.3333259765625,5.33335701171875,25.3333259765625C5.33335701171875,25.3333259765625,5.33335701171875,25.3333259765625,5.33335701171875,25.3333259765625C5.33335701171875,25.3333259765625,2.66668834504875,25.3333259765625,2.66668834504875,25.3333259765625C2.66668834504875,25.3333259765625,2.66668834504875,25.3333259765625,2.66668834504875,25.3333259765625Z" fill="currentColor" fill-opacity="0.8500000238418579"/></g><g><path d="M17.99998298828125,28.0000740234375C17.99998298828125,28.0000740234375,17.99998298828125,29.3333740234375,17.99998298828125,29.3333740234375C18.35360298828125,29.3333740234375,18.69274298828125,29.1928740234375,18.942792988281248,28.9428740234375C18.942792988281248,28.9428740234375,17.99998298828125,28.0000740234375,17.99998298828125,28.0000740234375C17.99998298828125,28.0000740234375,17.99998298828125,28.0000740234375,17.99998298828125,28.0000740234375ZM14.66664298828125,28.0000740234375C14.66664298828125,28.0000740234375,13.33331298828125,28.0000740234375,13.33331298828125,28.0000740234375C13.33331298828125,28.736474023437502,13.93026598828125,29.3333740234375,14.66664298828125,29.3333740234375C14.66664298828125,29.3333740234375,14.66664298828125,28.0000740234375,14.66664298828125,28.0000740234375C14.66664298828125,28.0000740234375,14.66664298828125,28.0000740234375,14.66664298828125,28.0000740234375ZM14.66664298828125,24.6666740234375C14.66664298828125,24.6666740234375,13.72383698828125,23.7238740234375,13.72383698828125,23.7238740234375C13.47378898828125,23.9739740234375,13.33331298828125,24.3130740234375,13.33331298828125,24.6666740234375C13.33331298828125,24.6666740234375,14.66664298828125,24.6666740234375,14.66664298828125,24.6666740234375C14.66664298828125,24.6666740234375,14.66664298828125,24.6666740234375,14.66664298828125,24.6666740234375ZM24.66661298828125,14.6667040234375C24.66661298828125,14.6667040234375,25.60941298828125,13.7238970234375,25.60941298828125,13.7238970234375C25.08871298828125,13.2032000234375,24.24451298828125,13.2032000234375,23.72381298828125,13.7238970234375C23.72381298828125,13.7238970234375,24.66661298828125,14.6667040234375,24.66661298828125,14.6667040234375C24.66661298828125,14.6667040234375,24.66661298828125,14.6667040234375,24.66661298828125,14.6667040234375ZM28.00001298828125,18.0000440234375C28.00001298828125,18.0000440234375,28.94281298828125,18.942854023437498,28.94281298828125,18.942854023437498C29.46341298828125,18.4221440234375,29.46341298828125,17.5779340234375,28.94281298828125,17.0572240234375C28.94281298828125,17.0572240234375,28.00001298828125,18.0000440234375,28.00001298828125,18.0000440234375C28.00001298828125,18.0000440234375,28.00001298828125,18.0000440234375,28.00001298828125,18.0000440234375ZM17.99998298828125,26.6666740234375C17.99998298828125,26.6666740234375,14.66664298828125,26.6666740234375,14.66664298828125,26.6666740234375C14.66664298828125,26.6666740234375,14.66664298828125,29.3333740234375,14.66664298828125,29.3333740234375C14.66664298828125,29.3333740234375,17.99998298828125,29.3333740234375,17.99998298828125,29.3333740234375C17.99998298828125,29.3333740234375,17.99998298828125,26.6666740234375,17.99998298828125,26.6666740234375C17.99998298828125,26.6666740234375,17.99998298828125,26.6666740234375,17.99998298828125,26.6666740234375ZM15.99998298828125,28.0000740234375C15.99998298828125,28.0000740234375,15.99998298828125,24.6666740234375,15.99998298828125,24.6666740234375C15.99998298828125,24.6666740234375,13.33331298828125,24.6666740234375,13.33331298828125,24.6666740234375C13.33331298828125,24.6666740234375,13.33331298828125,28.0000740234375,13.33331298828125,28.0000740234375C13.33331298828125,28.0000740234375,15.99998298828125,28.0000740234375,15.99998298828125,28.0000740234375C15.99998298828125,28.0000740234375,15.99998298828125,28.0000740234375,15.99998298828125,28.0000740234375ZM15.60945298828125,25.6094740234375C15.60945298828125,25.6094740234375,25.60941298828125,15.6095140234375,25.60941298828125,15.6095140234375C25.60941298828125,15.6095140234375,23.72381298828125,13.7238970234375,23.72381298828125,13.7238970234375C23.72381298828125,13.7238970234375,13.72383698828125,23.7238740234375,13.72383698828125,23.7238740234375C13.72383698828125,23.7238740234375,15.60945298828125,25.6094740234375,15.60945298828125,25.6094740234375C15.60945298828125,25.6094740234375,15.60945298828125,25.6094740234375,15.60945298828125,25.6094740234375ZM23.72381298828125,15.6095140234375C23.72381298828125,15.6095140234375,27.05721298828125,18.942854023437498,27.05721298828125,18.942854023437498C27.05721298828125,18.942854023437498,28.94281298828125,17.0572240234375,28.94281298828125,17.0572240234375C28.94281298828125,17.0572240234375,25.60941298828125,13.7238970234375,25.60941298828125,13.7238970234375C25.60941298828125,13.7238970234375,23.72381298828125,15.6095140234375,23.72381298828125,15.6095140234375C23.72381298828125,15.6095140234375,23.72381298828125,15.6095140234375,23.72381298828125,15.6095140234375ZM27.05721298828125,17.0572240234375C27.05721298828125,17.0572240234375,17.05716298828125,27.0572740234375,17.05716298828125,27.0572740234375C17.05716298828125,27.0572740234375,18.942792988281248,28.9428740234375,18.942792988281248,28.9428740234375C18.942792988281248,28.9428740234375,28.94281298828125,18.942854023437498,28.94281298828125,18.942854023437498C28.94281298828125,18.942854023437498,27.05721298828125,17.0572240234375,27.05721298828125,17.0572240234375C27.05721298828125,17.0572240234375,27.05721298828125,17.0572240234375,27.05721298828125,17.0572240234375Z" fill="currentColor" fill-opacity="0.8500000238418579"/></g><g><path d="M22.276139999999998,17.7238970234375C21.75544,17.2032000234375,20.911222,17.2032000234375,20.390523,17.7238970234375C19.869826,18.2445960234375,19.869826,19.0888140234375,20.390523,19.609514023437498C20.390523,19.609514023437498,22.276139999999998,17.7238970234375,22.276139999999998,17.7238970234375C22.276139999999998,17.7238970234375,22.276139999999998,17.7238970234375,22.276139999999998,17.7238970234375ZM23.05719,22.2761840234375C23.57789,22.7968840234375,24.42211,22.7968840234375,24.94281,22.2761840234375C25.46351,21.7554840234375,25.46351,20.9112640234375,24.94281,20.3905640234375C24.94281,20.3905640234375,23.05719,22.2761840234375,23.05719,22.2761840234375C23.05719,22.2761840234375,23.05719,22.2761840234375,23.05719,22.2761840234375ZM20.390523,19.609514023437498C20.390523,19.609514023437498,23.05719,22.2761840234375,23.05719,22.2761840234375C23.05719,22.2761840234375,24.94281,20.3905640234375,24.94281,20.3905640234375C24.94281,20.3905640234375,22.276139999999998,17.7238970234375,22.276139999999998,17.7238970234375C22.276139999999998,17.7238970234375,20.390523,19.609514023437498,20.390523,19.609514023437498C20.390523,19.609514023437498,20.390523,19.609514023437498,20.390523,19.609514023437498Z" fill="currentColor" fill-opacity="0.8500000238418579"/></g><g><path d="M15.05718701171875,8.94281C15.57788701171875,9.46351,16.42208701171875,9.46351,16.94278701171875,8.94281C17.463487011718748,8.42211,17.463487011718748,7.57789,16.94278701171875,7.05719C16.94278701171875,7.05719,15.05718701171875,8.94281,15.05718701171875,8.94281C15.05718701171875,8.94281,15.05718701171875,8.94281,15.05718701171875,8.94281ZM13.72388701171875,5.72386C13.72388701171875,5.72386,12.78108701171875,6.66667,12.78108701171875,6.66667C12.78108701171875,6.66667,12.78108701171875,6.66667,12.78108701171875,6.66667C12.78108701171875,6.66667,13.72388701171875,5.72386,13.72388701171875,5.72386C13.72388701171875,5.72386,13.72388701171875,5.72386,13.72388701171875,5.72386ZM2.66668701171875,8C2.66668701171875,8.73637,3.26364001171875,9.33333,4.00001701171875,9.33333C4.736397011718751,9.33333,5.33335701171875,8.73637,5.33335701171875,8C5.33335701171875,8,2.66668701171875,8,2.66668701171875,8C2.66668701171875,8,2.66668701171875,8,2.66668701171875,8ZM16.94278701171875,7.05719C16.94278701171875,7.05719,14.66668701171875,4.781048,14.66668701171875,4.781048C14.66668701171875,4.781048,12.78108701171875,6.66667,12.78108701171875,6.66667C12.78108701171875,6.66667,15.05718701171875,8.94281,15.05718701171875,8.94281C15.05718701171875,8.94281,16.94278701171875,7.05719,16.94278701171875,7.05719C16.94278701171875,7.05719,16.94278701171875,7.05719,16.94278701171875,7.05719ZM12.78108701171875,4C12.78108701171875,4,5.33335701171875,4,5.33335701171875,4C5.33335701171875,4,5.33335701171875,6.66667,5.33335701171875,6.66667C5.33335701171875,6.66667,12.78108701171875,6.66667,12.78108701171875,6.66667C12.78108701171875,6.66667,12.78108701171875,4,12.78108701171875,4C12.78108701171875,4,12.78108701171875,4,12.78108701171875,4ZM2.66668701171875,6.66667C2.66668701171875,6.66667,2.66668701171875,8,2.66668701171875,8C2.66668701171875,8,5.33335701171875,8,5.33335701171875,8C5.33335701171875,8,5.33335701171875,6.66667,5.33335701171875,6.66667C5.33335701171875,6.66667,2.66668701171875,6.66667,2.66668701171875,6.66667C2.66668701171875,6.66667,2.66668701171875,6.66667,2.66668701171875,6.66667ZM5.33335701171875,4C3.86059701171875,4,2.66668701171875,5.19391,2.66668701171875,6.66667C2.66668701171875,6.66667,5.33335701171875,6.66667,5.33335701171875,6.66667C5.33335701171875,6.66667,5.33335701171875,6.66667,5.33335701171875,6.66667C5.33335701171875,6.66667,5.33335701171875,4,5.33335701171875,4C5.33335701171875,4,5.33335701171875,4,5.33335701171875,4ZM14.66668701171875,4.781048C14.16658701171875,4.280951,13.48828701171875,4,12.78108701171875,4C12.78108701171875,4,12.78108701171875,6.66667,12.78108701171875,6.66667C12.78108701171875,6.66667,12.78108701171875,6.66667,12.78108701171875,6.66667C12.78108701171875,6.66667,14.66668701171875,4.781048,14.66668701171875,4.781048C14.66668701171875,4.781048,14.66668701171875,4.781048,14.66668701171875,4.781048Z" fill="currentColor" fill-opacity="0.8500000238418579"/></g></g></g></svg>