<svg xmlns="http://www.w3.org/2000/svg" xmlns:xlink="http://www.w3.org/1999/xlink" fill="none" version="1.1" width="32" height="32" viewBox="0 0 32 32"><defs><clipPath id="master_svg0_110_31112"><rect x="0" y="0" width="32" height="32" rx="0"/></clipPath></defs><g><g clip-path="url(#master_svg0_110_31112)"><g><path d="M23.99998701171875,3.9999559765625C23.99998701171875,3.9999559765625,23.99998701171875,2.6666259765625,23.99998701171875,2.6666259765625C23.99998701171875,2.6666259765625,23.99998701171875,3.9999559765625,23.99998701171875,3.9999559765625C23.99998701171875,3.9999559765625,23.99998701171875,3.9999559765625,23.99998701171875,3.9999559765625ZM23.99998701171875,27.9999259765625C23.99998701171875,27.9999259765625,23.99998701171875,29.3333259765625,23.99998701171875,29.3333259765625C23.99998701171875,29.3333259765625,23.99998701171875,27.9999259765625,23.99998701171875,27.9999259765625C23.99998701171875,27.9999259765625,23.99998701171875,27.9999259765625,23.99998701171875,27.9999259765625ZM27.99998701171875,23.9999259765625C27.99998701171875,23.9999259765625,29.33338701171875,23.9999259765625,29.33338701171875,23.9999259765625C29.33338701171875,23.9999259765625,27.99998701171875,23.9999259765625,27.99998701171875,23.9999259765625C27.99998701171875,23.9999259765625,27.99998701171875,23.9999259765625,27.99998701171875,23.9999259765625ZM4.00001701171875,23.9999259765625C4.00001701171875,23.9999259765625,2.66668701171875,23.9999259765625,2.66668701171875,23.9999259765625C2.66668701171875,23.9999259765625,4.00001701171875,23.9999259765625,4.00001701171875,23.9999259765625C4.00001701171875,23.9999259765625,4.00001701171875,23.9999259765625,4.00001701171875,23.9999259765625ZM8.00001701171875,27.9999259765625C8.00001701171875,27.9999259765625,8.00001701171875,29.3333259765625,8.00001701171875,29.3333259765625C8.00001701171875,29.3333259765625,8.00001701171875,27.9999259765625,8.00001701171875,27.9999259765625C8.00001701171875,27.9999259765625,8.00001701171875,27.9999259765625,8.00001701171875,27.9999259765625ZM8.00001701171875,3.9999559765625C8.00001701171875,3.9999559765625,8.00001701171875,2.6666259765625,8.00001701171875,2.6666259765625C8.00001701171875,2.6666259765625,8.00001701171875,3.9999559765625,8.00001701171875,3.9999559765625C8.00001701171875,3.9999559765625,8.00001701171875,3.9999559765625,8.00001701171875,3.9999559765625ZM4.00001701171875,7.9999559765625C4.00001701171875,7.9999559765625,2.66668701171875,7.9999559765625,2.66668701171875,7.9999559765625C2.66668701171875,7.9999559765625,4.00001701171875,7.9999559765625,4.00001701171875,7.9999559765625C4.00001701171875,7.9999559765625,4.00001701171875,7.9999559765625,4.00001701171875,7.9999559765625ZM27.99998701171875,7.9999559765625C27.99998701171875,7.9999559765625,29.33338701171875,7.9999559765625,29.33338701171875,7.9999559765625C29.33338701171875,7.9999559765625,27.99998701171875,7.9999559765625,27.99998701171875,7.9999559765625C27.99998701171875,7.9999559765625,27.99998701171875,7.9999559765625,27.99998701171875,7.9999559765625ZM23.99998701171875,2.6666259765625C22.58548701171875,2.6666259765625,21.22898701171875,3.2285289765625,20.22878701171875,4.2287259765625C20.22878701171875,4.2287259765625,22.11438701171875,6.1143459765625,22.11438701171875,6.1143459765625C22.61458701171875,5.6142359765625,23.29278701171875,5.3332959765625,23.99998701171875,5.3332959765625C23.99998701171875,5.3332959765625,23.99998701171875,2.6666259765625,23.99998701171875,2.6666259765625C23.99998701171875,2.6666259765625,23.99998701171875,2.6666259765625,23.99998701171875,2.6666259765625ZM20.22878701171875,4.2287259765625C19.22858701171875,5.2289159765625,18.66668701171875,6.585465976562499,18.66668701171875,7.9999559765625C18.66668701171875,7.9999559765625,21.33338701171875,7.9999559765625,21.33338701171875,7.9999559765625C21.33338701171875,7.2927159765625,21.61428701171875,6.6144359765625005,22.11438701171875,6.1143459765625C22.11438701171875,6.1143459765625,20.22878701171875,4.2287259765625,20.22878701171875,4.2287259765625C20.22878701171875,4.2287259765625,20.22878701171875,4.2287259765625,20.22878701171875,4.2287259765625ZM18.66668701171875,7.9999559765625C18.66668701171875,7.9999559765625,18.66668701171875,23.9999259765625,18.66668701171875,23.9999259765625C18.66668701171875,23.9999259765625,21.33338701171875,23.9999259765625,21.33338701171875,23.9999259765625C21.33338701171875,23.9999259765625,21.33338701171875,7.9999559765625,21.33338701171875,7.9999559765625C21.33338701171875,7.9999559765625,18.66668701171875,7.9999559765625,18.66668701171875,7.9999559765625C18.66668701171875,7.9999559765625,18.66668701171875,7.9999559765625,18.66668701171875,7.9999559765625ZM18.66668701171875,23.9999259765625C18.66668701171875,25.4145259765625,19.22858701171875,26.7710259765625,20.22878701171875,27.7711259765625C20.22878701171875,27.7711259765625,22.11438701171875,25.8855259765625,22.11438701171875,25.8855259765625C21.61428701171875,25.3854259765625,21.33338701171875,24.7071259765625,21.33338701171875,23.9999259765625C21.33338701171875,23.9999259765625,18.66668701171875,23.9999259765625,18.66668701171875,23.9999259765625C18.66668701171875,23.9999259765625,18.66668701171875,23.9999259765625,18.66668701171875,23.9999259765625ZM20.22878701171875,27.7711259765625C21.22898701171875,28.7714259765625,22.58548701171875,29.3333259765625,23.99998701171875,29.3333259765625C23.99998701171875,29.3333259765625,23.99998701171875,26.6666259765625,23.99998701171875,26.6666259765625C23.29278701171875,26.6666259765625,22.61458701171875,26.3857259765625,22.11438701171875,25.8855259765625C22.11438701171875,25.8855259765625,20.22878701171875,27.7711259765625,20.22878701171875,27.7711259765625C20.22878701171875,27.7711259765625,20.22878701171875,27.7711259765625,20.22878701171875,27.7711259765625ZM23.99998701171875,29.3333259765625C25.41458701171875,29.3333259765625,26.77108701171875,28.7714259765625,27.77118701171875,27.7711259765625C27.77118701171875,27.7711259765625,25.88558701171875,25.8855259765625,25.88558701171875,25.8855259765625C25.38548701171875,26.3857259765625,24.70718701171875,26.6666259765625,23.99998701171875,26.6666259765625C23.99998701171875,26.6666259765625,23.99998701171875,29.3333259765625,23.99998701171875,29.3333259765625C23.99998701171875,29.3333259765625,23.99998701171875,29.3333259765625,23.99998701171875,29.3333259765625ZM27.77118701171875,27.7711259765625C28.77148701171875,26.7710259765625,29.33338701171875,25.4145259765625,29.33338701171875,23.9999259765625C29.33338701171875,23.9999259765625,26.66668701171875,23.9999259765625,26.66668701171875,23.9999259765625C26.66668701171875,24.7071259765625,26.38578701171875,25.3854259765625,25.88558701171875,25.8855259765625C25.88558701171875,25.8855259765625,27.77118701171875,27.7711259765625,27.77118701171875,27.7711259765625C27.77118701171875,27.7711259765625,27.77118701171875,27.7711259765625,27.77118701171875,27.7711259765625ZM29.33338701171875,23.9999259765625C29.33338701171875,22.5854259765625,28.77148701171875,21.2289259765625,27.77118701171875,20.2287259765625C27.77118701171875,20.2287259765625,25.88558701171875,22.1143259765625,25.88558701171875,22.1143259765625C26.38578701171875,22.6145259765625,26.66668701171875,23.2927259765625,26.66668701171875,23.9999259765625C26.66668701171875,23.9999259765625,29.33338701171875,23.9999259765625,29.33338701171875,23.9999259765625C29.33338701171875,23.9999259765625,29.33338701171875,23.9999259765625,29.33338701171875,23.9999259765625ZM27.77118701171875,20.2287259765625C26.77108701171875,19.2285259765625,25.41458701171875,18.6666259765625,23.99998701171875,18.6666259765625C23.99998701171875,18.6666259765625,23.99998701171875,21.3333259765625,23.99998701171875,21.3333259765625C24.70718701171875,21.3333259765625,25.38548701171875,21.6142259765625,25.88558701171875,22.1143259765625C25.88558701171875,22.1143259765625,27.77118701171875,20.2287259765625,27.77118701171875,20.2287259765625C27.77118701171875,20.2287259765625,27.77118701171875,20.2287259765625,27.77118701171875,20.2287259765625ZM23.99998701171875,18.6666259765625C23.99998701171875,18.6666259765625,8.00001701171875,18.6666259765625,8.00001701171875,18.6666259765625C8.00001701171875,18.6666259765625,8.00001701171875,21.3333259765625,8.00001701171875,21.3333259765625C8.00001701171875,21.3333259765625,23.99998701171875,21.3333259765625,23.99998701171875,21.3333259765625C23.99998701171875,21.3333259765625,23.99998701171875,18.6666259765625,23.99998701171875,18.6666259765625C23.99998701171875,18.6666259765625,23.99998701171875,18.6666259765625,23.99998701171875,18.6666259765625ZM8.00001701171875,18.6666259765625C6.585527011718749,18.6666259765625,5.22897701171875,19.2285259765625,4.22878701171875,20.2287259765625C4.22878701171875,20.2287259765625,6.11440701171875,22.1143259765625,6.11440701171875,22.1143259765625C6.6144970117187505,21.6142259765625,7.29277701171875,21.3333259765625,8.00001701171875,21.3333259765625C8.00001701171875,21.3333259765625,8.00001701171875,18.6666259765625,8.00001701171875,18.6666259765625C8.00001701171875,18.6666259765625,8.00001701171875,18.6666259765625,8.00001701171875,18.6666259765625ZM4.22878701171875,20.2287259765625C3.22859001171875,21.2289259765625,2.66668701171875,22.5854259765625,2.66668701171875,23.9999259765625C2.66668701171875,23.9999259765625,5.33335701171875,23.9999259765625,5.33335701171875,23.9999259765625C5.33335701171875,23.2927259765625,5.61429701171875,22.6145259765625,6.11440701171875,22.1143259765625C6.11440701171875,22.1143259765625,4.22878701171875,20.2287259765625,4.22878701171875,20.2287259765625C4.22878701171875,20.2287259765625,4.22878701171875,20.2287259765625,4.22878701171875,20.2287259765625ZM2.66668701171875,23.9999259765625C2.66668701171875,25.4145259765625,3.22859001171875,26.7710259765625,4.22878701171875,27.7711259765625C4.22878701171875,27.7711259765625,6.11440701171875,25.8855259765625,6.11440701171875,25.8855259765625C5.61429701171875,25.3854259765625,5.33335701171875,24.7071259765625,5.33335701171875,23.9999259765625C5.33335701171875,23.9999259765625,2.66668701171875,23.9999259765625,2.66668701171875,23.9999259765625C2.66668701171875,23.9999259765625,2.66668701171875,23.9999259765625,2.66668701171875,23.9999259765625ZM4.22878701171875,27.7711259765625C5.22897701171875,28.7714259765625,6.585527011718749,29.3333259765625,8.00001701171875,29.3333259765625C8.00001701171875,29.3333259765625,8.00001701171875,26.6666259765625,8.00001701171875,26.6666259765625C7.29277701171875,26.6666259765625,6.6144970117187505,26.3857259765625,6.11440701171875,25.8855259765625C6.11440701171875,25.8855259765625,4.22878701171875,27.7711259765625,4.22878701171875,27.7711259765625C4.22878701171875,27.7711259765625,4.22878701171875,27.7711259765625,4.22878701171875,27.7711259765625ZM8.00001701171875,29.3333259765625C9.41451701171875,29.3333259765625,10.77105701171875,28.7714259765625,11.77125701171875,27.7711259765625C11.77125701171875,27.7711259765625,9.88563701171875,25.8855259765625,9.88563701171875,25.8855259765625C9.38553701171875,26.3857259765625,8.707257011718749,26.6666259765625,8.00001701171875,26.6666259765625C8.00001701171875,26.6666259765625,8.00001701171875,29.3333259765625,8.00001701171875,29.3333259765625C8.00001701171875,29.3333259765625,8.00001701171875,29.3333259765625,8.00001701171875,29.3333259765625ZM11.77125701171875,27.7711259765625C12.77148701171875,26.7710259765625,13.33338701171875,25.4145259765625,13.33338701171875,23.9999259765625C13.33338701171875,23.9999259765625,10.66668701171875,23.9999259765625,10.66668701171875,23.9999259765625C10.66668701171875,24.7071259765625,10.38573701171875,25.3854259765625,9.88563701171875,25.8855259765625C9.88563701171875,25.8855259765625,11.77125701171875,27.7711259765625,11.77125701171875,27.7711259765625C11.77125701171875,27.7711259765625,11.77125701171875,27.7711259765625,11.77125701171875,27.7711259765625ZM13.33338701171875,23.9999259765625C13.33338701171875,23.9999259765625,13.33338701171875,7.9999559765625,13.33338701171875,7.9999559765625C13.33338701171875,7.9999559765625,10.66668701171875,7.9999559765625,10.66668701171875,7.9999559765625C10.66668701171875,7.9999559765625,10.66668701171875,23.9999259765625,10.66668701171875,23.9999259765625C10.66668701171875,23.9999259765625,13.33338701171875,23.9999259765625,13.33338701171875,23.9999259765625C13.33338701171875,23.9999259765625,13.33338701171875,23.9999259765625,13.33338701171875,23.9999259765625ZM13.33338701171875,7.9999559765625C13.33338701171875,6.585465976562499,12.77148701171875,5.2289159765625,11.77125701171875,4.2287259765625C11.77125701171875,4.2287259765625,9.88563701171875,6.1143459765625,9.88563701171875,6.1143459765625C10.38573701171875,6.6144359765625005,10.66668701171875,7.2927159765625,10.66668701171875,7.9999559765625C10.66668701171875,7.9999559765625,13.33338701171875,7.9999559765625,13.33338701171875,7.9999559765625C13.33338701171875,7.9999559765625,13.33338701171875,7.9999559765625,13.33338701171875,7.9999559765625ZM11.77125701171875,4.2287259765625C10.77105701171875,3.2285289765625,9.41451701171875,2.6666259765625,8.00001701171875,2.6666259765625C8.00001701171875,2.6666259765625,8.00001701171875,5.3332959765625,8.00001701171875,5.3332959765625C8.707257011718749,5.3332959765625,9.38553701171875,5.6142359765625,9.88563701171875,6.1143459765625C9.88563701171875,6.1143459765625,11.77125701171875,4.2287259765625,11.77125701171875,4.2287259765625C11.77125701171875,4.2287259765625,11.77125701171875,4.2287259765625,11.77125701171875,4.2287259765625ZM8.00001701171875,2.6666259765625C6.585527011718749,2.6666259765625,5.22897701171875,3.2285299765625,4.22878701171875,4.2287259765625C4.22878701171875,4.2287259765625,6.11440701171875,6.1143459765625,6.11440701171875,6.1143459765625C6.6144970117187505,5.6142359765625,7.29277701171875,5.3332959765625,8.00001701171875,5.3332959765625C8.00001701171875,5.3332959765625,8.00001701171875,2.6666259765625,8.00001701171875,2.6666259765625C8.00001701171875,2.6666259765625,8.00001701171875,2.6666259765625,8.00001701171875,2.6666259765625ZM4.22878701171875,4.2287259765625C3.22859101171875,5.2289159765625,2.66668701171875,6.585465976562499,2.66668701171875,7.9999559765625C2.66668701171875,7.9999559765625,5.33335701171875,7.9999559765625,5.33335701171875,7.9999559765625C5.33335701171875,7.2927159765625,5.61429701171875,6.6144359765625005,6.11440701171875,6.1143459765625C6.11440701171875,6.1143459765625,4.22878701171875,4.2287259765625,4.22878701171875,4.2287259765625C4.22878701171875,4.2287259765625,4.22878701171875,4.2287259765625,4.22878701171875,4.2287259765625ZM2.66668701171875,7.9999559765625C2.66668701171875,9.4144559765625,3.22859001171875,10.7709959765625,4.22878701171875,11.7711959765625C4.22878701171875,11.7711959765625,6.11440701171875,9.8855759765625,6.11440701171875,9.8855759765625C5.61429701171875,9.3854759765625,5.33335701171875,8.707195976562499,5.33335701171875,7.9999559765625C5.33335701171875,7.9999559765625,2.66668701171875,7.9999559765625,2.66668701171875,7.9999559765625C2.66668701171875,7.9999559765625,2.66668701171875,7.9999559765625,2.66668701171875,7.9999559765625ZM4.22878701171875,11.7711959765625C5.22897701171875,12.7714259765625,6.585527011718749,13.3333259765625,8.00001701171875,13.3333259765625C8.00001701171875,13.3333259765625,8.00001701171875,10.6666259765625,8.00001701171875,10.6666259765625C7.29277701171875,10.6666259765625,6.6144970117187505,10.3856759765625,6.11440701171875,9.8855759765625C6.11440701171875,9.8855759765625,4.22878701171875,11.7711959765625,4.22878701171875,11.7711959765625C4.22878701171875,11.7711959765625,4.22878701171875,11.7711959765625,4.22878701171875,11.7711959765625ZM8.00001701171875,13.3333259765625C8.00001701171875,13.3333259765625,23.99998701171875,13.3333259765625,23.99998701171875,13.3333259765625C23.99998701171875,13.3333259765625,23.99998701171875,10.6666259765625,23.99998701171875,10.6666259765625C23.99998701171875,10.6666259765625,8.00001701171875,10.6666259765625,8.00001701171875,10.6666259765625C8.00001701171875,10.6666259765625,8.00001701171875,13.3333259765625,8.00001701171875,13.3333259765625C8.00001701171875,13.3333259765625,8.00001701171875,13.3333259765625,8.00001701171875,13.3333259765625ZM23.99998701171875,13.3333259765625C25.41458701171875,13.3333259765625,26.77108701171875,12.7714259765625,27.77118701171875,11.7711959765625C27.77118701171875,11.7711959765625,25.88558701171875,9.8855759765625,25.88558701171875,9.8855759765625C25.38548701171875,10.3856759765625,24.70718701171875,10.6666259765625,23.99998701171875,10.6666259765625C23.99998701171875,10.6666259765625,23.99998701171875,13.3333259765625,23.99998701171875,13.3333259765625C23.99998701171875,13.3333259765625,23.99998701171875,13.3333259765625,23.99998701171875,13.3333259765625ZM27.77118701171875,11.7711959765625C28.77148701171875,10.7709959765625,29.33338701171875,9.4144559765625,29.33338701171875,7.9999559765625C29.33338701171875,7.9999559765625,26.66668701171875,7.9999559765625,26.66668701171875,7.9999559765625C26.66668701171875,8.707195976562499,26.38578701171875,9.3854759765625,25.88558701171875,9.8855759765625C25.88558701171875,9.8855759765625,27.77118701171875,11.7711959765625,27.77118701171875,11.7711959765625C27.77118701171875,11.7711959765625,27.77118701171875,11.7711959765625,27.77118701171875,11.7711959765625ZM29.33338701171875,7.9999559765625C29.33338701171875,6.585465976562499,28.77148701171875,5.2289159765625,27.77118701171875,4.2287259765625C27.77118701171875,4.2287259765625,25.88558701171875,6.1143459765625,25.88558701171875,6.1143459765625C26.38578701171875,6.6144359765625005,26.66668701171875,7.2927159765625,26.66668701171875,7.9999559765625C26.66668701171875,7.9999559765625,29.33338701171875,7.9999559765625,29.33338701171875,7.9999559765625C29.33338701171875,7.9999559765625,29.33338701171875,7.9999559765625,29.33338701171875,7.9999559765625ZM27.77118701171875,4.2287259765625C26.77108701171875,3.2285289765625,25.41458701171875,2.6666259765625,23.99998701171875,2.6666259765625C23.99998701171875,2.6666259765625,23.99998701171875,5.3332959765625,23.99998701171875,5.3332959765625C24.70718701171875,5.3332959765625,25.38548701171875,5.6142359765625,25.88558701171875,6.1143459765625C25.88558701171875,6.1143459765625,27.77118701171875,4.2287259765625,27.77118701171875,4.2287259765625C27.77118701171875,4.2287259765625,27.77118701171875,4.2287259765625,27.77118701171875,4.2287259765625Z" fill="currentColor" fill-opacity="0.8500000238418579"/></g></g></g></svg>