<svg xmlns="http://www.w3.org/2000/svg" xmlns:xlink="http://www.w3.org/1999/xlink" fill="none" version="1.1" width="32" height="32" viewBox="0 0 32 32"><defs><clipPath id="master_svg0_110_31125"><rect x="0" y="0" width="32" height="32" rx="0"/></clipPath></defs><g><g clip-path="url(#master_svg0_110_31125)"><g><path d="M2.66664298828125,3.9999559765625C2.66664298828125,3.9999559765625,2.66664298828125,2.6666259765625,2.66664298828125,2.6666259765625C1.93026598828125,2.6666259765625,1.33331298828125,3.2635789765625,1.33331298828125,3.9999559765625C1.33331298828125,3.9999559765625,2.66664298828125,3.9999559765625,2.66664298828125,3.9999559765625C2.66664298828125,3.9999559765625,2.66664298828125,3.9999559765625,2.66664298828125,3.9999559765625ZM16.00001298828125,9.3332959765625C16.00001298828125,9.3332959765625,17.33331298828125,9.3332959765625,17.33331298828125,9.3332959765625C17.33331298828125,9.3332959765625,16.00001298828125,9.3332959765625,16.00001298828125,9.3332959765625C16.00001298828125,9.3332959765625,16.00001298828125,9.3332959765625,16.00001298828125,9.3332959765625ZM14.66661298828125,27.9999259765625C14.66661298828125,28.7363259765625,15.26361298828125,29.3333259765625,16.00001298828125,29.3333259765625C16.736412988281252,29.3333259765625,17.33331298828125,28.7363259765625,17.33331298828125,27.9999259765625C17.33331298828125,27.9999259765625,14.66661298828125,27.9999259765625,14.66661298828125,27.9999259765625C14.66661298828125,27.9999259765625,14.66661298828125,27.9999259765625,14.66661298828125,27.9999259765625ZM12.00001298828125,23.9999259765625C12.00001298828125,23.9999259765625,12.00001298828125,22.6666259765625,12.00001298828125,22.6666259765625C12.00001298828125,22.6666259765625,12.00001298828125,23.9999259765625,12.00001298828125,23.9999259765625C12.00001298828125,23.9999259765625,12.00001298828125,23.9999259765625,12.00001298828125,23.9999259765625ZM2.66664298828125,23.9999259765625C2.66664298828125,23.9999259765625,1.33331298828125,23.9999259765625,1.33331298828125,23.9999259765625C1.33331298828125,24.7363259765625,1.93026598828125,25.3333259765625,2.66664298828125,25.3333259765625C2.66664298828125,25.3333259765625,2.66664298828125,23.9999259765625,2.66664298828125,23.9999259765625C2.66664298828125,23.9999259765625,2.66664298828125,23.9999259765625,2.66664298828125,23.9999259765625ZM2.66664298828125,5.3332959765625C2.66664298828125,5.3332959765625,10.66664298828125,5.3332959765625,10.66664298828125,5.3332959765625C10.66664298828125,5.3332959765625,10.66664298828125,2.6666259765625,10.66664298828125,2.6666259765625C10.66664298828125,2.6666259765625,2.66664298828125,2.6666259765625,2.66664298828125,2.6666259765625C2.66664298828125,2.6666259765625,2.66664298828125,5.3332959765625,2.66664298828125,5.3332959765625C2.66664298828125,5.3332959765625,2.66664298828125,5.3332959765625,2.66664298828125,5.3332959765625ZM10.66664298828125,5.3332959765625C11.72751298828125,5.3332959765625,12.74491298828125,5.754715976562499,13.49511298828125,6.5048659765625C13.49511298828125,6.5048659765625,15.38071298828125,4.6192459765625,15.38071298828125,4.6192459765625C14.13041298828125,3.3690049765625,12.43471298828125,2.6666259765625,10.66664298828125,2.6666259765625C10.66664298828125,2.6666259765625,10.66664298828125,5.3332959765625,10.66664298828125,5.3332959765625C10.66664298828125,5.3332959765625,10.66664298828125,5.3332959765625,10.66664298828125,5.3332959765625ZM13.49511298828125,6.5048659765625C14.24521298828125,7.2550159765625,14.66661298828125,8.2724259765625,14.66661298828125,9.3332959765625C14.66661298828125,9.3332959765625,17.33331298828125,9.3332959765625,17.33331298828125,9.3332959765625C17.33331298828125,7.5651859765625,16.63091298828125,5.8694959765625,15.38071298828125,4.6192459765625C15.38071298828125,4.6192459765625,13.49511298828125,6.5048659765625,13.49511298828125,6.5048659765625C13.49511298828125,6.5048659765625,13.49511298828125,6.5048659765625,13.49511298828125,6.5048659765625ZM14.66661298828125,9.3332959765625C14.66661298828125,9.3332959765625,14.66661298828125,27.9999259765625,14.66661298828125,27.9999259765625C14.66661298828125,27.9999259765625,17.33331298828125,27.9999259765625,17.33331298828125,27.9999259765625C17.33331298828125,27.9999259765625,17.33331298828125,9.3332959765625,17.33331298828125,9.3332959765625C17.33331298828125,9.3332959765625,14.66661298828125,9.3332959765625,14.66661298828125,9.3332959765625C14.66661298828125,9.3332959765625,14.66661298828125,9.3332959765625,14.66661298828125,9.3332959765625ZM17.33331298828125,27.9999259765625C17.33331298828125,26.5854259765625,16.77141298828125,25.2289259765625,15.77121298828125,24.2287259765625C15.77121298828125,24.2287259765625,13.88561298828125,26.1143259765625,13.88561298828125,26.1143259765625C14.38571298828125,26.6145259765625,14.66661298828125,27.2927259765625,14.66661298828125,27.9999259765625C14.66661298828125,27.9999259765625,17.33331298828125,27.9999259765625,17.33331298828125,27.9999259765625C17.33331298828125,27.9999259765625,17.33331298828125,27.9999259765625,17.33331298828125,27.9999259765625ZM15.77121298828125,24.2287259765625C14.77101298828125,23.2285259765625,13.41451298828125,22.6666259765625,12.00001298828125,22.6666259765625C12.00001298828125,22.6666259765625,12.00001298828125,25.3333259765625,12.00001298828125,25.3333259765625C12.70721298828125,25.3333259765625,13.38551298828125,25.6142259765625,13.88561298828125,26.1143259765625C13.88561298828125,26.1143259765625,15.77121298828125,24.2287259765625,15.77121298828125,24.2287259765625C15.77121298828125,24.2287259765625,15.77121298828125,24.2287259765625,15.77121298828125,24.2287259765625ZM12.00001298828125,22.6666259765625C12.00001298828125,22.6666259765625,2.66664298828125,22.6666259765625,2.66664298828125,22.6666259765625C2.66664298828125,22.6666259765625,2.66664298828125,25.3333259765625,2.66664298828125,25.3333259765625C2.66664298828125,25.3333259765625,12.00001298828125,25.3333259765625,12.00001298828125,25.3333259765625C12.00001298828125,25.3333259765625,12.00001298828125,22.6666259765625,12.00001298828125,22.6666259765625C12.00001298828125,22.6666259765625,12.00001298828125,22.6666259765625,12.00001298828125,22.6666259765625ZM3.99998298828125,23.9999259765625C3.99998298828125,23.9999259765625,3.99998298828125,3.9999559765625,3.99998298828125,3.9999559765625C3.99998298828125,3.9999559765625,1.33331298828125,3.9999559765625,1.33331298828125,3.9999559765625C1.33331298828125,3.9999559765625,1.33331298828125,23.9999259765625,1.33331298828125,23.9999259765625C1.33331298828125,23.9999259765625,3.99998298828125,23.9999259765625,3.99998298828125,23.9999259765625C3.99998298828125,23.9999259765625,3.99998298828125,23.9999259765625,3.99998298828125,23.9999259765625Z" fill="currentColor" fill-opacity="0.8500000238418579"/></g><g><path d="M29.33338701171875,3.9999559765625C29.33338701171875,3.9999559765625,30.66668701171875,3.9999559765625,30.66668701171875,3.9999559765625C30.66668701171875,3.2635789765625,30.069787011718752,2.6666259765625,29.33338701171875,2.6666259765625C29.33338701171875,2.6666259765625,29.33338701171875,3.9999559765625,29.33338701171875,3.9999559765625C29.33338701171875,3.9999559765625,29.33338701171875,3.9999559765625,29.33338701171875,3.9999559765625ZM21.33335701171875,3.9999559765625C21.33335701171875,3.9999559765625,21.33335701171875,2.6666259765625,21.33335701171875,2.6666259765625C21.33335701171875,2.6666259765625,21.33335701171875,3.9999559765625,21.33335701171875,3.9999559765625C21.33335701171875,3.9999559765625,21.33335701171875,3.9999559765625,21.33335701171875,3.9999559765625ZM16.00001701171875,9.3332959765625C16.00001701171875,9.3332959765625,14.66668701171875,9.3332959765625,14.66668701171875,9.3332959765625C14.66668701171875,9.3332959765625,16.00001701171875,9.3332959765625,16.00001701171875,9.3332959765625C16.00001701171875,9.3332959765625,16.00001701171875,9.3332959765625,16.00001701171875,9.3332959765625ZM14.66668701171875,27.9999259765625C14.66668701171875,28.7363259765625,15.26364001171875,29.3333259765625,16.00001701171875,29.3333259765625C16.73639701171875,29.3333259765625,17.33335701171875,28.7363259765625,17.33335701171875,27.9999259765625C17.33335701171875,27.9999259765625,14.66668701171875,27.9999259765625,14.66668701171875,27.9999259765625C14.66668701171875,27.9999259765625,14.66668701171875,27.9999259765625,14.66668701171875,27.9999259765625ZM20.00001701171875,23.9999259765625C20.00001701171875,23.9999259765625,20.00001701171875,22.6666259765625,20.00001701171875,22.6666259765625C20.00001701171875,22.6666259765625,20.00001701171875,23.9999259765625,20.00001701171875,23.9999259765625C20.00001701171875,23.9999259765625,20.00001701171875,23.9999259765625,20.00001701171875,23.9999259765625ZM29.33338701171875,23.9999259765625C29.33338701171875,23.9999259765625,29.33338701171875,25.3333259765625,29.33338701171875,25.3333259765625C30.069787011718752,25.3333259765625,30.66668701171875,24.7363259765625,30.66668701171875,23.9999259765625C30.66668701171875,23.9999259765625,29.33338701171875,23.9999259765625,29.33338701171875,23.9999259765625C29.33338701171875,23.9999259765625,29.33338701171875,23.9999259765625,29.33338701171875,23.9999259765625ZM29.33338701171875,2.6666259765625C29.33338701171875,2.6666259765625,21.33335701171875,2.6666259765625,21.33335701171875,2.6666259765625C21.33335701171875,2.6666259765625,21.33335701171875,5.3332959765625,21.33335701171875,5.3332959765625C21.33335701171875,5.3332959765625,29.33338701171875,5.3332959765625,29.33338701171875,5.3332959765625C29.33338701171875,5.3332959765625,29.33338701171875,2.6666259765625,29.33338701171875,2.6666259765625C29.33338701171875,2.6666259765625,29.33338701171875,2.6666259765625,29.33338701171875,2.6666259765625ZM21.33335701171875,2.6666259765625C19.56524701171875,2.6666259765625,17.86955701171875,3.3690049765625,16.61930701171875,4.6192459765625C16.61930701171875,4.6192459765625,18.50492701171875,6.5048659765625,18.50492701171875,6.5048659765625C19.25507701171875,5.754715976562499,20.272487011718752,5.3332959765625,21.33335701171875,5.3332959765625C21.33335701171875,5.3332959765625,21.33335701171875,2.6666259765625,21.33335701171875,2.6666259765625C21.33335701171875,2.6666259765625,21.33335701171875,2.6666259765625,21.33335701171875,2.6666259765625ZM16.61930701171875,4.6192459765625C15.36906601171875,5.8694959765625,14.66668701171875,7.5651859765625,14.66668701171875,9.3332959765625C14.66668701171875,9.3332959765625,17.33335701171875,9.3332959765625,17.33335701171875,9.3332959765625C17.33335701171875,8.2724259765625,17.75477701171875,7.2550159765625,18.50492701171875,6.5048659765625C18.50492701171875,6.5048659765625,16.61930701171875,4.6192459765625,16.61930701171875,4.6192459765625C16.61930701171875,4.6192459765625,16.61930701171875,4.6192459765625,16.61930701171875,4.6192459765625ZM14.66668701171875,9.3332959765625C14.66668701171875,9.3332959765625,14.66668701171875,27.9999259765625,14.66668701171875,27.9999259765625C14.66668701171875,27.9999259765625,17.33335701171875,27.9999259765625,17.33335701171875,27.9999259765625C17.33335701171875,27.9999259765625,17.33335701171875,9.3332959765625,17.33335701171875,9.3332959765625C17.33335701171875,9.3332959765625,14.66668701171875,9.3332959765625,14.66668701171875,9.3332959765625C14.66668701171875,9.3332959765625,14.66668701171875,9.3332959765625,14.66668701171875,9.3332959765625ZM17.33335701171875,27.9999259765625C17.33335701171875,27.2927259765625,17.61429701171875,26.6145259765625,18.11440701171875,26.1143259765625C18.11440701171875,26.1143259765625,16.22878701171875,24.2287259765625,16.22878701171875,24.2287259765625C15.228590011718751,25.2289259765625,14.66668701171875,26.5854259765625,14.66668701171875,27.9999259765625C14.66668701171875,27.9999259765625,17.33335701171875,27.9999259765625,17.33335701171875,27.9999259765625C17.33335701171875,27.9999259765625,17.33335701171875,27.9999259765625,17.33335701171875,27.9999259765625ZM18.11440701171875,26.1143259765625C18.61449701171875,25.6142259765625,19.292777011718748,25.3333259765625,20.00001701171875,25.3333259765625C20.00001701171875,25.3333259765625,20.00001701171875,22.6666259765625,20.00001701171875,22.6666259765625C18.58552701171875,22.6666259765625,17.22897701171875,23.2285259765625,16.22878701171875,24.2287259765625C16.22878701171875,24.2287259765625,18.11440701171875,26.1143259765625,18.11440701171875,26.1143259765625C18.11440701171875,26.1143259765625,18.11440701171875,26.1143259765625,18.11440701171875,26.1143259765625ZM20.00001701171875,25.3333259765625C20.00001701171875,25.3333259765625,29.33338701171875,25.3333259765625,29.33338701171875,25.3333259765625C29.33338701171875,25.3333259765625,29.33338701171875,22.6666259765625,29.33338701171875,22.6666259765625C29.33338701171875,22.6666259765625,20.00001701171875,22.6666259765625,20.00001701171875,22.6666259765625C20.00001701171875,22.6666259765625,20.00001701171875,25.3333259765625,20.00001701171875,25.3333259765625C20.00001701171875,25.3333259765625,20.00001701171875,25.3333259765625,20.00001701171875,25.3333259765625ZM30.66668701171875,23.9999259765625C30.66668701171875,23.9999259765625,30.66668701171875,3.9999559765625,30.66668701171875,3.9999559765625C30.66668701171875,3.9999559765625,27.99998701171875,3.9999559765625,27.99998701171875,3.9999559765625C27.99998701171875,3.9999559765625,27.99998701171875,23.9999259765625,27.99998701171875,23.9999259765625C27.99998701171875,23.9999259765625,30.66668701171875,23.9999259765625,30.66668701171875,23.9999259765625C30.66668701171875,23.9999259765625,30.66668701171875,23.9999259765625,30.66668701171875,23.9999259765625Z" fill="currentColor" fill-opacity="0.8500000238418579"/></g></g></g></svg>