<svg xmlns="http://www.w3.org/2000/svg" xmlns:xlink="http://www.w3.org/1999/xlink"  version="1.1" width="32" height="32" viewBox="0 0 32 32"><defs><clipPath id="master_svg0_226_59140"><rect x="0" y="0" width="32" height="32" rx="0"/></clipPath></defs><g clip-path="url(#master_svg0_226_59140)"><g><path d="M4.00016609375,4.666667L4.00016609375,27.3333Q4.00016609375,28.1618,4.58595009375,28.7475Q5.17173609375,29.3333,6.00016309375,29.3333L20.66679609375,29.3333Q22.66679609375,29.3333,22.66679609375,27.3333L22.66679609375,4.666667Q22.66679609375,2.66667,20.66679609375,2.66667L6.00016309375,2.66667Q5.17173609375,2.66667,4.58594909375,3.252453Q4.00016609375,3.83824,4.00016609375,4.666667ZM6.66682609375,26.6667L20.00019609375,26.6667L20.00019609375,5.33333L6.66682609375,5.33333L6.66682609375,26.6667Z" fill-rule="evenodd" /></g><g transform="matrix(-1,0,0,1,54.7939453125,0)"><path d="M30.01079265625,12.476845703125Q30.07637265625,12.476845703125,30.14164265625,12.470415703125Q30.20691265625,12.463985703125001,30.27123265625,12.451195703125Q30.33556265625,12.438395703125,30.39831265625,12.419365703124999Q30.46108265625,12.400325703125,30.52167265625,12.375225703125Q30.582262656250002,12.350125703125,30.64010265625,12.319205703125Q30.69794265625,12.288295703125,30.75247265625,12.251855703124999Q30.80700265625,12.215425703125,30.857702656249998,12.173815703125Q30.90840265625,12.132208703125,30.95477265625,12.085833703125001Q31.00115265625,12.039457703125,31.04275265625,11.988760703125Q31.08436265625,11.938063703125,31.12080265625,11.883531703125Q31.15723265625,11.829000703125,31.18815265625,11.771160703125Q31.21907265625,11.713319703125,31.24416265625,11.652727703125Q31.26926265625,11.592135703125,31.28830265625,11.529375703125Q31.30734265625,11.466615703125001,31.32013265625,11.402291703125Q31.33293265625,11.337966703125,31.33936265625,11.272698703125Q31.34579265625,11.207430003125,31.34579265625,11.141845703125Q31.34579265625,11.076261403125,31.33936265625,11.010992703125Q31.33293265625,10.945724703125,31.32013265625,10.881399703125Q31.30734265625,10.817075703124999,31.28830265625,10.754315703125Q31.26926265625,10.691555703125,31.24416265625,10.630963703125Q31.21907265625,10.570371703125,31.18815265625,10.512530703125Q31.15723265625,10.454690703125,31.12080265625,10.400159703125Q31.08436265625,10.345627703125,31.04275265625,10.294930703125Q31.00115265625,10.244233703125,30.95477265625,10.197857703124999Q30.90840265625,10.151482703125,30.857702656249998,10.109875703125Q30.80700265625,10.068265703125,30.75247265625,10.031835703125001Q30.69794265625,9.995395703125,30.64010265625,9.964485703125Q30.582262656250002,9.933565703125,30.52167265625,9.908465703125Q30.46108265625,9.883365703125,30.39832265625,9.864325703125001Q30.33556265625,9.845295703125,30.27123265625,9.832495703125Q30.20691265625,9.819705703124999,30.14164265625,9.813275703125Q30.07637265625,9.806845703125,30.01079265625,9.806845703125Q29.97742265625,9.806845703125,29.94410265625,9.808515703125L28.06363965625,9.808515703125Q27.23521265625,9.808515703125,26.64942565625,10.394298703125Q26.06364265625,10.980084703125,26.06364265625,11.808512703125L26.06364265625,27.333245703125Q26.06364265625,28.161645703125,26.64942665625,28.747445703125Q27.23521265625,29.333245703125,28.06363965625,29.333245703125L29.944132656249998,29.333245703125Q29.97744265625,29.334945703125,30.01079265625,29.334945703125Q30.07637265625,29.334945703125,30.14164265625,29.328445703125Q30.20691265625,29.322045703125,30.27123265625,29.309245703125Q30.33556265625,29.296445703125,30.39831265625,29.277445703125Q30.46108265625,29.258345703125,30.52167265625,29.233245703125Q30.582262656250002,29.208245703125,30.64010265625,29.177245703125Q30.69794265625,29.146345703125,30.75247265625,29.109945703125Q30.80700265625,29.073445703125,30.857702656249998,29.031845703125Q30.90840265625,28.990245703125,30.95477265625,28.943945703125Q31.00115265625,28.897545703125,31.04275265625,28.846845703125Q31.08436265625,28.796145703125,31.12080265625,28.741645703125Q31.15723265625,28.687045703125,31.18815265625,28.629245703125Q31.21907265625,28.571345703125,31.24416265625,28.510845703125Q31.26926265625,28.450245703125,31.28830265625,28.387445703125Q31.30734265625,28.324645703125,31.32013265625,28.260345703125Q31.33293265625,28.196045703125,31.33936265625,28.130745703125Q31.34579265625,28.065545703125,31.34579265625,27.999945703125Q31.34579265625,27.934345703125,31.33936265625,27.869045703125Q31.33293265625,27.803845703125,31.32013265625,27.739445703125Q31.30734265625,27.675145703125,31.28830265625,27.612345703125Q31.26926265625,27.549645703125,31.24416265625,27.489045703125Q31.21907265625,27.428445703125,31.18815265625,27.370645703125Q31.15723265625,27.312745703125,31.12080265625,27.258245703125Q31.08436265625,27.203745703125,31.04275265625,27.153045703125Q31.00115265625,27.102345703125,30.95477265625,27.055945703124998Q30.90840265625,27.009545703125,30.857702656249998,26.967945703125Q30.80700265625,26.926345703125,30.75247265625,26.889945703125Q30.69794265625,26.853445703125,30.64010265625,26.822545703125Q30.582262656250002,26.791645703125,30.52167265625,26.766545703125Q30.46108265625,26.741445703125002,30.39832265625,26.722445703125Q30.33556265625,26.703345703125002,30.27123265625,26.690545703125Q30.20691265625,26.677745703124998,30.14164265625,26.671345703125Q30.07637265625,26.664945703125,30.01079265625,26.664945703125Q29.97741265625,26.664945703125,29.94407265625,26.666545703125L28.73030265625,26.666545703125L28.73030265625,12.475175703125L29.94410265625,12.475175703125Q29.97742265625,12.476845703125,30.01079265625,12.476845703125Z" fill-rule="evenodd" /></g><g transform="matrix(-1,0,0,1,32.2490234375,0)"><path d="M14.79118171875,17.85026075L14.79118171875,27.333993749999998Q14.79118171875,28.16239375,15.37696471875,28.74819375Q15.96275171875,29.333993749999998,16.79117871875,29.333993749999998L23.04050171875,29.333993749999998L23.04050171875,17.85026075Q23.04050171875,17.02183375,22.454711718749998,16.43604675Q21.868931718749998,15.85026375,21.04050171875,15.85026375L16.79117871875,15.85026375Q15.96275171875,15.85026375,15.37696471875,16.43604675Q14.79118171875,17.02183375,14.79118171875,17.85026075ZM17.45784171875,26.667313749999998L20.37383171875,26.667313749999998L20.37383171875,18.51692375L17.45784171875,18.51692375L17.45784171875,26.667313749999998Z" fill-rule="evenodd" /></g></g></svg>