<svg xmlns="http://www.w3.org/2000/svg" xmlns:xlink="http://www.w3.org/1999/xlink"  version="1.1" width="32" height="32" viewBox="0 0 32 32"><defs><clipPath id="master_svg0_226_59596"><rect x="0" y="0" width="32" height="32" rx="0"/></clipPath></defs><g clip-path="url(#master_svg0_226_59596)"><g><path d="M20.00016609375,20.000654375C20.00016609375,20.000654375,25.33349609375,20.000654375,25.33349609375,20.000654375C25.33349609375,20.000654375,25.33349609375,17.333984375,25.33349609375,17.333984375C25.33349609375,17.333984375,20.00016609375,17.333984375,20.00016609375,17.333984375C20.00016609375,17.333984375,20.00016609375,20.000654375,20.00016609375,20.000654375C20.00016609375,20.000654375,20.00016609375,20.000654375,20.00016609375,20.000654375ZM25.33349609375,20.000654375C25.33349609375,20.000654375,25.33349609375,25.333984375,25.33349609375,25.333984375C25.33349609375,25.333984375,28.00019609375,25.333984375,28.00019609375,25.333984375C28.00019609375,25.333984375,28.00019609375,20.000654375,28.00019609375,20.000654375C28.00019609375,20.000654375,25.33349609375,20.000654375,25.33349609375,20.000654375C25.33349609375,20.000654375,25.33349609375,20.000654375,25.33349609375,20.000654375ZM25.33349609375,25.333984375C25.33349609375,25.333984375,20.00016609375,25.333984375,20.00016609375,25.333984375C20.00016609375,25.333984375,20.00016609375,28.000684375,20.00016609375,28.000684375C20.00016609375,28.000684375,25.33349609375,28.000684375,25.33349609375,28.000684375C25.33349609375,28.000684375,25.33349609375,25.333984375,25.33349609375,25.333984375C25.33349609375,25.333984375,25.33349609375,25.333984375,25.33349609375,25.333984375ZM20.00016609375,25.333984375C20.00016609375,25.333984375,20.00016609375,20.000654375,20.00016609375,20.000654375C20.00016609375,20.000654375,17.33349609375,20.000654375,17.33349609375,20.000654375C17.33349609375,20.000654375,17.33349609375,25.333984375,17.33349609375,25.333984375C17.33349609375,25.333984375,20.00016609375,25.333984375,20.00016609375,25.333984375C20.00016609375,25.333984375,20.00016609375,25.333984375,20.00016609375,25.333984375ZM20.00016609375,25.333984375C20.00016609375,25.333984375,20.00016609375,25.333984375,20.00016609375,25.333984375C20.00016609375,25.333984375,17.33349609375,25.333984375,17.33349609375,25.333984375C17.33349609375,26.806744375,18.52740609375,28.000684375,20.00016609375,28.000684375C20.00016609375,28.000684375,20.00016609375,25.333984375,20.00016609375,25.333984375C20.00016609375,25.333984375,20.00016609375,25.333984375,20.00016609375,25.333984375ZM25.33349609375,25.333984375C25.33349609375,25.333984375,25.33349609375,25.333984375,25.33349609375,25.333984375C25.33349609375,25.333984375,25.33349609375,28.000684375,25.33349609375,28.000684375C26.80625609375,28.000684375,28.00019609375,26.806744375,28.00019609375,25.333984375C28.00019609375,25.333984375,25.33349609375,25.333984375,25.33349609375,25.333984375C25.33349609375,25.333984375,25.33349609375,25.333984375,25.33349609375,25.333984375ZM25.33349609375,20.000654375C25.33349609375,20.000654375,25.33349609375,20.000654375,25.33349609375,20.000654375C25.33349609375,20.000654375,28.00019609375,20.000654375,28.00019609375,20.000654375C28.00019609375,18.527894375,26.80625609375,17.333984375,25.33349609375,17.333984375C25.33349609375,17.333984375,25.33349609375,20.000654375,25.33349609375,20.000654375C25.33349609375,20.000654375,25.33349609375,20.000654375,25.33349609375,20.000654375ZM20.00016609375,17.333984375C18.52740609375,17.333984375,17.33349609375,18.527894375,17.33349609375,20.000654375C17.33349609375,20.000654375,20.00016609375,20.000654375,20.00016609375,20.000654375C20.00016609375,20.000654375,20.00016609375,20.000654375,20.00016609375,20.000654375C20.00016609375,20.000654375,20.00016609375,17.333984375,20.00016609375,17.333984375C20.00016609375,17.333984375,20.00016609375,17.333984375,20.00016609375,17.333984375Z" /></g><g><path d="M6.66667,6.66667C6.66667,6.66667,12,6.66667,12,6.66667C12,6.66667,12,4,12,4C12,4,6.66667,4,6.66667,4C6.66667,4,6.66667,6.66667,6.66667,6.66667C6.66667,6.66667,6.66667,6.66667,6.66667,6.66667ZM12,6.66667C12,6.66667,12,12,12,12C12,12,14.6667,12,14.6667,12C14.6667,12,14.6667,6.66667,14.6667,6.66667C14.6667,6.66667,12,6.66667,12,6.66667C12,6.66667,12,6.66667,12,6.66667ZM12,12C12,12,6.66667,12,6.66667,12C6.66667,12,6.66667,14.6667,6.66667,14.6667C6.66667,14.6667,12,14.6667,12,14.6667C12,14.6667,12,12,12,12C12,12,12,12,12,12ZM6.66667,12C6.66667,12,6.66667,6.66667,6.66667,6.66667C6.66667,6.66667,4,6.66667,4,6.66667C4,6.66667,4,12,4,12C4,12,6.66667,12,6.66667,12C6.66667,12,6.66667,12,6.66667,12ZM6.66667,12C6.66667,12,6.66667,12,6.66667,12C6.66667,12,4,12,4,12C4,13.47276,5.19391,14.6667,6.66667,14.6667C6.66667,14.6667,6.66667,12,6.66667,12C6.66667,12,6.66667,12,6.66667,12ZM12,12C12,12,12,12,12,12C12,12,12,14.6667,12,14.6667C13.47276,14.6667,14.6667,13.47276,14.6667,12C14.6667,12,12,12,12,12C12,12,12,12,12,12ZM12,6.66667C12,6.66667,12,6.66667,12,6.66667C12,6.66667,14.6667,6.66667,14.6667,6.66667C14.6667,5.19391,13.47276,4,12,4C12,4,12,6.66667,12,6.66667C12,6.66667,12,6.66667,12,6.66667ZM6.66667,4C5.19391,4,4,5.19391,4,6.66667C4,6.66667,6.66667,6.66667,6.66667,6.66667C6.66667,6.66667,6.66667,6.66667,6.66667,6.66667C6.66667,6.66667,6.66667,4,6.66667,4C6.66667,4,6.66667,4,6.66667,4Z"  /></g><g><path d="M20.00016609375,6.66667C20.00016609375,6.66667,25.33349609375,6.66667,25.33349609375,6.66667C25.33349609375,6.66667,25.33349609375,4,25.33349609375,4C25.33349609375,4,20.00016609375,4,20.00016609375,4C20.00016609375,4,20.00016609375,6.66667,20.00016609375,6.66667C20.00016609375,6.66667,20.00016609375,6.66667,20.00016609375,6.66667ZM25.33349609375,6.66667C25.33349609375,6.66667,25.33349609375,12,25.33349609375,12C25.33349609375,12,28.00019609375,12,28.00019609375,12C28.00019609375,12,28.00019609375,6.66667,28.00019609375,6.66667C28.00019609375,6.66667,25.33349609375,6.66667,25.33349609375,6.66667C25.33349609375,6.66667,25.33349609375,6.66667,25.33349609375,6.66667ZM25.33349609375,12C25.33349609375,12,20.00016609375,12,20.00016609375,12C20.00016609375,12,20.00016609375,14.6667,20.00016609375,14.6667C20.00016609375,14.6667,25.33349609375,14.6667,25.33349609375,14.6667C25.33349609375,14.6667,25.33349609375,12,25.33349609375,12C25.33349609375,12,25.33349609375,12,25.33349609375,12ZM20.00016609375,12C20.00016609375,12,20.00016609375,6.66667,20.00016609375,6.66667C20.00016609375,6.66667,17.33349609375,6.66667,17.33349609375,6.66667C17.33349609375,6.66667,17.33349609375,12,17.33349609375,12C17.33349609375,12,20.00016609375,12,20.00016609375,12C20.00016609375,12,20.00016609375,12,20.00016609375,12ZM20.00016609375,12C20.00016609375,12,20.00016609375,12,20.00016609375,12C20.00016609375,12,17.33349609375,12,17.33349609375,12C17.33349609375,13.47276,18.52740609375,14.6667,20.00016609375,14.6667C20.00016609375,14.6667,20.00016609375,12,20.00016609375,12C20.00016609375,12,20.00016609375,12,20.00016609375,12ZM25.33349609375,12C25.33349609375,12,25.33349609375,12,25.33349609375,12C25.33349609375,12,25.33349609375,14.6667,25.33349609375,14.6667C26.80625609375,14.6667,28.00019609375,13.47276,28.00019609375,12C28.00019609375,12,25.33349609375,12,25.33349609375,12C25.33349609375,12,25.33349609375,12,25.33349609375,12ZM25.33349609375,6.66667C25.33349609375,6.66667,25.33349609375,6.66667,25.33349609375,6.66667C25.33349609375,6.66667,28.00019609375,6.66667,28.00019609375,6.66667C28.00019609375,5.19391,26.80625609375,4,25.33349609375,4C25.33349609375,4,25.33349609375,6.66667,25.33349609375,6.66667C25.33349609375,6.66667,25.33349609375,6.66667,25.33349609375,6.66667ZM20.00016609375,4C18.52740609375,4,17.33349609375,5.19391,17.33349609375,6.66667C17.33349609375,6.66667,20.00016609375,6.66667,20.00016609375,6.66667C20.00016609375,6.66667,20.00016609375,6.66667,20.00016609375,6.66667C20.00016609375,6.66667,20.00016609375,4,20.00016609375,4C20.00016609375,4,20.00016609375,4,20.00016609375,4Z"/></g><g><path d="M6.66667,20.000654375C6.66667,20.000654375,12,20.000654375,12,20.000654375C12,20.000654375,12,17.333984375,12,17.333984375C12,17.333984375,6.66667,17.333984375,6.66667,17.333984375C6.66667,17.333984375,6.66667,20.000654375,6.66667,20.000654375C6.66667,20.000654375,6.66667,20.000654375,6.66667,20.000654375ZM12,20.000654375C12,20.000654375,12,25.333984375,12,25.333984375C12,25.333984375,14.6667,25.333984375,14.6667,25.333984375C14.6667,25.333984375,14.6667,20.000654375,14.6667,20.000654375C14.6667,20.000654375,12,20.000654375,12,20.000654375C12,20.000654375,12,20.000654375,12,20.000654375ZM12,25.333984375C12,25.333984375,6.66667,25.333984375,6.66667,25.333984375C6.66667,25.333984375,6.66667,28.000684375,6.66667,28.000684375C6.66667,28.000684375,12,28.000684375,12,28.000684375C12,28.000684375,12,25.333984375,12,25.333984375C12,25.333984375,12,25.333984375,12,25.333984375ZM6.66667,25.333984375C6.66667,25.333984375,6.66667,20.000654375,6.66667,20.000654375C6.66667,20.000654375,4,20.000654375,4,20.000654375C4,20.000654375,4,25.333984375,4,25.333984375C4,25.333984375,6.66667,25.333984375,6.66667,25.333984375C6.66667,25.333984375,6.66667,25.333984375,6.66667,25.333984375ZM6.66667,25.333984375C6.66667,25.333984375,6.66667,25.333984375,6.66667,25.333984375C6.66667,25.333984375,4,25.333984375,4,25.333984375C4,26.806744375,5.19391,28.000684375,6.66667,28.000684375C6.66667,28.000684375,6.66667,25.333984375,6.66667,25.333984375C6.66667,25.333984375,6.66667,25.333984375,6.66667,25.333984375ZM12,25.333984375C12,25.333984375,12,25.333984375,12,25.333984375C12,25.333984375,12,28.000684375,12,28.000684375C13.47276,28.000684375,14.6667,26.806744375,14.6667,25.333984375C14.6667,25.333984375,12,25.333984375,12,25.333984375C12,25.333984375,12,25.333984375,12,25.333984375ZM12,20.000654375C12,20.000654375,12,20.000654375,12,20.000654375C12,20.000654375,14.6667,20.000654375,14.6667,20.000654375C14.6667,18.527894375,13.47276,17.333984375,12,17.333984375C12,17.333984375,12,20.000654375,12,20.000654375C12,20.000654375,12,20.000654375,12,20.000654375ZM6.66667,17.333984375C5.19391,17.333984375,4,18.527894375,4,20.000654375C4,20.000654375,6.66667,20.000654375,6.66667,20.000654375C6.66667,20.000654375,6.66667,20.000654375,6.66667,20.000654375C6.66667,20.000654375,6.66667,17.333984375,6.66667,17.333984375C6.66667,17.333984375,6.66667,17.333984375,6.66667,17.333984375Z"/></g></g></svg>