<svg xmlns="http://www.w3.org/2000/svg" xmlns:xlink="http://www.w3.org/1999/xlink"  version="1.1" width="32" height="32" viewBox="0 0 32 32"><defs><clipPath id="master_svg0_226_59458"><rect x="0" y="0" width="32" height="32" rx="0"/></clipPath></defs><g clip-path="url(#master_svg0_226_59458)"><g><path d="M22.9724478125,20.33906465625C22.2556938125,20.17017665625,21.5377408125,20.61430465625,21.3688498125,21.33105265625C21.1999618125,22.04780265625,21.6440898125,22.76576265625,22.3608378125,22.93465265625C22.3608378125,22.93465265625,22.9724478125,20.33906465625,22.9724478125,20.33906465625C22.9724478125,20.33906465625,22.9724478125,20.33906465625,22.9724478125,20.33906465625ZM26.6666378125,26.66671265625C26.6666378125,27.40309265625,27.2635978125,28.00004265625,27.9999778125,28.00004265625C28.7363478125,28.00004265625,29.3333078125,27.40309265625,29.3333078125,26.66671265625C29.3333078125,26.66671265625,26.6666378125,26.66671265625,26.6666378125,26.66671265625C26.6666378125,26.66671265625,26.6666378125,26.66671265625,26.6666378125,26.66671265625ZM22.3608378125,22.93465265625C25.2367778125,23.61231265625,26.6666378125,25.27656265625,26.6666378125,26.66671265625C26.6666378125,26.66671265625,29.3333078125,26.66671265625,29.3333078125,26.66671265625C29.3333078125,23.41252265625,26.3108678125,21.12570865625,22.9724478125,20.33906465625C22.9724478125,20.33906465625,22.3608378125,22.93465265625,22.3608378125,22.93465265625C22.3608378125,22.93465265625,22.3608378125,22.93465265625,22.3608378125,22.93465265625Z" /></g><g><path d="M2.666656494140625,26.66667C2.666656494140625,27.40304,3.263609494140625,28,3.999986494140625,28C4.736366494140626,28,5.333326494140625,27.40304,5.333326494140625,26.66667C5.333326494140625,26.66667,2.666656494140625,26.66667,2.666656494140625,26.66667C2.666656494140625,26.66667,2.666656494140625,26.66667,2.666656494140625,26.66667ZM18.666656494140625,26.66667C18.666656494140625,27.40304,19.263556494140627,28,19.999956494140626,28C20.736356494140626,28,21.333356494140624,27.40304,21.333356494140624,26.66667C21.333356494140624,26.66667,18.666656494140625,26.66667,18.666656494140625,26.66667C18.666656494140625,26.66667,18.666656494140625,26.66667,18.666656494140625,26.66667ZM5.333326494140625,26.66667C5.333326494140625,25.77841,5.8734064941406245,24.81105,7.082736494140625,24.00483C8.282746494140625,23.204810000000002,10.017366494140624,22.66667,11.999986494140625,22.66667C11.999986494140625,22.66667,11.999986494140625,20,11.999986494140625,20C9.564336494140626,20,7.298946494140625,20.655755,5.603536494140625,21.78603C3.9174464941406253,22.91009,2.666656494140625,24.6094,2.666656494140625,26.66667C2.666656494140625,26.66667,5.333326494140625,26.66667,5.333326494140625,26.66667C5.333326494140625,26.66667,5.333326494140625,26.66667,5.333326494140625,26.66667ZM11.999986494140625,22.66667C13.982656494140626,22.66667,15.717256494140624,23.204810000000002,16.917256494140624,24.00483C18.126556494140623,24.81105,18.666656494140625,25.77841,18.666656494140625,26.66667C18.666656494140625,26.66667,21.333356494140624,26.66667,21.333356494140624,26.66667C21.333356494140624,24.6094,20.082556494140626,22.91009,18.396356494140626,21.78603C16.701056494140623,20.655755,14.435656494140625,20,11.999986494140625,20C11.999986494140625,20,11.999986494140625,22.66667,11.999986494140625,22.66667C11.999986494140625,22.66667,11.999986494140625,22.66667,11.999986494140625,22.66667Z"/></g><g><path d="M19.999986494140625,16.00019609375C19.263609494140624,16.00019609375,18.666656494140625,16.59709609375,18.666656494140625,17.33349609375C18.666656494140625,18.06989609375,19.263609494140624,18.66679609375,19.999986494140625,18.66679609375C19.999986494140625,18.66679609375,19.999986494140625,16.00019609375,19.999986494140625,16.00019609375C19.999986494140625,16.00019609375,19.999986494140625,16.00019609375,19.999986494140625,16.00019609375ZM19.999986494140625,5.33349609375C19.263609494140624,5.33349609375,18.666656494140625,5.93044909375,18.666656494140625,6.66682609375C18.666656494140625,7.403206093750001,19.263609494140624,8.00016609375,19.999986494140625,8.00016609375C19.999986494140625,8.00016609375,19.999986494140625,5.33349609375,19.999986494140625,5.33349609375C19.999986494140625,5.33349609375,19.999986494140625,5.33349609375,19.999986494140625,5.33349609375ZM23.999986494140625,12.00016609375C23.999986494140625,14.20929609375,22.209126494140627,16.00019609375,19.999986494140625,16.00019609375C19.999986494140625,16.00019609375,19.999986494140625,18.66679609375,19.999986494140625,18.66679609375C23.681886494140624,18.66679609375,26.666656494140625,15.68209609375,26.666656494140625,12.00016609375C26.666656494140625,12.00016609375,23.999986494140625,12.00016609375,23.999986494140625,12.00016609375C23.999986494140625,12.00016609375,23.999986494140625,12.00016609375,23.999986494140625,12.00016609375ZM19.999986494140625,8.00016609375C22.209126494140627,8.00016609375,23.999986494140625,9.79102609375,23.999986494140625,12.00016609375C23.999986494140625,12.00016609375,26.666656494140625,12.00016609375,26.666656494140625,12.00016609375C26.666656494140625,8.318266093750001,23.681886494140624,5.33349609375,19.999986494140625,5.33349609375C19.999986494140625,5.33349609375,19.999986494140625,8.00016609375,19.999986494140625,8.00016609375C19.999986494140625,8.00016609375,19.999986494140625,8.00016609375,19.999986494140625,8.00016609375Z" /></g><g><path d="M16.000043505859374,12.00016609375C16.000043505859374,14.20929609375,14.209143505859375,16.00019609375,12.000013505859375,16.00019609375C12.000013505859375,16.00019609375,12.000013505859375,18.66679609375,12.000013505859375,18.66679609375C15.681943505859374,18.66679609375,18.666643505859376,15.68209609375,18.666643505859376,12.00016609375C18.666643505859376,12.00016609375,16.000043505859374,12.00016609375,16.000043505859374,12.00016609375C16.000043505859374,12.00016609375,16.000043505859374,12.00016609375,16.000043505859374,12.00016609375ZM12.000013505859375,16.00019609375C9.790873505859375,16.00019609375,8.000013505859375,14.20929609375,8.000013505859375,12.00016609375C8.000013505859375,12.00016609375,5.333343505859375,12.00016609375,5.333343505859375,12.00016609375C5.333343505859375,15.68209609375,8.318113505859376,18.66679609375,12.000013505859375,18.66679609375C12.000013505859375,18.66679609375,12.000013505859375,16.00019609375,12.000013505859375,16.00019609375C12.000013505859375,16.00019609375,12.000013505859375,16.00019609375,12.000013505859375,16.00019609375ZM8.000013505859375,12.00016609375C8.000013505859375,9.79102609375,9.790873505859375,8.00016609375,12.000013505859375,8.00016609375C12.000013505859375,8.00016609375,12.000013505859375,5.33349609375,12.000013505859375,5.33349609375C8.318113505859376,5.33349609375,5.333343505859375,8.318266093750001,5.333343505859375,12.00016609375C5.333343505859375,12.00016609375,8.000013505859375,12.00016609375,8.000013505859375,12.00016609375C8.000013505859375,12.00016609375,8.000013505859375,12.00016609375,8.000013505859375,12.00016609375ZM12.000013505859375,8.00016609375C14.209143505859375,8.00016609375,16.000043505859374,9.79102609375,16.000043505859374,12.00016609375C16.000043505859374,12.00016609375,18.666643505859376,12.00016609375,18.666643505859376,12.00016609375C18.666643505859376,8.318266093750001,15.681943505859374,5.33349609375,12.000013505859375,5.33349609375C12.000013505859375,5.33349609375,12.000013505859375,8.00016609375,12.000013505859375,8.00016609375C12.000013505859375,8.00016609375,12.000013505859375,8.00016609375,12.000013505859375,8.00016609375Z" /></g></g></svg>