<svg xmlns="http://www.w3.org/2000/svg" xmlns:xlink="http://www.w3.org/1999/xlink" fill="none" version="1.1" width="32" height="32" viewBox="0 0 32 32"><defs><clipPath id="master_svg0_110_31139"><rect x="0" y="0" width="32" height="32" rx="0"/></clipPath></defs><g><g clip-path="url(#master_svg0_110_31139)"><g><path d="M27.99998701171875,28.0000740234375C28.73638701171875,28.0000740234375,29.33338701171875,27.4030740234375,29.33338701171875,26.6666740234375C29.33338701171875,25.9302740234375,28.73638701171875,25.3333740234375,27.99998701171875,25.3333740234375C27.99998701171875,25.3333740234375,27.99998701171875,28.0000740234375,27.99998701171875,28.0000740234375C27.99998701171875,28.0000740234375,27.99998701171875,28.0000740234375,27.99998701171875,28.0000740234375ZM4.00001701171875,26.6666740234375C4.00001701171875,26.6666740234375,2.66668701171875,26.6666740234375,2.66668701171875,26.6666740234375C2.66668701171875,27.4030740234375,3.26364001171875,28.0000740234375,4.00001701171875,28.0000740234375C4.00001701171875,28.0000740234375,4.00001701171875,26.6666740234375,4.00001701171875,26.6666740234375C4.00001701171875,26.6666740234375,4.00001701171875,26.6666740234375,4.00001701171875,26.6666740234375ZM5.33335701171875,6.6667040234375C5.33335701171875,5.9303270234375,4.736397011718751,5.3333740234375,4.00001701171875,5.3333740234375C3.26364001171875,5.3333740234375,2.66668701171875,5.9303270234375,2.66668701171875,6.6667040234375C2.66668701171875,6.6667040234375,5.33335701171875,6.6667040234375,5.33335701171875,6.6667040234375C5.33335701171875,6.6667040234375,5.33335701171875,6.6667040234375,5.33335701171875,6.6667040234375ZM27.99998701171875,25.3333740234375C27.99998701171875,25.3333740234375,4.00001701171875,25.3333740234375,4.00001701171875,25.3333740234375C4.00001701171875,25.3333740234375,4.00001701171875,28.0000740234375,4.00001701171875,28.0000740234375C4.00001701171875,28.0000740234375,27.99998701171875,28.0000740234375,27.99998701171875,28.0000740234375C27.99998701171875,28.0000740234375,27.99998701171875,25.3333740234375,27.99998701171875,25.3333740234375C27.99998701171875,25.3333740234375,27.99998701171875,25.3333740234375,27.99998701171875,25.3333740234375ZM5.33335701171875,26.6666740234375C5.33335701171875,26.6666740234375,5.33335701171875,6.6667040234375,5.33335701171875,6.6667040234375C5.33335701171875,6.6667040234375,2.66668701171875,6.6667040234375,2.66668701171875,6.6667040234375C2.66668701171875,6.6667040234375,2.66668701171875,26.6666740234375,2.66668701171875,26.6666740234375C2.66668701171875,26.6666740234375,5.33335701171875,26.6666740234375,5.33335701171875,26.6666740234375C5.33335701171875,26.6666740234375,5.33335701171875,26.6666740234375,5.33335701171875,26.6666740234375Z" fill="currentColor" fill-opacity="0.8500000238418579"/></g><g><path d="M28.87808701171875,10.33679C29.43218701171875,9.85188,29.48848701171875,9.00953,29.00348701171875,8.455345C28.51858701171875,7.9011652,27.67618701171875,7.8450050000000005,27.12208701171875,8.329916C27.12208701171875,8.329916,28.87808701171875,10.33679,28.87808701171875,10.33679C28.87808701171875,10.33679,28.87808701171875,10.33679,28.87808701171875,10.33679ZM17.33338701171875,18.6667C17.33338701171875,18.6667,16.39058701171875,19.6095,16.39058701171875,19.6095C16.88688701171875,20.105800000000002,17.68308701171875,20.1324,18.21138701171875,19.670099999999998C18.21138701171875,19.670099999999998,17.33338701171875,18.6667,17.33338701171875,18.6667C17.33338701171875,18.6667,17.33338701171875,18.6667,17.33338701171875,18.6667ZM12.00005701171875,13.33335C12.00005701171875,13.33335,12.94288701171875,12.39054,12.94288701171875,12.39054C12.45524701171875,11.90293,11.67624701171875,11.86758,11.14648701171875,12.309059999999999C11.14648701171875,12.309059999999999,12.00005701171875,13.33335,12.00005701171875,13.33335C12.00005701171875,13.33335,12.00005701171875,13.33335,12.00005701171875,13.33335ZM3.14647701171875,18.9757C2.58077561171875,19.4471,2.50433601171875,20.2879,2.97576101171875,20.8536C3.44718001171875,21.4193,4.28792701171875,21.4957,4.8536370117187495,21.0243C4.8536370117187495,21.0243,3.14647701171875,18.9757,3.14647701171875,18.9757C3.14647701171875,18.9757,3.14647701171875,18.9757,3.14647701171875,18.9757ZM27.12208701171875,8.329916C27.12208701171875,8.329916,16.45538701171875,17.663249999999998,16.45538701171875,17.663249999999998C16.45538701171875,17.663249999999998,18.21138701171875,19.670099999999998,18.21138701171875,19.670099999999998C18.21138701171875,19.670099999999998,28.87808701171875,10.33679,28.87808701171875,10.33679C28.87808701171875,10.33679,27.12208701171875,8.329916,27.12208701171875,8.329916C27.12208701171875,8.329916,27.12208701171875,8.329916,27.12208701171875,8.329916ZM18.27618701171875,17.723869999999998C18.27618701171875,17.723869999999998,12.94288701171875,12.39054,12.94288701171875,12.39054C12.94288701171875,12.39054,11.05724701171875,14.27617,11.05724701171875,14.27617C11.05724701171875,14.27617,16.39058701171875,19.6095,16.39058701171875,19.6095C16.39058701171875,19.6095,18.27618701171875,17.723869999999998,18.27618701171875,17.723869999999998C18.27618701171875,17.723869999999998,18.27618701171875,17.723869999999998,18.27618701171875,17.723869999999998ZM11.14648701171875,12.309059999999999C11.14648701171875,12.309059999999999,3.14647701171875,18.9757,3.14647701171875,18.9757C3.14647701171875,18.9757,4.8536370117187495,21.0243,4.8536370117187495,21.0243C4.8536370117187495,21.0243,12.85358701171875,14.35765,12.85358701171875,14.35765C12.85358701171875,14.35765,11.14648701171875,12.309059999999999,11.14648701171875,12.309059999999999C11.14648701171875,12.309059999999999,11.14648701171875,12.309059999999999,11.14648701171875,12.309059999999999Z" fill="currentColor" fill-opacity="0.8500000238418579"/></g></g></g></svg>