<svg xmlns="http://www.w3.org/2000/svg" xmlns:xlink="http://www.w3.org/1999/xlink" fill="none" version="1.1" width="32" height="32" viewBox="0 0 32 32"><defs><clipPath id="master_svg0_110_29137"><rect x="0" y="0" width="32" height="32" rx="0"/></clipPath></defs><g clip-path="url(#master_svg0_110_29137)"><g><path d="M6.66667,6.66667C6.66667,6.66667,25.3333,6.66667,25.3333,6.66667C25.3333,6.66667,25.3333,4,25.3333,4C25.3333,4,6.66667,4,6.66667,4C6.66667,4,6.66667,6.66667,6.66667,6.66667C6.66667,6.66667,6.66667,6.66667,6.66667,6.66667ZM6.66667,25.3333C6.66667,25.3333,6.66667,6.66667,6.66667,6.66667C6.66667,6.66667,4,6.66667,4,6.66667C4,6.66667,4,25.3333,4,25.3333C4,25.3333,6.66667,25.3333,6.66667,25.3333C6.66667,25.3333,6.66667,25.3333,6.66667,25.3333ZM25.3333,25.3333C25.3333,25.3333,6.66667,25.3333,6.66667,25.3333C6.66667,25.3333,6.66667,28,6.66667,28C6.66667,28,25.3333,28,25.3333,28C25.3333,28,25.3333,25.3333,25.3333,25.3333C25.3333,25.3333,25.3333,25.3333,25.3333,25.3333ZM25.3333,6.66667C25.3333,6.66667,25.3333,25.3333,25.3333,25.3333C25.3333,25.3333,28,25.3333,28,25.3333C28,25.3333,28,6.66667,28,6.66667C28,6.66667,25.3333,6.66667,25.3333,6.66667C25.3333,6.66667,25.3333,6.66667,25.3333,6.66667ZM25.3333,28C26.8061,28,28,26.8061,28,25.3333C28,25.3333,25.3333,25.3333,25.3333,25.3333C25.3333,25.3333,25.3333,28,25.3333,28C25.3333,28,25.3333,28,25.3333,28ZM4,25.3333C4,26.8061,5.19391,28,6.66667,28C6.66667,28,6.66667,25.3333,6.66667,25.3333C6.66667,25.3333,4,25.3333,4,25.3333C4,25.3333,4,25.3333,4,25.3333ZM25.3333,6.66667C25.3333,6.66667,28,6.66667,28,6.66667C28,5.19391,26.8061,4,25.3333,4C25.3333,4,25.3333,6.66667,25.3333,6.66667C25.3333,6.66667,25.3333,6.66667,25.3333,6.66667ZM6.66667,4C5.19391,4,4,5.19391,4,6.66667C4,6.66667,6.66667,6.66667,6.66667,6.66667C6.66667,6.66667,6.66667,4,6.66667,4C6.66667,4,6.66667,4,6.66667,4Z" fill="currentColor" fill-opacity="1"/></g><g><path d="M16.00001701171875,13.3333740234375C15.26364001171875,13.3333740234375,14.66668701171875,13.9303270234375,14.66668701171875,14.6667040234375C14.66668701171875,15.4030840234375,15.26364001171875,16.0000440234375,16.00001701171875,16.0000440234375C16.00001701171875,16.0000440234375,16.00001701171875,13.3333740234375,16.00001701171875,13.3333740234375C16.00001701171875,13.3333740234375,16.00001701171875,13.3333740234375,16.00001701171875,13.3333740234375ZM21.33335701171875,16.0000440234375C22.06972701171875,16.0000440234375,22.66668701171875,15.4030840234375,22.66668701171875,14.6667040234375C22.66668701171875,13.9303270234375,22.06972701171875,13.3333740234375,21.33335701171875,13.3333740234375C21.33335701171875,13.3333740234375,21.33335701171875,16.0000440234375,21.33335701171875,16.0000440234375C21.33335701171875,16.0000440234375,21.33335701171875,16.0000440234375,21.33335701171875,16.0000440234375ZM16.00001701171875,16.0000440234375C16.00001701171875,16.0000440234375,21.33335701171875,16.0000440234375,21.33335701171875,16.0000440234375C21.33335701171875,16.0000440234375,21.33335701171875,13.3333740234375,21.33335701171875,13.3333740234375C21.33335701171875,13.3333740234375,16.00001701171875,13.3333740234375,16.00001701171875,13.3333740234375C16.00001701171875,13.3333740234375,16.00001701171875,16.0000440234375,16.00001701171875,16.0000440234375C16.00001701171875,16.0000440234375,16.00001701171875,16.0000440234375,16.00001701171875,16.0000440234375Z" fill="currentColor" fill-opacity="1"/></g><g><path d="M16.00001701171875,9.3333740234375C15.26364001171875,9.3333740234375,14.66668701171875,9.9303270234375,14.66668701171875,10.6667040234375C14.66668701171875,11.4030840234375,15.26364001171875,12.0000440234375,16.00001701171875,12.0000440234375C16.00001701171875,12.0000440234375,16.00001701171875,9.3333740234375,16.00001701171875,9.3333740234375C16.00001701171875,9.3333740234375,16.00001701171875,9.3333740234375,16.00001701171875,9.3333740234375ZM21.33335701171875,12.0000440234375C22.06972701171875,12.0000440234375,22.66668701171875,11.4030840234375,22.66668701171875,10.6667040234375C22.66668701171875,9.9303270234375,22.06972701171875,9.3333740234375,21.33335701171875,9.3333740234375C21.33335701171875,9.3333740234375,21.33335701171875,12.0000440234375,21.33335701171875,12.0000440234375C21.33335701171875,12.0000440234375,21.33335701171875,12.0000440234375,21.33335701171875,12.0000440234375ZM16.00001701171875,12.0000440234375C16.00001701171875,12.0000440234375,21.33335701171875,12.0000440234375,21.33335701171875,12.0000440234375C21.33335701171875,12.0000440234375,21.33335701171875,9.3333740234375,21.33335701171875,9.3333740234375C21.33335701171875,9.3333740234375,16.00001701171875,9.3333740234375,16.00001701171875,9.3333740234375C16.00001701171875,9.3333740234375,16.00001701171875,12.0000440234375,16.00001701171875,12.0000440234375C16.00001701171875,12.0000440234375,16.00001701171875,12.0000440234375,16.00001701171875,12.0000440234375Z" fill="currentColor" fill-opacity="1"/></g><g><path d="M9.33331432161125,26.6667C9.33331432161125,27.4031,9.93026798828125,28,10.66664298828125,28C11.40302298828125,28,11.99998298828125,27.4031,11.99998298828125,26.6667C11.99998298828125,26.6667,9.33331432161125,26.6667,9.33331432161125,26.6667C9.33331432161125,26.6667,9.33331432161125,26.6667,9.33331432161125,26.6667ZM11.99998298828125,5.33333C11.99998298828125,4.596953,11.40302298828125,4,10.66664298828125,4C9.93026598828125,4,9.33331298828125,4.596953,9.33331298828125,5.33333C9.33331298828125,5.33333,11.99998298828125,5.33333,11.99998298828125,5.33333C11.99998298828125,5.33333,11.99998298828125,5.33333,11.99998298828125,5.33333ZM11.99998298828125,26.6667C11.99998298828125,26.6667,11.99998298828125,5.33333,11.99998298828125,5.33333C11.99998298828125,5.33333,9.33331298828125,5.33333,9.33331298828125,5.33333C9.33331298828125,5.33333,9.33331432161125,26.6667,9.33331432161125,26.6667C9.33331432161125,26.6667,11.99998298828125,26.6667,11.99998298828125,26.6667C11.99998298828125,26.6667,11.99998298828125,26.6667,11.99998298828125,26.6667Z" fill="currentColor" fill-opacity="1"/></g></g></svg>