<svg xmlns="http://www.w3.org/2000/svg" xmlns:xlink="http://www.w3.org/1999/xlink" fill="none" version="1.1" width="32" height="32" viewBox="0 0 32 32"><defs><clipPath id="master_svg0_110_50448"><rect x="0" y="0" width="32" height="32" rx="0"/></clipPath></defs><g clip-path="url(#master_svg0_110_50448)"><g transform="matrix(-1,0,0,1,57.7154541015625,0)"><path d="M39.74862705078125,9.481535976562501C39.74862705078125,9.481535976562501,40.69142705078125,10.424345976562499,40.69142705078125,10.424345976562499C41.06642705078125,10.0493359765625,41.18352705078125,9.4877159765625,40.98962705078125,8.994075976562499C40.98962705078125,8.994075976562499,39.74862705078125,9.481535976562501,39.74862705078125,9.481535976562501C39.74862705078125,9.481535976562501,39.74862705078125,9.481535976562501,39.74862705078125,9.481535976562501ZM48.23382705078125,17.9667259765625C48.23382705078125,17.9667259765625,48.721327050781255,16.7257259765625,48.721327050781255,16.7257259765625C48.227727050781255,16.531925976562498,47.66612705078125,16.6490259765625,47.29102705078125,17.0240259765625C47.29102705078125,17.0240259765625,48.23382705078125,17.9667259765625,48.23382705078125,17.9667259765625C48.23382705078125,17.9667259765625,48.23382705078125,17.9667259765625,48.23382705078125,17.9667259765625ZM45.95492705078125,20.2457259765625C45.95492705078125,20.2457259765625,45.379427050781246,21.4485259765625,45.379427050781246,21.4485259765625C45.88942705078125,21.6925259765625,46.49792705078125,21.5883259765625,46.89772705078125,21.1885259765625C46.89772705078125,21.1885259765625,45.95492705078125,20.2457259765625,45.95492705078125,20.2457259765625C45.95492705078125,20.2457259765625,45.95492705078125,20.2457259765625,45.95492705078125,20.2457259765625ZM37.46965705078125,11.7604559765625C37.46965705078125,11.7604559765625,36.52686705078125,10.8176559765625,36.52686705078125,10.8176559765625C36.12703705078125,11.2174659765625,36.02287705078125,11.8259859765625,36.26695705078125,12.3360259765625C36.26695705078125,12.3360259765625,37.46965705078125,11.7604559765625,37.46965705078125,11.7604559765625C37.46965705078125,11.7604559765625,37.46965705078125,11.7604559765625,37.46965705078125,11.7604559765625ZM52.383727050781246,18.9417259765625C52.383727050781246,18.9417259765625,52.50062705078125,17.6134259765625,52.50062705078125,17.6134259765625C52.50062705078125,17.6134259765625,52.383727050781246,18.9417259765625,52.383727050781246,18.9417259765625C52.383727050781246,18.9417259765625,52.383727050781246,18.9417259765625,52.383727050781246,18.9417259765625ZM48.71652705078125,26.1138259765625C40.21262705078125,24.2002259765625,33.51516705078125,17.502725976562502,31.60153705078125,8.998955976562499C31.60153705078125,8.998955976562499,28.99993705078125,9.5843959765625,28.99993705078125,9.5843959765625C31.13972705078125,19.0933259765625,38.62212705078125,26.5757259765625,48.13102705078125,28.7154259765625C48.13102705078125,28.7154259765625,48.71652705078125,26.1138259765625,48.71652705078125,26.1138259765625C48.71652705078125,26.1138259765625,48.71652705078125,26.1138259765625,48.71652705078125,26.1138259765625ZM35.04876705078125,5.3332959765625C35.04876705078125,5.3332959765625,37.38209705078125,5.3332959765625,37.38209705078125,5.3332959765625C37.38209705078125,5.3332959765625,37.38209705078125,2.6666259765625,37.38209705078125,2.6666259765625C37.38209705078125,2.6666259765625,35.04876705078125,2.6666259765625,35.04876705078125,2.6666259765625C35.04876705078125,2.6666259765625,35.04876705078125,5.3332959765625,35.04876705078125,5.3332959765625C35.04876705078125,5.3332959765625,35.04876705078125,5.3332959765625,35.04876705078125,5.3332959765625ZM52.38212705078125,20.3333259765625C52.38212705078125,20.3333259765625,52.38212705078125,22.6666259765625,52.38212705078125,22.6666259765625C52.38212705078125,22.6666259765625,55.04872705078125,22.6666259765625,55.04872705078125,22.6666259765625C55.04872705078125,22.6666259765625,55.04872705078125,20.3333259765625,55.04872705078125,20.3333259765625C55.04872705078125,20.3333259765625,52.38212705078125,20.3333259765625,52.38212705078125,20.3333259765625C52.38212705078125,20.3333259765625,52.38212705078125,20.3333259765625,52.38212705078125,20.3333259765625ZM40.98962705078125,8.994075976562499C40.52342705078125,7.8070359765625,40.21842705078125,6.538545976562499,40.10192705078125,5.2148059765625C40.10192705078125,5.2148059765625,37.44553705078125,5.4484959765625,37.44553705078125,5.4484959765625C37.584657050781246,7.0299859765625,37.94937705078125,8.5478959765625,38.50755705078125,9.9689859765625C38.50755705078125,9.9689859765625,40.98962705078125,8.994075976562499,40.98962705078125,8.994075976562499C40.98962705078125,8.994075976562499,40.98962705078125,8.994075976562499,40.98962705078125,8.994075976562499ZM52.50062705078125,17.6134259765625C51.176927050781245,17.497025976562497,49.90832705078125,17.192025976562498,48.721327050781255,16.7257259765625C48.721327050781255,16.7257259765625,47.74632705078125,19.2078259765625,47.74632705078125,19.2078259765625C49.167527050781246,19.7659259765625,50.68542705078125,20.1307259765625,52.26692705078125,20.2698259765625C52.26692705078125,20.2698259765625,52.50062705078125,17.6134259765625,52.50062705078125,17.6134259765625C52.50062705078125,17.6134259765625,52.50062705078125,17.6134259765625,52.50062705078125,17.6134259765625ZM47.29102705078125,17.0240259765625C47.29102705078125,17.0240259765625,45.012127050781245,19.3029259765625,45.012127050781245,19.3029259765625C45.012127050781245,19.3029259765625,46.89772705078125,21.1885259765625,46.89772705078125,21.1885259765625C46.89772705078125,21.1885259765625,49.17662705078125,18.9095259765625,49.17662705078125,18.9095259765625C49.17662705078125,18.9095259765625,47.29102705078125,17.0240259765625,47.29102705078125,17.0240259765625C47.29102705078125,17.0240259765625,47.29102705078125,17.0240259765625,47.29102705078125,17.0240259765625ZM46.530527050781245,19.0430259765625C43.09852705078125,17.4006259765625,40.31482705078125,14.6169259765625,38.67236705078125,11.1848959765625C38.67236705078125,11.1848959765625,36.26695705078125,12.3360259765625,36.26695705078125,12.3360259765625C38.17209705078125,16.317025976562498,41.39832705078125,19.5433259765625,45.379427050781246,21.4485259765625C45.379427050781246,21.4485259765625,46.530527050781245,19.0430259765625,46.530527050781245,19.0430259765625C46.530527050781245,19.0430259765625,46.530527050781245,19.0430259765625,46.530527050781245,19.0430259765625ZM38.41247705078125,12.7032259765625C38.41247705078125,12.7032259765625,40.69142705078125,10.424345976562499,40.69142705078125,10.424345976562499C40.69142705078125,10.424345976562499,38.80578705078125,8.5387359765625,38.80578705078125,8.5387359765625C38.80578705078125,8.5387359765625,36.52686705078125,10.8176559765625,36.52686705078125,10.8176559765625C36.52686705078125,10.8176559765625,38.41247705078125,12.7032259765625,38.41247705078125,12.7032259765625C38.41247705078125,12.7032259765625,38.41247705078125,12.7032259765625,38.41247705078125,12.7032259765625ZM37.38209705078125,5.3332959765625C37.38359705078125,5.3332959765625,37.38364705078125,5.333415976562501,37.38284705078125,5.3332559765625C37.38214705078125,5.3331059765625,37.38192705078125,5.3329759765624996,37.38245705078125,5.3331959765625C37.38355705078125,5.3336559765625005,37.39015705078125,5.3367159765625,37.39979705078125,5.3461059765625C37.42123705078125,5.3669759765625,37.44156705078125,5.4033559765625,37.44553705078125,5.4484959765625C37.44553705078125,5.4484959765625,40.10192705078125,5.2148059765625,40.10192705078125,5.2148059765625C39.98342705078125,3.8671359765625,38.88172705078125,2.6666259765625,37.38209705078125,2.6666259765625C37.38209705078125,2.6666259765625,37.38209705078125,5.3332959765625,37.38209705078125,5.3332959765625C37.38209705078125,5.3332959765625,37.38209705078125,5.3332959765625,37.38209705078125,5.3332959765625ZM55.04872705078125,20.3333259765625C55.04872705078125,18.8337259765625,53.84822705078125,17.7319259765625,52.50062705078125,17.6134259765625C52.50062705078125,17.6134259765625,52.26692705078125,20.2698259765625,52.26692705078125,20.2698259765625C52.31212705078125,20.2738259765625,52.34832705078125,20.2942259765625,52.36932705078125,20.3155259765625C52.37862705078125,20.3253259765625,52.38172705078125,20.3318259765625,52.38222705078125,20.3329259765625C52.38232705078125,20.3334259765625,52.38222705078125,20.3333259765625,52.38212705078125,20.3325259765625C52.38192705078125,20.3317259765625,52.38212705078125,20.3318259765625,52.38212705078125,20.3333259765625C52.38212705078125,20.3333259765625,55.04872705078125,20.3333259765625,55.04872705078125,20.3333259765625C55.04872705078125,20.3333259765625,55.04872705078125,20.3333259765625,55.04872705078125,20.3333259765625ZM31.60153705078125,8.998955976562499C31.18864705078125,7.1640959765625,32.73415705078125,5.3332959765625,35.04876705078125,5.3332959765625C35.04876705078125,5.3332959765625,35.04876705078125,2.6666259765625,35.04876705078125,2.6666259765625C31.47233705078125,2.6666259765625,28.11951505078125,5.6719559765625,28.99993705078125,9.5843959765625C28.99993705078125,9.5843959765625,31.60153705078125,8.998955976562499,31.60153705078125,8.998955976562499C31.60153705078125,8.998955976562499,31.60153705078125,8.998955976562499,31.60153705078125,8.998955976562499ZM48.13102705078125,28.7154259765625C52.04342705078125,29.5958259765625,55.04872705078125,26.2430259765625,55.04872705078125,22.6666259765625C55.04872705078125,22.6666259765625,52.38212705078125,22.6666259765625,52.38212705078125,22.6666259765625C52.38212705078125,24.9813259765625,50.55132705078125,26.5267259765625,48.71652705078125,26.1138259765625C48.71652705078125,26.1138259765625,48.13102705078125,28.7154259765625,48.13102705078125,28.7154259765625C48.13102705078125,28.7154259765625,48.13102705078125,28.7154259765625,48.13102705078125,28.7154259765625Z" fill="currentColor" fill-opacity="1"/></g></g></svg>