<svg xmlns="http://www.w3.org/2000/svg" xmlns:xlink="http://www.w3.org/1999/xlink" fill="none" version="1.1" width="32" height="32" viewBox="0 0 32 32"><defs><clipPath id="master_svg0_110_29135"><rect x="0" y="0" width="32" height="32" rx="0"/></clipPath></defs><g clip-path="url(#master_svg0_110_29135)"><g><path d="M13.33333,14.6666259765625C13.33333,15.4029959765625,12.73637,15.9999559765625,12,15.9999559765625C12,15.9999559765625,12,18.6666259765625,12,18.6666259765625C14.20913,18.6666259765625,16,16.875755976562502,16,14.6666259765625C16,14.6666259765625,13.33333,14.6666259765625,13.33333,14.6666259765625C13.33333,14.6666259765625,13.33333,14.6666259765625,13.33333,14.6666259765625ZM12,15.9999559765625C11.26363,15.9999559765625,10.66667,15.4029959765625,10.66667,14.6666259765625C10.66667,14.6666259765625,8,14.6666259765625,8,14.6666259765625C8,16.875755976562502,9.79086,18.6666259765625,12,18.6666259765625C12,18.6666259765625,12,15.9999559765625,12,15.9999559765625C12,15.9999559765625,12,15.9999559765625,12,15.9999559765625ZM10.66667,14.6666259765625C10.66667,13.9302559765625,11.26363,13.3332959765625,12,13.3332959765625C12,13.3332959765625,12,10.6666259765625,12,10.6666259765625C9.79086,10.6666259765625,8,12.4574859765625,8,14.6666259765625C8,14.6666259765625,10.66667,14.6666259765625,10.66667,14.6666259765625C10.66667,14.6666259765625,10.66667,14.6666259765625,10.66667,14.6666259765625ZM12,13.3332959765625C12.73637,13.3332959765625,13.33333,13.9302559765625,13.33333,14.6666259765625C13.33333,14.6666259765625,16,14.6666259765625,16,14.6666259765625C16,12.4574859765625,14.20913,10.6666259765625,12,10.6666259765625C12,10.6666259765625,12,13.3332959765625,12,13.3332959765625C12,13.3332959765625,12,13.3332959765625,12,13.3332959765625Z" fill="currentColor" fill-opacity="1"/></g><g><path d="M6.6666259765625,24C6.6666259765625,24.73637,7.2635789765625,25.33333,7.9999559765625,25.33333C8.7363359765625,25.33333,9.3332959765625,24.73637,9.3332959765625,24C9.3332959765625,24,6.6666259765625,24,6.6666259765625,24C6.6666259765625,24,6.6666259765625,24,6.6666259765625,24ZM14.6666259765625,24C14.6666259765625,24.73637,15.2635859765625,25.33333,15.9999559765625,25.33333C16.736325976562497,25.33333,17.3333259765625,24.73637,17.3333259765625,24C17.3333259765625,24,14.6666259765625,24,14.6666259765625,24C14.6666259765625,24,14.6666259765625,24,14.6666259765625,24ZM9.3332959765625,24C9.3332959765625,23.84813,9.4256559765625,23.54744,9.9111359765625,23.22379C10.3872959765625,22.90635,11.1219059765625,22.66667,11.9999559765625,22.66667C11.9999559765625,22.66667,11.9999559765625,20,11.9999559765625,20C10.6688659765625,20,9.4034959765625,20.357277,8.4319359765625,21.00498C7.4696969765625,21.64647,6.6666259765625,22.67911,6.6666259765625,24C6.6666259765625,24,9.3332959765625,24,9.3332959765625,24C9.3332959765625,24,9.3332959765625,24,9.3332959765625,24ZM11.9999559765625,22.66667C12.8780159765625,22.66667,13.6126259765625,22.90635,14.0887859765625,23.22379C14.5742659765625,23.54744,14.6666259765625,23.84813,14.6666259765625,24C14.6666259765625,24,17.3333259765625,24,17.3333259765625,24C17.3333259765625,22.67911,16.530225976562498,21.64647,15.5679859765625,21.00498C14.5964259765625,20.357277,13.3310559765625,20,11.9999559765625,20C11.9999559765625,20,11.9999559765625,22.66667,11.9999559765625,22.66667C11.9999559765625,22.66667,11.9999559765625,22.66667,11.9999559765625,22.66667Z" fill="currentColor" fill-opacity="1"/></g><g><path d="M23.9999559765625,16.0000440234375C24.7363359765625,16.0000440234375,25.3332959765625,15.4030840234375,25.3332959765625,14.6667040234375C25.3332959765625,13.9303270234375,24.7363359765625,13.3333740234375,23.9999559765625,13.3333740234375C23.9999559765625,13.3333740234375,23.9999559765625,16.0000440234375,23.9999559765625,16.0000440234375C23.9999559765625,16.0000440234375,23.9999559765625,16.0000440234375,23.9999559765625,16.0000440234375ZM19.9999559765625,13.3333753567675C19.2635789765625,13.3333753567675,18.6666259765625,13.9303290234375,18.6666259765625,14.6667040234375C18.6666259765625,15.4030840234375,19.2635789765625,16.0000440234375,19.9999559765625,16.0000440234375C19.9999559765625,16.0000440234375,19.9999559765625,13.3333753567675,19.9999559765625,13.3333753567675C19.9999559765625,13.3333753567675,19.9999559765625,13.3333753567675,19.9999559765625,13.3333753567675ZM23.9999559765625,13.3333740234375C23.9999559765625,13.3333740234375,19.9999559765625,13.3333753567675,19.9999559765625,13.3333753567675C19.9999559765625,13.3333753567675,19.9999559765625,16.0000440234375,19.9999559765625,16.0000440234375C19.9999559765625,16.0000440234375,23.9999559765625,16.0000440234375,23.9999559765625,16.0000440234375C23.9999559765625,16.0000440234375,23.9999559765625,13.3333740234375,23.9999559765625,13.3333740234375C23.9999559765625,13.3333740234375,23.9999559765625,13.3333740234375,23.9999559765625,13.3333740234375Z" fill="currentColor" fill-opacity="1"/></g><g><path d="M23.9999559765625,20.0000440234375C24.7363359765625,20.0000440234375,25.3332959765625,19.4030840234375,25.3332959765625,18.6667040234375C25.3332959765625,17.9303290234375,24.7363359765625,17.3333740234375,23.9999559765625,17.3333740234375C23.9999559765625,17.3333740234375,23.9999559765625,20.0000440234375,23.9999559765625,20.0000440234375C23.9999559765625,20.0000440234375,23.9999559765625,20.0000440234375,23.9999559765625,20.0000440234375ZM19.9999559765625,17.3333740234375C19.2635789765625,17.3333740234375,18.6666259765625,17.9303270234375,18.6666259765625,18.6667040234375C18.6666259765625,19.4030840234375,19.2635789765625,20.0000440234375,19.9999559765625,20.0000440234375C19.9999559765625,20.0000440234375,19.9999559765625,17.3333740234375,19.9999559765625,17.3333740234375C19.9999559765625,17.3333740234375,19.9999559765625,17.3333740234375,19.9999559765625,17.3333740234375ZM23.9999559765625,17.3333740234375C23.9999559765625,17.3333740234375,19.9999559765625,17.3333740234375,19.9999559765625,17.3333740234375C19.9999559765625,17.3333740234375,19.9999559765625,20.0000440234375,19.9999559765625,20.0000440234375C19.9999559765625,20.0000440234375,23.9999559765625,20.0000440234375,23.9999559765625,20.0000440234375C23.9999559765625,20.0000440234375,23.9999559765625,17.3333740234375,23.9999559765625,17.3333740234375C23.9999559765625,17.3333740234375,23.9999559765625,17.3333740234375,23.9999559765625,17.3333740234375Z" fill="currentColor" fill-opacity="1"/></g><g><path d="M6.6666259765625,8.0000440234375C6.6666259765625,8.0000440234375,25.3333259765625,8.0000440234375,25.3333259765625,8.0000440234375C25.3333259765625,8.0000440234375,25.3333259765625,5.3333740234375,25.3333259765625,5.3333740234375C25.3333259765625,5.3333740234375,6.6666259765625,5.3333740234375,6.6666259765625,5.3333740234375C6.6666259765625,5.3333740234375,6.6666259765625,8.0000440234375,6.6666259765625,8.0000440234375C6.6666259765625,8.0000440234375,6.6666259765625,8.0000440234375,6.6666259765625,8.0000440234375ZM26.6666259765625,9.3333740234375C26.6666259765625,9.3333740234375,26.6666259765625,22.6666740234375,26.6666259765625,22.6666740234375C26.6666259765625,22.6666740234375,29.3333259765625,22.6666740234375,29.3333259765625,22.6666740234375C29.3333259765625,22.6666740234375,29.3333259765625,9.3333740234375,29.3333259765625,9.3333740234375C29.3333259765625,9.3333740234375,26.6666259765625,9.3333740234375,26.6666259765625,9.3333740234375C26.6666259765625,9.3333740234375,26.6666259765625,9.3333740234375,26.6666259765625,9.3333740234375ZM25.3333259765625,24.0000740234375C25.3333259765625,24.0000740234375,6.6666259765625,24.0000740234375,6.6666259765625,24.0000740234375C6.6666259765625,24.0000740234375,6.6666259765625,26.6666740234375,6.6666259765625,26.6666740234375C6.6666259765625,26.6666740234375,25.3333259765625,26.6666740234375,25.3333259765625,26.6666740234375C25.3333259765625,26.6666740234375,25.3333259765625,24.0000740234375,25.3333259765625,24.0000740234375C25.3333259765625,24.0000740234375,25.3333259765625,24.0000740234375,25.3333259765625,24.0000740234375ZM5.3332959765625,22.6666740234375C5.3332959765625,22.6666740234375,5.3332959765625,9.3333740234375,5.3332959765625,9.3333740234375C5.3332959765625,9.3333740234375,2.6666259765625,9.3333740234375,2.6666259765625,9.3333740234375C2.6666259765625,9.3333740234375,2.6666259765625,22.6666740234375,2.6666259765625,22.6666740234375C2.6666259765625,22.6666740234375,5.3332959765625,22.6666740234375,5.3332959765625,22.6666740234375C5.3332959765625,22.6666740234375,5.3332959765625,22.6666740234375,5.3332959765625,22.6666740234375ZM6.6666259765625,24.0000740234375C5.9302559765625,24.0000740234375,5.3332959765625,23.4030740234375,5.3332959765625,22.6666740234375C5.3332959765625,22.6666740234375,2.6666259765625,22.6666740234375,2.6666259765625,22.6666740234375C2.6666259765625,24.8758740234375,4.4574859765625,26.6666740234375,6.6666259765625,26.6666740234375C6.6666259765625,26.6666740234375,6.6666259765625,24.0000740234375,6.6666259765625,24.0000740234375C6.6666259765625,24.0000740234375,6.6666259765625,24.0000740234375,6.6666259765625,24.0000740234375ZM26.6666259765625,22.6666740234375C26.6666259765625,23.4030740234375,26.0697259765625,24.0000740234375,25.3333259765625,24.0000740234375C25.3333259765625,24.0000740234375,25.3333259765625,26.6666740234375,25.3333259765625,26.6666740234375C27.5425259765625,26.6666740234375,29.3333259765625,24.8758740234375,29.3333259765625,22.6666740234375C29.3333259765625,22.6666740234375,26.6666259765625,22.6666740234375,26.6666259765625,22.6666740234375C26.6666259765625,22.6666740234375,26.6666259765625,22.6666740234375,26.6666259765625,22.6666740234375ZM25.3333259765625,8.0000440234375C26.0697259765625,8.0000440234375,26.6666259765625,8.5970040234375,26.6666259765625,9.3333740234375C26.6666259765625,9.3333740234375,29.3333259765625,9.3333740234375,29.3333259765625,9.3333740234375C29.3333259765625,7.1242340234375,27.5425259765625,5.3333740234375,25.3333259765625,5.3333740234375C25.3333259765625,5.3333740234375,25.3333259765625,8.0000440234375,25.3333259765625,8.0000440234375C25.3333259765625,8.0000440234375,25.3333259765625,8.0000440234375,25.3333259765625,8.0000440234375ZM6.6666259765625,5.3333740234375C4.4574859765625,5.3333740234375,2.6666259765625,7.1242340234375,2.6666259765625,9.3333740234375C2.6666259765625,9.3333740234375,5.3332959765625,9.3333740234375,5.3332959765625,9.3333740234375C5.3332959765625,8.5970040234375,5.9302559765625,8.0000440234375,6.6666259765625,8.0000440234375C6.6666259765625,8.0000440234375,6.6666259765625,5.3333740234375,6.6666259765625,5.3333740234375C6.6666259765625,5.3333740234375,6.6666259765625,5.3333740234375,6.6666259765625,5.3333740234375Z" fill="currentColor" fill-opacity="1"/></g></g></svg>