<svg xmlns="http://www.w3.org/2000/svg" xmlns:xlink="http://www.w3.org/1999/xlink" fill="none" version="1.1" width="32" height="32" viewBox="0 0 32 32"><defs><clipPath id="master_svg0_110_29133"><rect x="0" y="0" width="32" height="32" rx="0"/></clipPath></defs><g clip-path="url(#master_svg0_110_29133)"><g><path d="M8,25.33333C8,26.06971,8.596953,26.66667,9.33333,26.66667C10.06971,26.66667,10.66667,26.06971,10.66667,25.33333C10.66667,25.33333,8,25.33333,8,25.33333C8,25.33333,8,25.33333,8,25.33333ZM21.3333,25.33333C21.3333,26.06971,21.930300000000003,26.66667,22.6667,26.66667C23.403100000000002,26.66667,24,26.06971,24,25.33333C24,25.33333,21.3333,25.33333,21.3333,25.33333C21.3333,25.33333,21.3333,25.33333,21.3333,25.33333ZM10.66667,25.33333C10.66667,24.88111,10.97915,24.24391,11.97195,23.648229999999998C12.93821,23.06847,14.35916,22.66667,16,22.66667C16,22.66667,16,20,16,20C13.95895,20,12.04656,20.493624,10.59996,21.36158C9.1799,22.21362,8,23.57641,8,25.33333C8,25.33333,10.66667,25.33333,10.66667,25.33333C10.66667,25.33333,10.66667,25.33333,10.66667,25.33333ZM16,22.66667C17.64084,22.66667,19.061799999999998,23.06847,20.028100000000002,23.648229999999998C21.020899999999997,24.24391,21.3333,24.88111,21.3333,25.33333C21.3333,25.33333,24,25.33333,24,25.33333C24,23.57641,22.8201,22.21362,21.4,21.36158C19.953400000000002,20.493624,18.0411,20,16,20C16,20,16,22.66667,16,22.66667C16,22.66667,16,22.66667,16,22.66667Z" fill="currentColor" fill-opacity="1"/></g><g><path d="M18.66668701171875,13.33333C18.66668701171875,14.806090000000001,17.47277701171875,16,16.00001701171875,16C16.00001701171875,16,16.00001701171875,18.6667,16.00001701171875,18.6667C18.94553701171875,18.6667,21.33338701171875,16.27885,21.33338701171875,13.33333C21.33338701171875,13.33333,18.66668701171875,13.33333,18.66668701171875,13.33333C18.66668701171875,13.33333,18.66668701171875,13.33333,18.66668701171875,13.33333ZM16.00001701171875,16C14.52725701171875,16,13.33335701171875,14.806090000000001,13.33335701171875,13.33333C13.33335701171875,13.33333,10.66668701171875,13.33333,10.66668701171875,13.33333C10.66668701171875,16.27885,13.05449701171875,18.6667,16.00001701171875,18.6667C16.00001701171875,18.6667,16.00001701171875,16,16.00001701171875,16C16.00001701171875,16,16.00001701171875,16,16.00001701171875,16ZM13.33335701171875,13.33333C13.33335701171875,11.86057,14.52725701171875,10.66667,16.00001701171875,10.66667C16.00001701171875,10.66667,16.00001701171875,8,16.00001701171875,8C13.05449701171875,8,10.66668701171875,10.38781,10.66668701171875,13.33333C10.66668701171875,13.33333,13.33335701171875,13.33333,13.33335701171875,13.33333C13.33335701171875,13.33333,13.33335701171875,13.33333,13.33335701171875,13.33333ZM16.00001701171875,10.66667C17.47277701171875,10.66667,18.66668701171875,11.86057,18.66668701171875,13.33333C18.66668701171875,13.33333,21.33338701171875,13.33333,21.33338701171875,13.33333C21.33338701171875,10.38781,18.94553701171875,8,16.00001701171875,8C16.00001701171875,8,16.00001701171875,10.66667,16.00001701171875,10.66667C16.00001701171875,10.66667,16.00001701171875,10.66667,16.00001701171875,10.66667Z" fill="currentColor" fill-opacity="1"/></g><g><path d="M26.66668701171875,15.9999259765625C26.66668701171875,21.8910259765625,21.89108701171875,26.6666259765625,15.99998701171875,26.6666259765625C15.99998701171875,26.6666259765625,15.99998701171875,29.3333259765625,15.99998701171875,29.3333259765625C23.36378701171875,29.3333259765625,29.33338701171875,23.3637259765625,29.33338701171875,15.9999259765625C29.33338701171875,15.9999259765625,26.66668701171875,15.9999259765625,26.66668701171875,15.9999259765625C26.66668701171875,15.9999259765625,26.66668701171875,15.9999259765625,26.66668701171875,15.9999259765625ZM15.99998701171875,26.6666259765625C10.10897701171875,26.6666259765625,5.33335701171875,21.8910259765625,5.33335701171875,15.9999259765625C5.33335701171875,15.9999259765625,2.66668701171875,15.9999259765625,2.66668701171875,15.9999259765625C2.66668701171875,23.3637259765625,8.636217011718749,29.3333259765625,15.99998701171875,29.3333259765625C15.99998701171875,29.3333259765625,15.99998701171875,26.6666259765625,15.99998701171875,26.6666259765625C15.99998701171875,26.6666259765625,15.99998701171875,26.6666259765625,15.99998701171875,26.6666259765625ZM5.33335701171875,15.9999259765625C5.33335701171875,10.1089159765625,10.10897701171875,5.3332959765625,15.99998701171875,5.3332959765625C15.99998701171875,5.3332959765625,15.99998701171875,2.6666259765625,15.99998701171875,2.6666259765625C8.636217011718749,2.6666259765625,2.66668701171875,8.636155976562499,2.66668701171875,15.9999259765625C2.66668701171875,15.9999259765625,5.33335701171875,15.9999259765625,5.33335701171875,15.9999259765625C5.33335701171875,15.9999259765625,5.33335701171875,15.9999259765625,5.33335701171875,15.9999259765625ZM15.99998701171875,5.3332959765625C21.89108701171875,5.3332959765625,26.66668701171875,10.1089159765625,26.66668701171875,15.9999259765625C26.66668701171875,15.9999259765625,29.33338701171875,15.9999259765625,29.33338701171875,15.9999259765625C29.33338701171875,8.636155976562499,23.36378701171875,2.6666259765625,15.99998701171875,2.6666259765625C15.99998701171875,2.6666259765625,15.99998701171875,5.3332959765625,15.99998701171875,5.3332959765625C15.99998701171875,5.3332959765625,15.99998701171875,5.3332959765625,15.99998701171875,5.3332959765625Z" fill="currentColor" fill-opacity="1"/></g></g></svg>