<svg xmlns="http://www.w3.org/2000/svg" xmlns:xlink="http://www.w3.org/1999/xlink" fill="none" version="1.1" width="32" height="32" viewBox="0 0 32 32"><defs><clipPath id="master_svg0_110_28876"><rect x="0" y="0" width="32" height="32" rx="0"/></clipPath></defs><g clip-path="url(#master_svg0_110_28876)"><g><path d="M5.3333740234375,28.0000440234375C5.3333740234375,28.7364140234375,5.9303270234375,29.3333740234375,6.6667040234375,29.3333740234375C7.403084023437501,29.3333740234375,8.0000440234375,28.7364140234375,8.0000440234375,28.0000440234375C8.0000440234375,28.0000440234375,5.3333740234375,28.0000440234375,5.3333740234375,28.0000440234375C5.3333740234375,28.0000440234375,5.3333740234375,28.0000440234375,5.3333740234375,28.0000440234375ZM24.0000740234375,28.0000440234375C24.0000740234375,28.7364140234375,24.5969740234375,29.3333740234375,25.3333740234375,29.3333740234375C26.0697740234375,29.3333740234375,26.6666740234375,28.7364140234375,26.6666740234375,28.0000440234375C26.6666740234375,28.0000440234375,24.0000740234375,28.0000440234375,24.0000740234375,28.0000440234375C24.0000740234375,28.0000440234375,24.0000740234375,28.0000440234375,24.0000740234375,28.0000440234375ZM8.0000440234375,28.0000440234375C8.0000440234375,27.2122540234375,8.5709340234375,26.238444023437502,10.0618940234375,25.3864640234375C11.5151340234375,24.5560440234375,13.6117640234375,24.0000440234375,16.0000740234375,24.0000440234375C16.0000740234375,24.0000440234375,16.0000740234375,21.3333740234375,16.0000740234375,21.3333740234375C13.2336640234375,21.3333740234375,10.6636240234375,21.9712810234375,8.7388540234375,23.0711440234375C6.8518140234375,24.1494540234375,5.3333740234375,25.8423040234375,5.3333740234375,28.0000440234375C5.3333740234375,28.0000440234375,8.0000440234375,28.0000440234375,8.0000440234375,28.0000440234375C8.0000440234375,28.0000440234375,8.0000440234375,28.0000440234375,8.0000440234375,28.0000440234375ZM16.0000740234375,24.0000440234375C18.3882740234375,24.0000440234375,20.484974023437502,24.5560440234375,21.9381740234375,25.3864640234375C23.4290740234375,26.238444023437502,24.0000740234375,27.2122540234375,24.0000740234375,28.0000440234375C24.0000740234375,28.0000440234375,26.6666740234375,28.0000440234375,26.6666740234375,28.0000440234375C26.6666740234375,25.8423040234375,25.1482740234375,24.1494540234375,23.2612740234375,23.0711440234375C21.3364740234375,21.9712810234375,18.7663740234375,21.3333740234375,16.0000740234375,21.3333740234375C16.0000740234375,21.3333740234375,16.0000740234375,24.0000440234375,16.0000740234375,24.0000440234375C16.0000740234375,24.0000440234375,16.0000740234375,24.0000440234375,16.0000740234375,24.0000440234375Z" fill="currentColor" fill-opacity="0.8500000238418579"/></g><g><path d="M21.3333,10.6666259765625C21.3333,13.6121259765625,18.9455,15.9999259765625,16,15.9999259765625C16,15.9999259765625,16,18.6666259765625,16,18.6666259765625C20.418300000000002,18.6666259765625,24,15.0849259765625,24,10.6666259765625C24,10.6666259765625,21.3333,10.6666259765625,21.3333,10.6666259765625C21.3333,10.6666259765625,21.3333,10.6666259765625,21.3333,10.6666259765625ZM16,15.9999259765625C13.05448,15.9999259765625,10.66667,13.6121259765625,10.66667,10.6666259765625C10.66667,10.6666259765625,8,10.6666259765625,8,10.6666259765625C8,15.0849259765625,11.58172,18.6666259765625,16,18.6666259765625C16,18.6666259765625,16,15.9999259765625,16,15.9999259765625C16,15.9999259765625,16,15.9999259765625,16,15.9999259765625ZM10.66667,10.6666259765625C10.66667,7.7211059765625,13.05448,5.3332959765625,16,5.3332959765625C16,5.3332959765625,16,2.6666259765625,16,2.6666259765625C11.58172,2.6666259765625,8,6.2483459765625,8,10.6666259765625C8,10.6666259765625,10.66667,10.6666259765625,10.66667,10.6666259765625C10.66667,10.6666259765625,10.66667,10.6666259765625,10.66667,10.6666259765625ZM16,5.3332959765625C18.9455,5.3332959765625,21.3333,7.7211059765625,21.3333,10.6666259765625C21.3333,10.6666259765625,24,10.6666259765625,24,10.6666259765625C24,6.2483459765625,20.418300000000002,2.6666259765625,16,2.6666259765625C16,2.6666259765625,16,5.3332959765625,16,5.3332959765625C16,5.3332959765625,16,5.3332959765625,16,5.3332959765625Z" fill="currentColor" fill-opacity="0.8500000238418579"/></g></g></svg>