<svg xmlns="http://www.w3.org/2000/svg" xmlns:xlink="http://www.w3.org/1999/xlink" fill="none" version="1.1" width="32" height="32" viewBox="0 0 32 32"><defs><clipPath id="master_svg0_110_29119"><rect x="0" y="0" width="32" height="32" rx="0"/></clipPath></defs><g clip-path="url(#master_svg0_110_29119)"><g><path d="M13.166748046875,10.33333C13.166748046875,11.806090000000001,11.972838046875001,13,10.500078046875,13C10.500078046875,13,10.500078046875,15.6667,10.500078046875,15.6667C13.445598046875,15.6667,15.833448046875,13.27885,15.833448046875,10.33333C15.833448046875,10.33333,13.166748046875,10.33333,13.166748046875,10.33333ZM10.500078046875,13C9.027318046875,13,7.833418046875,11.806090000000001,7.833418046875,10.33333C7.833418046875,10.33333,5.166748046875,10.33333,5.166748046875,10.33333C5.166748046875,13.27885,7.554558046875,15.6667,10.500078046875,15.6667C10.500078046875,15.6667,10.500078046875,13,10.500078046875,13ZM7.833418046875,10.33333C7.833418046875,8.86057,9.027318046875,7.66667,10.500078046875,7.66667C10.500078046875,7.66667,10.500078046875,5,10.500078046875,5C7.554558046875,5,5.166748046875,7.38781,5.166748046875,10.33333C5.166748046875,10.33333,7.833418046875,10.33333,7.833418046875,10.33333ZM10.500078046875,7.66667C11.972838046875001,7.66667,13.166748046875,8.86057,13.166748046875,10.33333C13.166748046875,10.33333,15.833448046875,10.33333,15.833448046875,10.33333C15.833448046875,7.38781,13.445598046875,5,10.500078046875,5C10.500078046875,5,10.500078046875,7.66667,10.500078046875,7.66667Z" fill="currentColor" fill-opacity="1"/></g><g><path d="M6.55615234375,17.5L14.43603234375,17.5Q14.50972234375,17.5,14.58306234375,17.50722Q14.65639234375,17.51445,14.72867234375,17.52882Q14.80094234375,17.5432,14.87146234375,17.56459Q14.94198234375,17.58598,15.01006234375,17.61418Q15.07814234375,17.64238,15.14313234375,17.67712Q15.20812234375,17.71186,15.26939234375,17.7528Q15.33066234375,17.79374,15.38762234375,17.84048Q15.44459234375,17.88723,15.49669234375,17.93934Q15.54880234375,17.99145,15.59555234375,18.04841Q15.64230234375,18.105373,15.68324234375,18.166645Q15.72418234375,18.227916,15.75891234375,18.292905Q15.79365234375,18.357894,15.82185234375,18.425975Q15.85005234375,18.494056,15.87144234375,18.564573Q15.89284234375,18.63509,15.90721234375,18.707365Q15.92159234375,18.779639,15.92881234375,18.852974Q15.93603234375,18.9263097,15.93603234375,19Q15.93603234375,19.0736903,15.92881234375,19.147026Q15.92159234375,19.220361,15.90721234375,19.292635Q15.89284234375,19.36491,15.87144234375,19.435427Q15.85005234375,19.505944,15.82185234375,19.574025Q15.79365234375,19.642106,15.75891234375,19.707095Q15.72418234375,19.772084,15.68324234375,19.833355Q15.64230234375,19.894627,15.59555234375,19.95159Q15.54880234375,20.00855,15.49669234375,20.06066Q15.44459234375,20.11277,15.38762234375,20.15952Q15.33066234375,20.20626,15.26939234375,20.2472Q15.20812234375,20.28814,15.14313234375,20.32288Q15.07814234375,20.35762,15.01006234375,20.38582Q14.94198234375,20.41402,14.87146234375,20.43541Q14.80094234375,20.4568,14.72867234375,20.47118Q14.65639234375,20.48555,14.58306234375,20.49278Q14.50972234375,20.5,14.43603234375,20.5L6.55615234375,20.5Q6.48246204375,20.5,6.40912634375,20.49278Q6.33579134375,20.48555,6.26351734375,20.47118Q6.19124234375,20.4568,6.12072534375,20.43541Q6.0502083437500005,20.41402,5.98212734375,20.38582Q5.91404634375,20.35762,5.84905734375,20.32288Q5.7840683437500005,20.28814,5.72279734375,20.2472Q5.66152534375,20.20626,5.60456234375,20.15952Q5.54760234375,20.11277,5.49549234375,20.06066Q5.44338234375,20.00855,5.3966323437499994,19.95159Q5.34989234375,19.894627,5.30895234375,19.833355Q5.26801234375,19.772084,5.23327234375,19.707095Q5.19853234375,19.642106,5.17033234375,19.574025Q5.14213234375,19.505944,5.12074234375,19.435427Q5.09935234375,19.36491,5.08497234375,19.292635Q5.07060234375,19.220361,5.06337234375,19.147026Q5.05615234375,19.0736903,5.05615234375,19Q5.05615234375,18.9263097,5.06337234375,18.852974Q5.07060234375,18.779639,5.08497234375,18.707365Q5.09935234375,18.63509,5.12074234375,18.564573Q5.14213234375,18.494056,5.17033234375,18.425975Q5.19853234375,18.357894,5.23327234375,18.292905Q5.26801234375,18.227916,5.30895234375,18.166645Q5.34989234375,18.105373,5.3966323437499994,18.04841Q5.44338234375,17.99145,5.49549234375,17.93934Q5.54760234375,17.88723,5.60456234375,17.84048Q5.66152534375,17.79374,5.72279734375,17.7528Q5.7840683437500005,17.71186,5.84905734375,17.67712Q5.91404634375,17.64238,5.98212734375,17.61418Q6.0502083437500005,17.58598,6.12072534375,17.56459Q6.19124234375,17.5432,6.26351734375,17.52882Q6.33579134375,17.51445,6.40912634375,17.50722Q6.48246204375,17.5,6.55615234375,17.5Z" fill-rule="evenodd" fill="currentColor" fill-opacity="0.8509804010391235"/></g><g transform="matrix(0,1,-1,0,25.56494140625,4.56298828125)"><path d="M10.5009765625,13.56396484375L21.5009765625,13.56396484375Q21.574676562500002,13.56396484375,21.6479765625,13.57118484375Q21.721376562499998,13.57841484375,21.7935765625,13.59278484375Q21.8658765625,13.60716484375,21.9363765625,13.628554843749999Q22.0068765625,13.64994484375,22.074976562499998,13.67814484375Q22.1430765625,13.70634484375,22.2080765625,13.74108484375Q22.273076562500002,13.77582484375,22.334376562499997,13.81676484375Q22.3955765625,13.85770484375,22.4525765625,13.90444484375Q22.5095765625,13.95119484375,22.5616765625,14.00330484375Q22.6137765625,14.05541484375,22.6604765625,14.11237484375Q22.7072765625,14.16933784375,22.7481765625,14.23060984375Q22.7890765625,14.29188084375,22.8238765625,14.35686984375Q22.858576562499998,14.42185884375,22.8867765625,14.48993984375Q22.9149765625,14.55802084375,22.9363765625,14.62853784375Q22.9577765625,14.69905484375,22.9721765625,14.77132984375Q22.986576562499998,14.84360384375,22.993776562500003,14.91693884375Q23.0009765625,14.99027454375,23.0009765625,15.06396484375Q23.0009765625,15.13765514375,22.993776562500003,15.21099084375Q22.986576562499998,15.28432584375,22.9721765625,15.35659984375Q22.9577765625,15.42887484375,22.9363765625,15.49939184375Q22.9149765625,15.56990884375,22.8867765625,15.63798984375Q22.858576562499998,15.70607084375,22.8238765625,15.77105984375Q22.7890765625,15.83604884375,22.7481765625,15.89731984375Q22.7072765625,15.95859184375,22.6604765625,16.01555484375Q22.6137765625,16.07251484375,22.5616765625,16.12462484375Q22.5095765625,16.17673484375,22.4525765625,16.22348484375Q22.3955765625,16.27022484375,22.334376562499997,16.31116484375Q22.273076562500002,16.35210484375,22.2080765625,16.38684484375Q22.1430765625,16.42158484375,22.074976562499998,16.44978484375Q22.0068765625,16.47798484375,21.9363765625,16.49937484375Q21.8658765625,16.52076484375,21.7935765625,16.53514484375Q21.721376562499998,16.54951484375,21.6479765625,16.55674484375Q21.574676562500002,16.56396484375,21.5009765625,16.56396484375L10.5009765625,16.56396484375Q10.4272862625,16.56396484375,10.3539505625,16.55674484375Q10.2806155625,16.54951484375,10.2083415625,16.53514484375Q10.1360665625,16.52076484375,10.0655495625,16.49937484375Q9.9950325625,16.47798484375,9.9269515625,16.44978484375Q9.8588705625,16.42158484375,9.7938815625,16.38684484375Q9.7288925625,16.35210484375,9.6676215625,16.31116484375Q9.6063495625,16.27022484375,9.5493865625,16.22348484375Q9.4924265625,16.17673484375,9.4403165625,16.12462484375Q9.3882065625,16.07251484375,9.3414565625,16.01555484375Q9.2947165625,15.95859184375,9.2537765625,15.89731984375Q9.2128365625,15.83604884375,9.1780965625,15.77105984375Q9.1433565625,15.70607084375,9.1151565625,15.63798984375Q9.0869565625,15.56990884375,9.065566562499999,15.49939184375Q9.0441765625,15.42887484375,9.0297965625,15.35659984375Q9.0154265625,15.28432584375,9.0081965625,15.21099084375Q9.0009765625,15.13765514375,9.0009765625,15.06396484375Q9.0009765625,14.99027454375,9.0081965625,14.91693884375Q9.0154265625,14.84360384375,9.0297965625,14.77132984375Q9.0441765625,14.69905484375,9.065566562499999,14.62853784375Q9.0869565625,14.55802084375,9.1151565625,14.48993984375Q9.1433565625,14.42185884375,9.1780965625,14.35686984375Q9.2128365625,14.29188084375,9.2537765625,14.23060984375Q9.2947165625,14.16933784375,9.3414565625,14.11237484375Q9.3882065625,14.05541484375,9.4403165625,14.00330484375Q9.4924265625,13.95119484375,9.5493865625,13.90444484375Q9.6063495625,13.85770484375,9.6676215625,13.81676484375Q9.7288925625,13.77582484375,9.7938815625,13.74108484375Q9.8588705625,13.70634484375,9.9269515625,13.67814484375Q9.9950325625,13.64994484375,10.0655495625,13.628554843749999Q10.1360665625,13.60716484375,10.2083415625,13.59278484375Q10.2806155625,13.57841484375,10.3539505625,13.57118484375Q10.4272862625,13.56396484375,10.5009765625,13.56396484375Z" fill-rule="evenodd" fill="currentColor" fill-opacity="0.8509804010391235"/></g><g transform="matrix(1,0,0,-1,0,55.873046875)"><g><path d="M24.166748046875,33.269853437500004C24.166748046875,34.7426134375,22.972838046875,35.9365234375,21.500078046875,35.9365234375C21.500078046875,35.9365234375,21.500078046875,38.6032234375,21.500078046875,38.6032234375C24.445598046875,38.6032234375,26.833448046875,36.2153734375,26.833448046875,33.269853437500004C26.833448046875,33.269853437500004,24.166748046875,33.269853437500004,24.166748046875,33.269853437500004ZM21.500078046875,35.9365234375C20.027318046875,35.9365234375,18.833418046875,34.7426134375,18.833418046875,33.269853437500004C18.833418046875,33.269853437500004,16.166748046875,33.269853437500004,16.166748046875,33.269853437500004C16.166748046875,36.2153734375,18.554558046875,38.6032234375,21.500078046875,38.6032234375C21.500078046875,38.6032234375,21.500078046875,35.9365234375,21.500078046875,35.9365234375ZM18.833418046875,33.269853437500004C18.833418046875,31.7970934375,20.027318046875,30.6031934375,21.500078046875,30.6031934375C21.500078046875,30.6031934375,21.500078046875,27.9365234375,21.500078046875,27.9365234375C18.554558046875,27.9365234375,16.166748046875,30.3243334375,16.166748046875,33.269853437500004C16.166748046875,33.269853437500004,18.833418046875,33.269853437500004,18.833418046875,33.269853437500004ZM21.500078046875,30.6031934375C22.972838046875,30.6031934375,24.166748046875,31.7970934375,24.166748046875,33.269853437500004C24.166748046875,33.269853437500004,26.833448046875,33.269853437500004,26.833448046875,33.269853437500004C26.833448046875,30.3243334375,24.445598046875,27.9365234375,21.500078046875,27.9365234375C21.500078046875,27.9365234375,21.500078046875,30.6031934375,21.500078046875,30.6031934375Z" fill="currentColor" fill-opacity="1"/></g><g><path d="M18.52525375,44.13676734375L22.52525375,47.90914734375Q22.63676375,48.01430734375,22.72470375,48.13985734375Q22.81263375,48.26540734375,22.87336375,48.40614734375Q22.93408375,48.54688734375,22.96509375,48.69700734375Q22.99609375,48.84711734375,22.99609375,49.00039734375Q22.99609375,49.07408734375,22.98887375,49.14742734375Q22.98164375,49.22075734375,22.96727375,49.29303734375Q22.95289375,49.36530734375,22.93150375,49.43582734375Q22.91011375,49.50634734375,22.88191375,49.57442734375Q22.85371375,49.64250734375,22.818973749999998,49.70749734375Q22.78423375,49.77248734375,22.74329375,49.83375734375Q22.70235375,49.89502734375,22.65561375,49.95198734375Q22.60886375,50.00895734375,22.55675375,50.06105734375Q22.50464375,50.11316734375,22.44768375,50.15991734375Q22.39072375,50.20666734375,22.32944375,50.24760734375Q22.26817375,50.28854734375,22.20318375,50.32327734375Q22.13820375,50.35801734375,22.07011375,50.38621734375Q22.00203375,50.41441734375,21.93152375,50.43580734375Q21.861003750000002,50.45720734375,21.78872375,50.47157734375Q21.71645375,50.48595734375,21.64312375,50.49317734375Q21.56978375,50.50039734375,21.49609375,50.50039734375Q21.35389375,50.50039734375,21.21423375,50.47367734375Q21.07457375,50.44695734375,20.94241375,50.39447734375Q20.81026375,50.34198734375,20.69032375,50.26559734375Q20.57038375,50.18921734375,20.46693375,50.09165734375L20.46671375,50.09144734375L16.46693375,46.31928734375Q16.35542375,46.21411534375,16.26748375,46.08856634375Q16.17955375,45.96301734375,16.11882375,45.82227734375Q16.05810375,45.68153734375,16.02709375,45.53142334375Q15.99609375,45.38130934375,15.99609375,45.22802734375Q15.99609375,45.15433704375,16.00331375,45.08100134375Q16.01054375,45.00766634375,16.02491375,44.93539234375Q16.03929375,44.86311734375,16.06068375,44.79260034375Q16.08207375,44.72208334375,16.11027375,44.65400234375Q16.13847375,44.58592134375,16.17321375,44.52093234375Q16.20795375,44.45594334375,16.24889375,44.39467234375Q16.28983375,44.33340034375,16.33657375,44.27643734375Q16.38332375,44.21947734375,16.43543375,44.16736734375Q16.48754375,44.11525734375,16.54450375,44.06850734375Q16.60146675,44.02176734375,16.66273875,43.98082734375Q16.72400975,43.93988734375,16.78899875,43.90514734375Q16.85398775,43.87040734375,16.92206875,43.84220734375Q16.99014975,43.81400734375,17.06066675,43.79261734375Q17.13118375,43.77122734375,17.20345875,43.75684734375Q17.27573275,43.74247734375,17.34906775,43.73524734375Q17.42240345,43.72802734375,17.49609375,43.72802734375Q17.63828975,43.72802734375,17.77795275,43.75474734375Q17.91761575,43.78146734375,18.04977075,43.83395734375Q18.18192575,43.88643734375,18.30186375,43.96282734375Q18.42180075,44.03920734375,18.52525375,44.13676734375Z" fill-rule="evenodd" fill="currentColor" fill-opacity="0.8509804010391235"/></g><g transform="matrix(-1,0,0,1,50.9921875,0)"><path d="M26.52525375,44.13676734375L30.52525375,47.90914734375Q30.63676375,48.01430734375,30.72470375,48.13985734375Q30.81263375,48.26540734375,30.87336375,48.40614734375Q30.93408375,48.54688734375,30.96509375,48.69700734375Q30.99609375,48.84711734375,30.99609375,49.00039734375Q30.99609375,49.07408734375,30.98887375,49.14742734375Q30.98164375,49.22075734375,30.96727375,49.29303734375Q30.95289375,49.36530734375,30.93150375,49.43582734375Q30.91011375,49.50634734375,30.88191375,49.57442734375Q30.85371375,49.64250734375,30.818973749999998,49.70749734375Q30.78423375,49.77248734375,30.74329375,49.83375734375Q30.70235375,49.89502734375,30.65561375,49.95198734375Q30.60886375,50.00895734375,30.55675375,50.06105734375Q30.50464375,50.11316734375,30.44768375,50.15991734375Q30.39072375,50.20666734375,30.32944375,50.24760734375Q30.26817375,50.28854734375,30.20318375,50.32327734375Q30.13820375,50.35801734375,30.07011375,50.38621734375Q30.00203375,50.41441734375,29.93152375,50.43580734375Q29.861003750000002,50.45720734375,29.78872375,50.47157734375Q29.71645375,50.48595734375,29.64312375,50.49317734375Q29.56978375,50.50039734375,29.49609375,50.50039734375Q29.35389375,50.50039734375,29.21423375,50.47367734375Q29.07457375,50.44695734375,28.94241375,50.39447734375Q28.81026375,50.34198734375,28.69032375,50.26559734375Q28.57038375,50.18921734375,28.46693375,50.09165734375L28.46671375,50.09144734375L24.46693375,46.31928734375Q24.35542375,46.21411534375,24.26748375,46.08856634375Q24.17955375,45.96301734375,24.11882375,45.82227734375Q24.05810375,45.68153734375,24.02709375,45.53142334375Q23.99609375,45.38130934375,23.99609375,45.22802734375Q23.99609375,45.15433704375,24.00331375,45.08100134375Q24.01054375,45.00766634375,24.02491375,44.93539234375Q24.03929375,44.86311734375,24.06068375,44.79260034375Q24.08207375,44.72208334375,24.11027375,44.65400234375Q24.13847375,44.58592134375,24.17321375,44.52093234375Q24.20795375,44.45594334375,24.24889375,44.39467234375Q24.28983375,44.33340034375,24.33657375,44.27643734375Q24.38332375,44.21947734375,24.43543375,44.16736734375Q24.48754375,44.11525734375,24.54450375,44.06850734375Q24.60146675,44.02176734375,24.66273875,43.98082734375Q24.72400975,43.93988734375,24.78899875,43.90514734375Q24.85398775,43.87040734375,24.92206875,43.84220734375Q24.99014975,43.81400734375,25.06066675,43.79261734375Q25.13118375,43.77122734375,25.20345875,43.75684734375Q25.27573275,43.74247734375,25.34906775,43.73524734375Q25.42240345,43.72802734375,25.49609375,43.72802734375Q25.63828975,43.72802734375,25.77795275,43.75474734375Q25.91761575,43.78146734375,26.04977075,43.83395734375Q26.18192575,43.88643734375,26.30186375,43.96282734375Q26.42180075,44.03920734375,26.52525375,44.13676734375Z" fill-rule="evenodd" fill="currentColor" fill-opacity="0.8509804010391235"/></g><g transform="matrix(0,1,-1,0,59.50146484375,16.49951171875)"><path d="M21.5009765625,36.50048828125L32.5009765625,36.50048828125Q32.5746765625,36.50048828125,32.6479765625,36.50770828125Q32.7213765625,36.51493828125,32.7935765625,36.52930828125Q32.8658765625,36.54368828125,32.9363765625,36.56507828125Q33.0068765625,36.58646828125,33.0749765625,36.61466828125Q33.1430765625,36.64286828125,33.2080765625,36.67760828125Q33.2730765625,36.71234828125,33.3343765625,36.75328828125Q33.3955765625,36.79422828125,33.4525765625,36.84096828125Q33.5095765625,36.88771828125,33.5616765625,36.93982828125Q33.6137765625,36.99193828125,33.6604765625,37.04889828125Q33.7072765625,37.10586128125,33.7481765625,37.16713328125Q33.7890765625,37.22840428125,33.823876562500004,37.29339328125Q33.8585765625,37.35838228125,33.8867765625,37.42646328125Q33.9149765625,37.49454428125,33.9363765625,37.56506128125Q33.9577765625,37.63557828125,33.972176562499996,37.70785328125Q33.9865765625,37.78012728125,33.9937765625,37.85346228125Q34.0009765625,37.92679798125,34.0009765625,38.00048828125Q34.0009765625,38.07417858125,33.9937765625,38.14751428125Q33.9865765625,38.22084928125,33.972176562499996,38.29312328125Q33.9577765625,38.36539828125,33.9363765625,38.43591528125Q33.9149765625,38.50643228125,33.8867765625,38.57451328125Q33.8585765625,38.64259428125,33.823876562500004,38.70758328125Q33.7890765625,38.77257228125,33.7481765625,38.83384328125Q33.7072765625,38.89511528125,33.6604765625,38.95207828125Q33.6137765625,39.00903828125,33.5616765625,39.06114828125Q33.5095765625,39.11325828125,33.4525765625,39.16000828125Q33.3955765625,39.20674828125,33.3343765625,39.24768828125Q33.2730765625,39.28862828125,33.2080765625,39.32336828125Q33.1430765625,39.35810828125,33.0749765625,39.38630828125Q33.0068765625,39.41450828125,32.9363765625,39.43589828125Q32.8658765625,39.45728828125,32.7935765625,39.47166828125Q32.7213765625,39.48603828125,32.6479765625,39.49326828125Q32.5746765625,39.50048828125,32.5009765625,39.50048828125L21.5009765625,39.50048828125Q21.4272862625,39.50048828125,21.3539505625,39.49326828125Q21.2806155625,39.48603828125,21.2083415625,39.47166828125Q21.1360665625,39.45728828125,21.0655495625,39.43589828125Q20.9950325625,39.41450828125,20.9269515625,39.38630828125Q20.8588705625,39.35810828125,20.7938815625,39.32336828125Q20.7288925625,39.28862828125,20.6676215625,39.24768828125Q20.6063495625,39.20674828125,20.5493865625,39.16000828125Q20.4924265625,39.11325828125,20.4403165625,39.06114828125Q20.3882065625,39.00903828125,20.3414565625,38.95207828125Q20.2947165625,38.89511528125,20.2537765625,38.83384328125Q20.2128365625,38.77257228125,20.1780965625,38.70758328125Q20.1433565625,38.64259428125,20.1151565625,38.57451328125Q20.0869565625,38.50643228125,20.0655665625,38.43591528125Q20.0441765625,38.36539828125,20.0297965625,38.29312328125Q20.0154265625,38.22084928125,20.0081965625,38.14751428125Q20.0009765625,38.07417858125,20.0009765625,38.00048828125Q20.0009765625,37.92679798125,20.0081965625,37.85346228125Q20.0154265625,37.78012728125,20.0297965625,37.70785328125Q20.0441765625,37.63557828125,20.0655665625,37.56506128125Q20.0869565625,37.49454428125,20.1151565625,37.42646328125Q20.1433565625,37.35838228125,20.1780965625,37.29339328125Q20.2128365625,37.22840428125,20.2537765625,37.16713328125Q20.2947165625,37.10586128125,20.3414565625,37.04889828125Q20.3882065625,36.99193828125,20.4403165625,36.93982828125Q20.4924265625,36.88771828125,20.5493865625,36.84096828125Q20.6063495625,36.79422828125,20.6676215625,36.75328828125Q20.7288925625,36.71234828125,20.7938815625,36.67760828125Q20.8588705625,36.64286828125,20.9269515625,36.61466828125Q20.9950325625,36.58646828125,21.0655495625,36.56507828125Q21.1360665625,36.54368828125,21.2083415625,36.52930828125Q21.2806155625,36.51493828125,21.3539505625,36.50770828125Q21.4272862625,36.50048828125,21.5009765625,36.50048828125Z" fill-rule="evenodd" fill="currentColor" fill-opacity="0.8509804010391235"/></g></g></g></svg>